<?xml version="1.0" encoding="UTF-8" standalone="no"?><svg xmlns="http://www.w3.org/2000/svg" xmlns:xlink="http://www.w3.org/1999/xlink" contentScriptType="text/ecmascript" fill="#000000" width="377.4" zoomAndPan="magnify" contentStyleType="text/css" viewBox="0.0 0.0 377.4 361.0" height="361" preserveAspectRatio="xMidYMid meet" version="1"><defs><clipPath id="a"><path d="M 0 0 L 377.449219 0 L 377.449219 361.039062 L 0 361.039062 Z M 0 0"/></clipPath></defs><g><g id="change1_1" clip-path="url(#a)"><path fill="#ed4783" d="M 365.59375 84.015625 C 348.269531 58.273438 311.488281 37.941406 256.273438 23.59375 C 213.597656 12.5 160.902344 4.945312 95.167969 0.496094 C 90.285156 0.167969 85.535156 0 81.039062 0 C 48.734375 0 26.6875 8.273438 13.640625 25.289062 C -12.128906 58.894531 3.976562 118.8125 18.183594 171.675781 L 20.539062 180.457031 C 29.578125 214.234375 35.546875 236.554688 52.367188 251.292969 C 65.460938 262.769531 83.855469 269.996094 116.613281 272.179688 C 119.167969 272.351562 123.820312 276.378906 123.820312 288.628906 C 123.820312 323.503906 81.300781 358.050781 80.589844 358.613281 C 80.058594 359.042969 79.925781 359.796875 80.273438 360.378906 C 80.527344 360.800781 80.976562 361.039062 81.441406 361.039062 C 81.621094 361.039062 85.4375 359.1875 85.609375 359.113281 C 92.132812 356.304688 168.515625 328.914062 217.148438 290.292969 C 223.109375 285.5625 227.675781 281.6875 231.621094 277.933594 C 232.222656 277.359375 233.042969 276.847656 234.09375 276.894531 C 255.566406 277.890625 271.566406 275.824219 281.636719 274.121094 C 335.03125 265.09375 345.957031 231.957031 372.355469 151.902344 L 372.53125 151.371094 C 380.910156 125.96875 378.574219 103.308594 365.59375 84.015625"/></g><g id="change2_1"><path fill="#fffeba" d="M 358.5625 88.695312 C 342.527344 65.15625 308.484375 46.566406 257.378906 33.445312 C 217.882812 23.304688 169.109375 16.398438 108.273438 12.332031 C 103.753906 12.027344 99.355469 11.875 95.199219 11.875 C 65.296875 11.875 44.890625 19.441406 32.816406 35 C 8.96875 65.726562 23.871094 120.511719 37.023438 168.847656 L 39.203125 176.875 C 47.566406 207.761719 53.089844 228.167969 68.660156 241.644531 C 80.777344 252.136719 96.078125 259.242188 121.105469 260.171875 C 129.71875 260.492188 135.792969 266.136719 134.710938 277.738281 C 130.171875 326.398438 99.683594 346.445312 99.046875 346.992188 C 98.421875 347.53125 98.101562 348.105469 98.429688 348.636719 C 98.660156 349.023438 99.03125 349.214844 99.878906 349 C 100.882812 348.746094 175.714844 313.199219 216.167969 272.746094 C 225.019531 263.898438 227.285156 257.316406 243.625 260.039062 C 263.246094 263.308594 271.511719 261.597656 280.835938 260.039062 C 330.253906 251.78125 340.386719 223.964844 364.820312 150.769531 L 364.984375 150.28125 C 372.738281 127.054688 370.578125 106.332031 358.5625 88.695312"/></g></g></svg>