<?xml version="1.0" encoding="UTF-8" standalone="no"?><svg xmlns="http://www.w3.org/2000/svg" xmlns:xlink="http://www.w3.org/1999/xlink" contentScriptType="text/ecmascript" fill="#000000" width="163.5" zoomAndPan="magnify" contentStyleType="text/css" viewBox="-1.1 -0.4 163.5 80.2" height="80.2" preserveAspectRatio="xMidYMid meet" version="1"><defs><clipPath id="a"><path d="M 2 4 L 162.378906 4 L 162.378906 79.800781 L 2 79.800781 Z M 2 4"/></clipPath></defs><g><g id="change1_1" clip-path="url(#a)"><path fill="#99cccc" d="M 162.257812 30.925781 C 161.269531 13.25 145.996094 6.3125 130.058594 5.429688 C 110.59375 4.351562 90.996094 4.578125 71.515625 4.527344 C 60.667969 4.496094 49.820312 4.5 38.972656 4.699219 C 31.898438 4.832031 24.308594 4.449219 17.695312 7.363281 C 7.691406 11.769531 2.46875 21.527344 2.789062 32.101562 C 3.042969 40.394531 2.699219 48.640625 2.765625 56.921875 C 2.824219 63.796875 6.398438 70.996094 12.25 74.75 C 21.261719 80.535156 32.5625 79.800781 42.816406 79.734375 C 69.015625 79.5625 95.21875 79.480469 121.414062 78.914062 C 131.617188 78.691406 146.589844 80.308594 155.050781 73.6875 C 159.988281 69.828125 160.984375 63.582031 161.566406 57.707031 C 162.453125 48.792969 162.484375 39.875 162.257812 30.925781"/></g><g id="change2_1"><path fill="#543252" d="M 64.492188 3.140625 C 44.007812 3.179688 34.546875 3.242188 26.125 3.59375 C 12.570312 4.492188 3.070312 14.925781 2.566406 26.390625 C 1.3125 50.742188 0.777344 52.359375 1.324219 55.261719 C 5.148438 75.898438 28.929688 73.339844 57.761719 73.058594 C 126.988281 72.054688 69.492188 73.40625 121.664062 72.125 C 139.304688 71.65625 152.355469 72.425781 156.304688 60.75 C 158.363281 54.691406 158.652344 41.542969 158.617188 35.171875 C 158.398438 1.828125 154.320312 3.128906 64.492188 3.140625"/></g><g id="change3_1"><path fill="#7e5394" d="M 150.296875 8.292969 C 144.015625 3.195312 133.488281 1.226562 126.164062 0.9375 C 104.121094 -0.382812 38.554688 -0.0898438 24.421875 0.511719 C 9.777344 1.472656 1.113281 13.285156 0.894531 23.097656 C 0.8125 24.726562 -1.085938 41.714844 0.910156 51.777344 C 2.351562 61.246094 9.167969 66.726562 18.484375 68.753906 C 22.648438 69.75 26.949219 70.015625 31.195312 69.972656 C 52.894531 70.011719 90.328125 69.808594 126.550781 68.828125 C 138.769531 68.363281 150.828125 68.679688 154.589844 57.601562 C 156.617188 51.589844 156.925781 38.546875 156.894531 32.167969 C 156.835938 22.347656 157.464844 13.957031 150.296875 8.292969"/></g><g id="change2_2"><path fill="#543252" d="M 142.589844 12.035156 C 130.007812 3.605469 103.605469 4.59375 85.667969 4.757812 C 21.613281 5.59375 18.25 4.742188 11.898438 12.386719 C 4.421875 21.425781 4.828125 39.042969 6.445312 46.925781 L 6.4375 46.890625 C 7.765625 54.585938 9.238281 59.457031 15.707031 63.640625 C 19.296875 65.457031 22.261719 66.507812 29.984375 66.3125 C 137.640625 63.691406 147.199219 70.125 150.492188 50.375 C 152.480469 39.050781 152.960938 19.246094 142.589844 12.035156"/></g><g id="change4_1"><path fill="#ff8500" d="M 148.203125 21.292969 C 142.042969 7.273438 138.191406 9.652344 52.085938 10.007812 C 22.335938 10.324219 17.394531 10.839844 10.929688 20.984375 C 7.386719 27.328125 6.3125 35.527344 6.574219 42.757812 C 7.585938 56.960938 13.4375 63.710938 27.734375 63.875 C 72.769531 64.007812 58.234375 63.296875 83.417969 63.289062 C 139.996094 63.332031 145.019531 61.730469 147.949219 54.488281 C 150.789062 47.542969 151.730469 29.445312 148.203125 21.292969"/></g><g id="change5_1"><path fill="#ffb232" d="M 146.320312 17.648438 C 141.570312 6.949219 116.703125 5.847656 104.933594 6.015625 C 29.199219 6.527344 19.765625 4.605469 12.472656 12.914062 C 6.667969 19.441406 5.714844 30.699219 6.0625 39.386719 C 7.714844 62.746094 20.753906 59.953125 37.898438 60.023438 C 64.195312 60.179688 54.117188 59.390625 93.089844 59.421875 C 96.769531 59.417969 100.453125 59.382812 104.136719 59.332031 C 135.03125 58.683594 140.835938 56.902344 143.726562 54.261719 C 148.566406 50.570312 150.289062 27.042969 146.320312 17.648438"/></g><g id="change6_1"><path fill="#9d70af" d="M 2.253906 48.039062 C 0.925781 27.585938 2.503906 18.789062 4.535156 14.648438 C 7.339844 9.242188 11.429688 5.71875 17.867188 3.773438 C 28.964844 0.34375 55.316406 0.6875 65.941406 1.066406 C 77.542969 1.519531 76.480469 0.339844 84.554688 0.984375 C 92.226562 1.558594 95.757812 1.089844 103.199219 1.191406 C 113.199219 1.386719 111.230469 2.027344 128.066406 2.640625 C 142.074219 3.054688 153.707031 9.4375 154.78125 23.289062 C 155.171875 28.324219 154.148438 28.328125 153.273438 23.007812 C 152.484375 18.195312 150.570312 13.707031 147.5 11.296875 C 141.621094 6.347656 139.054688 7.367188 127.800781 4.863281 C 118.304688 2.851562 115.578125 3.574219 103.144531 3.054688 C 93.628906 2.636719 91.664062 2.292969 84.558594 2.839844 C 77.128906 3.421875 76.984375 2.195312 65.9375 2.5625 C 33.503906 3.417969 25.535156 2.128906 18.949219 4.585938 C 10.050781 7.867188 8.179688 12.390625 5.085938 18.292969 C 2.757812 24.402344 3.292969 42.273438 3.699219 48.816406 C 4.109375 55.363281 2.523438 52.167969 2.253906 48.039062"/></g><g id="change4_2"><path fill="#ff8500" d="M 33.160156 35.324219 C 27.964844 29.304688 24.214844 28.167969 25.222656 24.546875 C 26.617188 19.632812 30.304688 23.730469 33.195312 27.929688 C 33.671875 27.464844 38.351562 22.890625 38.828125 22.421875 C 38.683594 21.957031 38.433594 21.410156 38.257812 21.097656 C 27.910156 0.496094 7.285156 20.121094 19.820312 33.542969 C 22.816406 36.753906 31.613281 41.96875 28.078125 46.082031 C 25.503906 49.105469 18.390625 46.25 14.820312 44.566406 C 15.011719 47.980469 15.195312 51.011719 15.261719 54.355469 C 16.5 54.808594 17.730469 55.261719 19.003906 55.59375 C 25.390625 57.289062 37.257812 56.230469 36.6875 44.375 C 36.414062 39.457031 34.824219 37.285156 33.160156 35.324219"/></g><g id="change7_1"><path fill="#b40307" d="M 34.097656 38.019531 C 31.574219 32.796875 24.476562 28.742188 23.738281 25.617188 C 23.5 23.613281 24.75 21.140625 26.972656 21.015625 C 29.363281 20.941406 29.824219 22.566406 33.1875 26.351562 C 34.875 24.523438 36.09375 23.207031 37.46875 21.722656 C 37.320312 21.273438 37.078125 20.742188 36.894531 20.441406 C 29.023438 5.566406 7.941406 16.65625 16.484375 30.25 C 19.046875 34.5625 23.105469 35.953125 26.375 40.332031 C 27.914062 42.425781 28.191406 44.503906 26.074219 46.027344 C 23.082031 48.074219 16.445312 45.246094 13.429688 43.863281 C 14.164062 50.484375 14.101562 49.992188 14.261719 51.886719 C 14.90625 52.742188 14.621094 52.414062 15.863281 53.785156 C 17.136719 53.996094 18.039062 54.238281 19.21875 54.472656 C 32.949219 57.277344 38.285156 48.019531 34.097656 38.019531"/></g><g id="change8_1"><path fill="#fb060e" d="M 32.546875 36.054688 C 29.957031 30.847656 22.820312 26.738281 22.21875 23.695312 C 21.910156 22.6875 22.84375 19.210938 25.5 19.140625 C 26.960938 19.105469 28.308594 19.691406 31.644531 24.511719 C 31.789062 24.355469 35.769531 20.050781 35.957031 19.847656 C 35.8125 19.398438 35.570312 18.871094 35.386719 18.570312 C 26.59375 1.949219 2.449219 17.785156 17.976562 31.964844 C 20.398438 34.148438 27.222656 38.863281 25.921875 42.398438 C 24.160156 47.0625 16.328125 44.042969 11.8125 41.9375 C 13.003906 46.5625 13.5625 48.6875 14.261719 51.886719 C 16.445312 52.246094 26.417969 55.296875 31.460938 49.851562 C 34.660156 46.367188 34.289062 40.054688 32.546875 36.054688"/></g><g id="change9_1"><path fill="#ff5461" d="M 33.945312 18.652344 C 30.386719 10.421875 18.425781 10.28125 14.40625 18.199219 C 13.972656 19.050781 15.128906 19.707031 15.671875 18.9375 C 20.464844 12.164062 28.789062 12.179688 33.773438 18.753906 C 33.851562 18.859375 33.996094 18.773438 33.945312 18.652344"/></g><g id="change9_2"><path fill="#ff5461" d="M 24.367188 44.9375 C 20.785156 44.960938 20.480469 45.90625 13.910156 43.308594 C 13.019531 42.957031 12.585938 44.441406 13.511719 44.761719 C 16.402344 45.765625 21.835938 47.757812 24.453125 45.140625 C 24.527344 45.066406 24.472656 44.9375 24.367188 44.9375"/></g><g id="change4_3"><path fill="#ff8500" d="M 57.582031 44.160156 C 54.222656 50.238281 50.484375 50.472656 52.144531 33.515625 C 55.632812 33.410156 55.023438 33.425781 56.636719 33.382812 C 56.824219 30.757812 56.984375 28.78125 57.25 26.183594 C 53.847656 26.304688 54.765625 26.167969 53.167969 26.234375 C 54.019531 19.136719 54.023438 19.3125 54.441406 14.25 C 50.34375 14.421875 50.144531 14.425781 46.257812 14.484375 C 46.269531 16.105469 46.257812 14.195312 46.339844 26.542969 C 45.855469 26.546875 38.453125 26.578125 38.230469 26.578125 C 38.117188 31.554688 38.066406 32.914062 38.035156 33.914062 C 42.03125 33.917969 42.890625 33.929688 45.335938 33.875 C 44.375 36.621094 42.378906 43.753906 42.011719 45.472656 C 40.210938 53.765625 55.578125 62.6875 63.496094 48.183594 C 61.867188 47.125 60.636719 46.292969 57.582031 44.160156"/></g><g id="change10_1"><path fill="#b50307" d="M 44.972656 26.296875 L 44.902344 14.328125 L 51.675781 12.636719 L 52.4375 14.386719 L 51.292969 26.078125 L 54.722656 24.640625 L 55.664062 26.292969 L 54.824219 32.683594 L 50.28125 32.761719 C 50.28125 32.761719 48.769531 45.191406 51.101562 47.347656 C 53.433594 49.5 56.082031 44.125 56.082031 44.125 L 60.433594 46.761719 L 61.15625 48.289062 C 61.15625 48.289062 57.75 55.230469 51.804688 54.953125 C 44.515625 54.613281 42.152344 48.484375 41.964844 46.085938 C 41.777344 43.6875 44.480469 32.851562 44.480469 32.851562 L 38.773438 33.097656 L 37.542969 31.890625 L 39.007812 26.484375 L 44.972656 26.296875"/></g><g id="change7_2"><path fill="#b40307" d="M 44.738281 26.070312 C 44.648438 12.15625 44.679688 17.011719 44.65625 14.140625 C 47.988281 13.300781 48.117188 13.089844 51.566406 12.125 C 51.746094 12.511719 52.65625 13.929688 52.835938 14.316406 C 52.667969 16.300781 52.445312 18.742188 51.558594 26.101562 L 51.1875 25.828125 L 52.65625 25.25 C 52.90625 25.152344 54.363281 24.335938 54.589844 24.246094 C 54.621094 24.304688 55.828125 26.191406 55.863281 26.253906 C 55.5 29.085938 55.335938 30.535156 55.050781 32.933594 C 53.402344 32.980469 51.9375 33.023438 50.285156 33.074219 L 50.589844 32.796875 C 48.8125 49.777344 52.605469 50.046875 55.984375 43.773438 C 57.984375 44.988281 58.394531 45.25 60.332031 46.320312 C 60.628906 46.753906 61.386719 47.847656 61.609375 48.292969 C 61.042969 49.402344 60.433594 50.34375 59.46875 51.394531 C 51.332031 59.953125 41.457031 52.335938 41.722656 45.628906 C 41.773438 44.550781 42.476562 38.449219 44 32.730469 L 44.503906 33.347656 C 41.832031 33.398438 43.292969 33.371094 38.625 33.464844 C 38.457031 33.296875 37.296875 31.789062 37.152344 31.601562 C 38.195312 28.328125 37.851562 29.484375 38.765625 26.171875 C 40.800781 26.113281 42.484375 26.085938 44.738281 26.070312 L 45.207031 26.523438 C 43.160156 26.632812 41.082031 26.734375 39.019531 26.804688 L 39.316406 26.570312 C 38.488281 29.667969 38.816406 28.429688 37.878906 31.980469 L 37.789062 31.640625 C 38.335938 32.171875 38.566406 32.394531 39.027344 32.839844 L 38.757812 32.734375 C 43.203125 32.4375 41.945312 32.523438 45.113281 32.308594 C 43.304688 40.292969 42.339844 42.75 42.203125 45.640625 C 42.125 47.519531 43.792969 51.808594 47.882812 53.683594 C 53.671875 56.269531 57.777344 53.632812 60.792969 48.113281 L 60.789062 48.464844 C 60.421875 47.636719 60.507812 47.832031 60.113281 46.914062 L 60.25 47.066406 C 57.769531 45.425781 58.296875 45.753906 55.949219 44.339844 L 56.304688 44.238281 C 52.84375 50.773438 47.65625 50.734375 50.003906 32.449219 C 51.03125 32.445312 53.832031 32.429688 54.820312 32.425781 L 54.570312 32.652344 C 54.867188 30.613281 55.101562 29.035156 55.472656 26.265625 L 55.496094 26.386719 C 55.179688 25.839844 54.867188 25.292969 54.546875 24.738281 L 54.796875 24.824219 C 52.4375 25.859375 53.140625 25.546875 50.992188 26.503906 C 51.558594 19.023438 51.796875 16.601562 52.046875 14.347656 L 52.078125 14.542969 C 51.84375 13.964844 51.601562 13.375 51.359375 12.777344 L 51.761719 12.976562 C 48.449219 13.703125 47.921875 13.832031 44.960938 14.5625 L 45.144531 14.328125 C 45.152344 16.128906 45.140625 13.96875 45.207031 26.523438 L 44.738281 26.070312"/></g><g id="change8_2"><path fill="#fb060e" d="M 54.710938 41.875 C 51.546875 48.078125 47.542969 48.328125 49.257812 31.171875 C 49.765625 31.15625 53.230469 31.054688 53.738281 31.039062 C 54.082031 28.105469 54.183594 27.304688 54.589844 24.246094 C 51.375 24.042969 52.109375 24.089844 50.296875 23.960938 C 51.140625 16.65625 51.207031 16.269531 51.539062 12.144531 C 46.523438 12.242188 46.511719 12.238281 43.371094 12.222656 C 43.394531 14.753906 43.382812 12.984375 43.453125 24.207031 C 41.183594 24.226562 39.503906 24.253906 37.417969 24.316406 C 37.363281 25.773438 37.292969 27.621094 37.113281 31.585938 C 42.089844 31.480469 41.417969 31.496094 42.632812 31.472656 C 41.839844 36.328125 41.511719 42.625 41.484375 43.625 C 41.28125 54.429688 54.753906 57.496094 60.351562 46.3125 C 57.171875 43.828125 58.753906 45.207031 54.710938 41.875"/></g><g id="change9_3"><path fill="#ff5461" d="M 50.203125 13.058594 C 49.519531 12.433594 48.457031 12.59375 47.585938 12.582031 C 46.460938 12.558594 45.078125 12.355469 44.019531 12.757812 C 43.589844 12.921875 43.578125 13.480469 44.019531 13.644531 C 45.082031 14.03125 46.464844 13.804688 47.585938 13.769531 C 48.460938 13.738281 49.527344 13.886719 50.203125 13.25 C 50.253906 13.199219 50.253906 13.105469 50.203125 13.058594"/></g><g id="change9_4"><path fill="#ff5461" d="M 42.253906 24.808594 C 41.363281 24.421875 38.910156 24.363281 37.941406 24.492188 C 37.242188 24.585938 37.472656 25.621094 38.101562 25.664062 C 38.96875 25.722656 41.453125 25.46875 42.253906 25.054688 C 42.339844 25.007812 42.351562 24.847656 42.253906 24.808594"/></g><g id="change9_5"><path fill="#ff5461" d="M 51.351562 25.296875 C 52.304688 26.03125 54.054688 25.667969 53.449219 24.914062 C 53.195312 24.59375 52.875 24.628906 52.488281 24.597656 C 52.09375 24.566406 51.785156 24.542969 51.425781 24.726562 C 51.234375 24.824219 51.171875 25.15625 51.351562 25.296875"/></g><g id="change9_6"><path fill="#ff5461" d="M 54.578125 44.597656 C 54.289062 44.699219 54.292969 44.792969 54.113281 45.046875 C 53.664062 45.683594 53.210938 46.191406 52.445312 46.460938 C 51.773438 46.703125 51.082031 46.679688 50.433594 46.367188 C 49.855469 46.09375 49.550781 45.59375 49.035156 45.257812 C 48.640625 45.003906 48.242188 45.421875 48.3125 45.8125 C 48.601562 47.484375 51.132812 48.117188 52.527344 47.671875 C 53.359375 47.410156 55.566406 45.554688 54.585938 44.597656 C 54.585938 44.597656 54.582031 44.59375 54.578125 44.597656"/></g><g id="change4_4"><path fill="#ff8500" d="M 74.0625 50.09375 C 73.601562 49.957031 73.179688 49.726562 72.828125 49.390625 C 73.175781 49.707031 73.597656 49.941406 74.0625 50.09375 Z M 71.960938 46.660156 C 72.210938 43.746094 76.914062 41.851562 78.191406 42.335938 C 77.765625 45.136719 78.046875 46.371094 78.652344 49.222656 C 77.160156 50.566406 71.648438 51.191406 71.960938 46.660156 Z M 85.378906 45.339844 C 85.542969 41.777344 87.066406 38.9375 87.523438 37.898438 C 92.457031 26.875 93.457031 16.164062 81.683594 13.445312 C 66.273438 10.507812 61.53125 27.378906 61.320312 32.164062 C 66.625 32.28125 64.550781 32.25 70.726562 32.316406 C 71.160156 28.789062 72.839844 25.652344 74.101562 24.46875 C 74.707031 23.902344 75.464844 23.535156 76.28125 23.386719 C 77.675781 23.148438 79.878906 23.546875 80.992188 24.457031 C 83.671875 26.558594 80.972656 33.46875 79.421875 37.3125 C 75.734375 37.421875 69.164062 38.179688 66.707031 40.625 C 64.480469 42.617188 63.460938 46.398438 64.257812 49.476562 C 65.933594 55.484375 73.21875 57.707031 78.265625 52.320312 C 80.324219 54.457031 80.988281 55.472656 83.519531 57.429688 C 85.851562 54.945312 84.152344 56.753906 89.246094 51.355469 C 85.355469 48.605469 85.308594 47.386719 85.378906 45.339844"/></g><g id="change7_3"><path fill="#b40307" d="M 77.210938 48.410156 C 74.960938 50.28125 69.40625 49.828125 70.460938 44.976562 C 70.640625 44.597656 70.742188 44.144531 71.265625 43.636719 C 72.445312 42.21875 75.753906 40.851562 76.804688 41.363281 C 76.394531 43.621094 76.703125 45.671875 77.085938 47.597656 C 77.125 47.765625 77.242188 48.242188 77.210938 48.410156 L 77.128906 48.328125 C 76.523438 45.453125 76.234375 44.222656 76.675781 41.382812 L 76.699219 41.449219 C 75.445312 40.910156 70.691406 42.828125 70.4375 45.761719 C 70.136719 50.101562 75.503906 49.789062 77.128906 48.328125 L 77.210938 48.410156"/></g><g id="change7_4"><path fill="#b40307" d="M 70.371094 46.34375 C 70.039062 42.566406 75.96875 40.867188 76.734375 41.398438 C 76.074219 44.601562 77.265625 48.277344 77.171875 48.367188 C 76.195312 49.335938 70.757812 50.734375 70.371094 46.34375 Z M 68.496094 15 C 63.863281 18.609375 60.90625 25.640625 60.171875 29.414062 C 60.5625 29.785156 61.429688 31.066406 61.699219 31.316406 C 64.746094 31.371094 63.078125 31.351562 69.183594 31.40625 C 69.671875 28.253906 71.300781 23.304688 74.433594 22.558594 C 75.972656 22.175781 78.128906 22.6875 79.144531 23.324219 C 82.421875 25.386719 79.460938 32.527344 77.898438 36.402344 C 76.007812 36.378906 74.132812 36.484375 72.261719 36.769531 C 65.867188 37.816406 64.511719 40.042969 63.6875 42.21875 C 60.980469 50.578125 70.53125 59.546875 78.15625 50.96875 C 78.886719 51.996094 79.964844 53.71875 82.738281 55.832031 C 83.765625 54.742188 86.363281 51.996094 87.304688 50.996094 C 85.808594 48.695312 86.484375 49.527344 84.113281 47.109375 C 83.304688 44.625 84.347656 40.386719 85.78125 37.464844 C 97.167969 12.679688 77.066406 8.476562 68.496094 15"/></g><g id="change8_3"><path fill="#fb060e" d="M 75.921875 46.539062 C 74.921875 47.371094 70.550781 48.847656 69.234375 45.421875 C 67.757812 41.027344 74.359375 38.929688 75.511719 39.492188 C 75.332031 40.492188 75.082031 41.558594 75.644531 44.972656 C 75.6875 45.179688 75.953125 46.355469 75.921875 46.539062 L 75.839844 46.457031 C 75.246094 43.667969 74.941406 42.328125 75.382812 39.515625 L 75.410156 39.578125 C 74.25 39.082031 69.410156 40.847656 69.148438 43.890625 C 68.828125 48.457031 74.375 47.773438 75.839844 46.457031 L 75.921875 46.539062"/></g><g id="change8_4"><path fill="#fb060e" d="M 69.078125 44.472656 C 68.746094 40.695312 74.679688 38.996094 75.445312 39.527344 C 74.785156 42.734375 75.972656 46.40625 75.878906 46.5 C 74.902344 47.464844 69.464844 48.863281 69.078125 44.472656 Z M 79.785156 12.378906 C 67.425781 8.597656 60.539062 18.890625 60.113281 29.421875 C 64.144531 29.5 62.640625 29.480469 67.894531 29.53125 C 68.300781 26.417969 70.074219 21.289062 73.296875 20.640625 C 74.710938 20.332031 78.398438 20.660156 79.128906 23.113281 C 79.972656 25.914062 78.296875 30.351562 76.605469 34.539062 C 72.492188 34.550781 67.347656 35.433594 65.101562 38.90625 C 58.871094 49.125 69.34375 57.589844 76.871094 49.105469 C 78.003906 50.6875 78.828125 51.960938 81.449219 53.945312 C 82.386719 52.945312 82.683594 52.632812 86.082031 49.035156 C 85.003906 48.097656 83.53125 46.832031 82.847656 45.320312 C 82.160156 43.566406 82.652344 39.308594 84.339844 35.902344 C 91.742188 20.265625 87.027344 14.210938 79.785156 12.378906"/></g><g id="change9_7"><path fill="#ff5461" d="M 86.398438 19.316406 C 82.273438 9.125 66.003906 10.164062 63.582031 21.050781 C 63.464844 21.578125 64.226562 21.964844 64.496094 21.433594 C 69.347656 11.917969 79.648438 10.582031 86.277344 19.367188 C 86.316406 19.417969 86.429688 19.390625 86.398438 19.316406"/></g><g id="change9_8"><path fill="#ff5461" d="M 65.976562 39.753906 C 69.332031 36.925781 69.925781 36.398438 74.609375 36.289062 C 75.046875 36.28125 75.136719 35.65625 74.714844 35.53125 C 71.566406 34.601562 67.023438 36.546875 65.847656 39.679688 C 65.820312 39.757812 65.921875 39.796875 65.976562 39.753906"/></g><g id="change9_9"><path fill="#ff5461" d="M 70.625 48.523438 C 70.871094 49.269531 72.054688 49.121094 72.675781 49.082031 C 73.699219 49.019531 74.855469 48.851562 75.6875 48.214844 C 76.042969 47.949219 75.832031 47.460938 75.394531 47.519531 C 74.1875 47.683594 73.105469 48.09375 71.863281 48.101562 C 71.71875 48.101562 70.460938 48.027344 70.625 48.523438"/></g><g id="change9_10"><path fill="#ff5461" d="M 85.054688 48.878906 C 84.96875 48.460938 84.453125 48.195312 84.167969 47.921875 C 83.816406 47.578125 83.5625 47.066406 83.148438 46.808594 C 82.863281 46.632812 82.472656 46.859375 82.480469 47.191406 C 82.5 48.128906 84.269531 49.542969 84.972656 49.078125 C 85.042969 49.035156 85.070312 48.960938 85.054688 48.878906"/></g><g id="change4_5"><path fill="#ff8500" d="M 108.117188 31.703125 C 104.675781 32.210938 103.257812 31.605469 103.257812 31.605469 C 103.636719 30.71875 103.710938 24.417969 103.867188 24.058594 C 104.230469 23.765625 107.234375 24.382812 109.273438 25.847656 C 111.800781 27.523438 112.167969 31.035156 108.117188 31.703125 Z M 116.433594 33.019531 C 117.84375 30.253906 117.738281 26.300781 116.984375 23.273438 C 115.925781 19.5625 114.644531 18.535156 112.351562 17.816406 C 109.9375 17.101562 106.933594 16.886719 104.394531 17.035156 C 104.390625 16.089844 104.363281 16.382812 104.695312 14.53125 C 103.277344 14.566406 102.175781 14.546875 96.507812 15.660156 C 95.882812 31.886719 92.570312 38.730469 91.167969 55.210938 C 94.488281 55.132812 98.519531 55 101.070312 55.34375 C 102.109375 47.5 101.242188 46.65625 101.710938 41.117188 C 103.40625 45.410156 103.875 49.355469 106.421875 54.925781 C 109.65625 54.65625 114.070312 54.84375 116.679688 54.789062 C 115.195312 48.453125 112.589844 42.625 107.574219 36.921875 C 111.269531 37.21875 114.625 36.191406 116.433594 33.019531"/></g><g id="change7_5"><path fill="#b40307" d="M 101.605469 30.609375 C 102.121094 29.441406 101.789062 24.105469 102.25 23.105469 C 102.757812 22.703125 104.945312 23.402344 105.554688 23.632812 C 109.902344 25.328125 110.539062 28.550781 108.902344 29.929688 C 106.726562 31.78125 101.203125 31.128906 101.605469 30.609375 L 101.695312 30.703125 C 101.695312 30.703125 103.105469 31.3125 106.554688 30.800781 C 111.015625 30.066406 110.8125 25.46875 104.714844 23.484375 C 104.277344 23.339844 102.660156 22.875 102.304688 23.160156 C 102.175781 23.445312 102.019531 27.855469 102.003906 28.164062 C 101.941406 29.289062 101.957031 30.089844 101.695312 30.703125 L 101.605469 30.609375"/></g><g id="change7_6"><path fill="#b40307" d="M 101.648438 30.65625 C 102.066406 30.261719 101.984375 23.464844 102.269531 23.140625 C 102.796875 22.542969 109.871094 24.371094 109.660156 28.234375 C 109.449219 32.097656 101.230469 31.054688 101.648438 30.65625 Z M 114.871094 32.121094 C 117.472656 27.058594 116.929688 11.667969 102.691406 17.441406 C 102.726562 16.117188 102.824219 15.210938 103.027344 14.054688 C 102.984375 13.941406 101.90625 12.011719 101.839844 11.832031 C 98.863281 12.734375 100.992188 12.375 97.601562 13.402344 C 97.226562 13.515625 95.417969 14.074219 95.042969 14.191406 C 94.292969 23.152344 92.207031 36.867188 90.84375 52.453125 C 91.320312 52.953125 91.996094 53.925781 92.347656 54.296875 C 95.660156 54.175781 97.25 54.191406 99.578125 54.542969 C 100.566406 47.484375 99.964844 49.355469 100.933594 40.539062 C 106.335938 54.152344 105.550781 51.960938 107.09375 54.042969 C 109.785156 53.824219 112.410156 53.960938 115.121094 53.890625 C 113.703125 47.859375 111.457031 42.285156 106.015625 36.039062 C 109.628906 36.347656 113.0625 35.292969 114.871094 32.121094"/></g><g id="change8_5"><path fill="#fb060e" d="M 100.402344 28.835938 C 100.566406 27.664062 100.882812 21.585938 101.011719 21.289062 C 101.371094 21.003906 102.984375 21.46875 103.425781 21.613281 C 109.652344 23.640625 109.632812 28.214844 105.265625 28.933594 C 101.796875 29.445312 100.402344 28.835938 100.402344 28.835938 Z M 113.246094 18.476562 C 111.417969 15.226562 105.074219 15.3125 101.386719 15.765625 C 101.429688 13.863281 101.628906 12.839844 101.796875 11.835938 C 99.128906 11.644531 96.363281 11.917969 93.707031 12.257812 C 93.429688 24.621094 92.515625 29.425781 90.84375 52.453125 C 93.527344 52.328125 96.132812 52.273438 98.226562 52.59375 C 99.480469 43.8125 98.8125 46.195312 99.640625 38.523438 C 103.144531 46.675781 102.683594 45.625 105.757812 52.183594 C 108.3125 51.992188 108.300781 52.0625 113.785156 51.992188 C 113.066406 48.964844 111.628906 42.046875 104.707031 34.15625 C 115.847656 35.253906 116.160156 23.191406 113.246094 18.476562"/></g><g id="change9_11"><path fill="#ff5461" d="M 100.988281 12.578125 C 99.933594 12.074219 98.664062 12.308594 97.535156 12.4375 C 96.546875 12.550781 95.027344 12.605469 94.285156 13.34375 C 94.003906 13.628906 94.214844 14.125 94.609375 14.128906 C 95.640625 14.136719 96.8125 13.605469 97.851562 13.4375 C 98.902344 13.265625 100.027344 13.3125 100.988281 12.820312 C 101.078125 12.773438 101.082031 12.625 100.988281 12.578125"/></g><g id="change9_12"><path fill="#ff5461" d="M 112.949219 20.992188 C 113.480469 19.875 111.996094 18.359375 111.253906 17.851562 C 108.769531 16.15625 104.734375 15.835938 101.875 16.429688 C 101.40625 16.527344 101.589844 16.992188 102.066406 16.976562 C 104.898438 16.886719 106.742188 16.570312 109.441406 17.789062 C 111.851562 18.878906 112.5625 21.023438 112.847656 21.035156 C 112.882812 21.035156 112.929688 21.03125 112.949219 20.992188"/></g><g id="change9_13"><path fill="#ff5461" d="M 100.324219 29.953125 C 102.207031 30.933594 105.601562 30.71875 107.351562 29.53125 C 107.714844 29.285156 107.402344 28.785156 107.011719 28.953125 C 104.335938 30.113281 101.90625 29.421875 100.347656 29.769531 C 100.265625 29.789062 100.25 29.914062 100.324219 29.953125"/></g><g id="change9_14"><path fill="#ff5461" d="M 108.222656 42.121094 C 108.761719 43.6875 109.820312 45.035156 110.4375 46.585938 C 111.007812 48.027344 111.261719 49.582031 111.867188 51.003906 C 112.066406 51.472656 112.832031 51.222656 112.808594 50.75 C 112.703125 48.359375 110.1875 43.378906 108.292969 42.070312 C 108.257812 42.046875 108.210938 42.085938 108.222656 42.121094"/></g><g id="change4_6"><path fill="#ff8500" d="M 122.171875 38.414062 C 122.171875 38.414062 122.179688 38.410156 122.171875 38.414062 Z M 131.574219 38.261719 C 131.574219 38.261719 131.582031 38.261719 131.582031 38.261719 C 131.582031 38.261719 131.578125 38.261719 131.574219 38.261719 Z M 137.066406 42.382812 C 136.398438 44.214844 134.824219 47.652344 132.960938 47.769531 C 130.84375 48.191406 131.71875 40.714844 131.949219 38.613281 C 132.902344 38.523438 135.695312 38.4375 137.800781 38.355469 C 137.910156 37.34375 138.710938 29.847656 138.785156 29.164062 C 135.894531 29.160156 135.28125 29.148438 133.515625 29.128906 C 134.152344 25.339844 134.921875 21.53125 136.066406 15.195312 C 130.625 14.984375 132.980469 15.074219 125.691406 14.945312 C 125.628906 18.75 126.09375 27.4375 125.960938 31.460938 C 123.808594 31.46875 121.710938 31.269531 119.753906 31.320312 L 118.972656 38.851562 L 122.347656 38.757812 C 122.332031 45.949219 122.183594 53.730469 128.957031 55.089844 C 132.121094 55.773438 135.023438 55.03125 137.328125 53.226562 C 141.117188 50.347656 143.949219 44.300781 144.597656 42.351562 C 140.808594 42.101562 140.320312 42.339844 137.066406 42.382812"/></g><g id="change7_7"><path fill="#b40307" d="M 130.160156 37.757812 L 130.164062 37.757812 C 130.160156 37.757812 130.160156 37.757812 130.160156 37.757812 Z M 130.011719 37.363281 C 130.015625 37.363281 130.015625 37.363281 130.019531 37.363281 C 130.015625 37.363281 130.011719 37.363281 130.011719 37.363281 Z M 141.628906 40.125 C 138.96875 39.972656 138.238281 40.148438 135.511719 40.195312 C 133.585938 46.84375 130.066406 49.753906 130.015625 43.25 C 130.007812 41.25 130.234375 39.269531 130.402344 37.730469 C 131.640625 37.644531 134.707031 37.542969 136.265625 37.488281 C 136.417969 35.910156 136.996094 29.980469 137.078125 29.148438 C 137.039062 29.070312 135.839844 27.117188 135.789062 27.023438 C 133.542969 28.398438 133.203125 28.886719 132.046875 29.578125 C 132.597656 25.816406 133.515625 20.976562 134.464844 15.117188 C 134.296875 14.726562 133.410156 13.382812 133.207031 12.917969 C 128.28125 13.722656 126.398438 14.324219 124.878906 14.59375 C 124.816406 17.859375 124.496094 26.992188 124.378906 30.558594 C 122.488281 30.671875 121.363281 30.765625 120.199219 30.875 C 120.089844 31.175781 118.253906 35.765625 118.128906 36.070312 L 119.613281 37.953125 C 122.375 37.820312 121.230469 37.867188 123.78125 37.769531 C 121.757812 40.984375 121.382812 44.207031 122.496094 47.6875 C 123.4375 50.757812 125.273438 53.636719 128.410156 54.316406 C 134.972656 55.507812 139.175781 50.199219 142.0625 44.136719 C 142.382812 43.425781 142.582031 43.011719 142.824219 42.273438 C 142.507812 41.660156 142.46875 41.78125 141.628906 40.125"/></g><g id="change8_6"><path fill="#fb060e" d="M 122.867188 35.464844 L 122.871094 35.464844 L 122.871094 35.46875 C 122.867188 35.464844 122.867188 35.464844 122.867188 35.464844 Z M 134.222656 39.902344 C 133.554688 41.71875 132.257812 44.46875 130.382812 44.976562 C 127.902344 45.703125 128.792969 38.59375 129.09375 35.84375 C 130.300781 35.753906 133.40625 35.652344 134.957031 35.597656 C 135.285156 32.1875 135.6875 28.058594 135.789062 27.023438 C 134.382812 27.261719 132.515625 27.578125 130.722656 27.867188 C 131.550781 22.285156 131.972656 20.523438 133.207031 12.917969 C 128.035156 12.71875 130.816406 12.800781 123.589844 12.675781 C 123.523438 16.621094 123.238281 24.515625 123.097656 28.703125 C 121.109375 28.824219 119.984375 28.917969 118.863281 29.027344 C 118.296875 34.148438 118.421875 33.03125 118.074219 36.074219 C 121.253906 35.921875 120.214844 35.96875 122.785156 35.867188 C 121.804688 40.195312 120.914062 45.878906 123.496094 49.886719 C 125.917969 53.773438 131.847656 53.339844 135.269531 50.070312 C 138.167969 47.597656 140.832031 42.65625 141.625 40.164062 C 138.027344 39.933594 137.398438 39.871094 134.222656 39.902344"/></g><g id="change9_15"><path fill="#ff5461" d="M 132.660156 13.828125 C 131.375 13.425781 126.398438 13.035156 124.613281 13.222656 C 124.089844 13.277344 124.085938 13.851562 124.613281 13.90625 C 126.15625 14.058594 127.738281 14.011719 129.289062 14.109375 C 130.414062 14.175781 131.550781 14.328125 132.660156 14.128906 C 132.855469 14.089844 132.820312 13.878906 132.660156 13.828125"/></g><g id="change9_16"><path fill="#ff5461" d="M 121.578125 29.9375 C 121.90625 29.878906 121.898438 29.441406 121.664062 29.285156 C 121.042969 28.867188 119.757812 28.929688 119.257812 29.527344 C 119.128906 29.679688 119.148438 29.976562 119.386719 30.019531 C 119.484375 30.019531 121.386719 29.972656 121.578125 29.9375"/></g><g id="change9_17"><path fill="#ff5461" d="M 131.910156 28.808594 C 132.332031 29.035156 132.804688 28.914062 133.269531 28.875 C 133.746094 28.835938 134.210938 28.828125 134.640625 28.597656 C 134.921875 28.445312 134.839844 28.03125 134.554688 27.941406 C 134.066406 27.789062 133.566406 27.898438 133.070312 27.953125 C 132.621094 28.003906 132.199219 27.988281 131.839844 28.28125 C 131.675781 28.417969 131.734375 28.714844 131.910156 28.808594"/></g><g id="change9_18"><path fill="#ff5461" d="M 128.4375 45.21875 C 128.632812 46.59375 131.726562 46.910156 132.4375 45.15625 C 132.539062 44.910156 132.203125 44.683594 131.996094 44.816406 C 130.082031 46.042969 129.765625 45.238281 128.660156 44.996094 C 128.515625 44.964844 128.417969 45.082031 128.4375 45.21875"/></g><g id="change9_19"><path fill="#ff5461" d="M 140.898438 40.988281 C 140.214844 40.363281 139.195312 40.492188 138.320312 40.453125 C 137.164062 40.402344 135.964844 40.269531 134.824219 40.476562 C 134.355469 40.558594 134.386719 41.289062 134.824219 41.394531 C 135.949219 41.664062 137.167969 41.589844 138.320312 41.605469 C 139.199219 41.617188 140.175781 41.792969 140.898438 41.210938 C 140.964844 41.160156 140.957031 41.039062 140.898438 40.988281"/></g></g></svg>