<?xml version="1.0" encoding="UTF-8" standalone="no"?><svg xmlns="http://www.w3.org/2000/svg" xmlns:xlink="http://www.w3.org/1999/xlink" contentScriptType="text/ecmascript" fill="#000000" width="4001" zoomAndPan="magnify" contentStyleType="text/css" viewBox="-0.5 -0.5 4001.0 4001.0" height="4001" preserveAspectRatio="xMidYMid meet" version="1"><g><path fill="#231f20" d="M4000 4000L4000 3999.5 0.5 3999.5 0.5 0.5 3999.5 0.5 3999.5 4000 4000 4000 4000 3999.5 4000 4000 4000.5 4000 4000.5 -0.5 -0.5 -0.5 -0.5 4000.5 4000.5 4000.5 4000.5 4000z"/></g><g><path fill="#f9dd82" d="M3367.3,2760.7c-147.7,190.3,119.6,326.9,119.6,326.9H551.1c0,0-216.8-432.5,92.8-826.5 c243.1-309.4,527.8-311.7,685.6-509.3c43.1-54.1,76.8-122.7,97.5-216.2c96.5-435.6,411.5-695.5,794.3-630.7s296.7,454.9,626.3,683.9 c16.4,11.4,32.8,22.3,49,32.7c308.3,198.4,567.8,226.3,681.6,568.2C3698,2549.5,3461.9,2638.7,3367.3,2760.7"/></g><g><circle fill="#3a2409" r="29.1" cx="1774.6" transform="rotate(-63.435 1774.634 2876.595)" cy="2876.5"/></g><g><path fill="#3a2409" d="M2432.4,1618.3c0,16.1-13,29.1-29.1,29.1c-16.1,0-29.1-13-29.1-29.1c0-16.1,13-29.1,29.1-29.1l0,0 C2419.3,1589.2,2432.4,1602.2,2432.4,1618.3z"/></g><g><path fill="#3a2409" d="M3181.1,2245.4c0,16.1-13,29.1-29.1,29.1c-16.1,0-29.1-13-29.1-29.1c0-16.1,13-29.1,29.1-29.1 C3168.1,2216.3,3181.1,2229.4,3181.1,2245.4C3181.1,2245.4,3181.1,2245.4,3181.1,2245.4z"/></g><g><path fill="#3a2409" d="M1143.6,2392.7c0,16.1-13,29.1-29.1,29.1c-16.1,0-29.1-13-29.1-29.1c0-16.1,13-29.1,29.1-29.1 C1130.6,2363.6,1143.6,2376.6,1143.6,2392.7C1143.6,2392.7,1143.6,2392.7,1143.6,2392.7z"/></g><g><path fill="#3a2409" d="M2237,1470.6c0,9.6-7.8,17.4-17.4,17.4s-17.4-7.8-17.4-17.4c0-9.6,7.8-17.4,17.4-17.4l0,0 C2229.2,1453.2,2237,1461,2237,1470.6C2237,1470.6,2237,1470.6,2237,1470.6z"/></g><g><path fill="#3a2409" d="M3276.6,1966.9c0,9.6-7.8,17.4-17.4,17.4s-17.4-7.8-17.4-17.4c0-9.6,7.8-17.4,17.4-17.4l0,0 C3268.8,1949.5,3276.6,1957.3,3276.6,1966.9z"/></g><g><path fill="#3a2409" d="M719.9,2288.3c0,9.6-7.8,17.4-17.4,17.4c-9.6,0-17.4-7.8-17.4-17.4c0-9.6,7.8-17.4,17.4-17.4h0 C712.1,2270.9,719.9,2278.7,719.9,2288.3z"/></g><g><path fill="#3a2409" d="M3276.6,2503.2c0,9.6-7.8,17.4-17.4,17.4c-9.6,0-17.4-7.8-17.4-17.4c0-9.6,7.8-17.4,17.4-17.4c0,0,0,0,0,0 C3268.8,2485.8,3276.6,2493.6,3276.6,2503.2z"/></g><g><path fill="#3a2409" d="M1131.9,2737.1c0,9.6-7.8,17.4-17.4,17.4c-9.6,0-17.4-7.8-17.4-17.4c0-9.6,7.8-17.4,17.4-17.4c0,0,0,0,0,0 C1124.1,2719.7,1131.9,2727.5,1131.9,2737.1z"/></g><g><path fill="#2f8939" d="M421,2782.8c2.1,4.5,4,8.9,5.8,13.3c17.2,42.3,20.4,83.3,30.6,177.2c11.2,103.7,126.7,120.1,126.7,120.1h305.5 c0,0,10.5-64-53.9-80.9s-120.5-92.5-117.7-161.1S670.4,2724,608.7,2715c-39.9-5.8-64.5-47.2-95.1-71.9c-16.7-13.5-35.2-22-59-17.1 C387.4,2640.1,398.6,2735.2,421,2782.8z"/></g><g><path fill="#49ba59" d="M421,2782.8c2.1,4.5,4,8.9,5.8,13.3l2.1-0.5c10.3-2.4,16.8-12.6,14.4-23c-0.2-1-0.6-2.1-1-3 c-8.6-21.1-18.1-55-6.8-85.4c11.3-30.3,33.5-29.6,48.6-24.7c9.8,3.1,20.5-1.1,25.6-10l3.8-6.5c-16.7-13.5-35.2-22-59-17.1 C387.4,2640.1,398.6,2735.2,421,2782.8z"/></g><g><path fill="#3a2409" d="M582.5,3104.9c-1.3-0.2-31.4-4.6-63.2-22.6c-43-24.3-68.4-61.5-73.4-107.8c-0.8-7.7-1.6-15.1-2.4-22.2 c-9.3-86.5-13.1-122.3-33-164.6c-14.7-31.2-28.9-92.9-7.8-135.2c10.1-20.2,27.2-33.3,49.6-38c43.5-9.1,71.9,20.4,97,46.5 c19.3,20,37.5,39,61.2,42.4c33.1,4.8,63.7,22.6,86.2,50c22.7,27.7,34.5,62.7,33.1,98.5c-2.6,62.6,49.4,133.8,109,149.3 c38.5,10.1,53.6,35.3,59.4,54.7c3.8,12.8,4.8,26.2,3.1,39.4c-0.9,5.6-5.8,9.8-11.5,9.8H584.1C583.6,3105.1,583,3105,582.5,3104.9z M875.4,3061.9c-6.1-19.5-20.4-32.3-42.7-38.1c-70.3-18.3-129.4-99.1-126.4-172.9c2.5-60.3-42.1-116.1-99.3-124.4 c-31.5-4.6-53.4-27.3-74.6-49.3c-23.9-24.8-44.6-46.3-75.4-39.8c-15.6,3.3-26.5,11.6-33.5,25.6c-15.4,30.9-7.4,82.2,8,114.8 c21.6,45.9,25.5,82.8,35.1,172.1c0.8,7,1.5,14.4,2.4,22.1c4.2,38.8,24.7,69,61,89.6c17.1,9.6,35.7,16.4,55,20h293.5 C878.4,3075,877.4,3068.3,875.4,3061.9z"/></g><g><path fill="#3a2409" d="M456,2766.1c1.6-6.3,7.9-10.1,14.2-8.5c17.4,4.5,34.4,10.2,51,17c-22.2-28.8-40.5-49.2-40.9-49.7 c-4.3-4.8-4-12.2,0.8-16.5c4.8-4.3,12.2-4,16.5,0.8l0,0c3.8,4.3,94.4,105,118.7,181.5c0.8,2.5,1.6,4.9,2.4,7.3 c25.4-43.3,17-105.1,16.8-106.2c-0.9-6.4,3.5-12.3,9.9-13.2c6.4-0.9,12.3,3.5,13.2,9.9l0,0c0.5,3.6,11.9,85.6-30.3,136.5 c12.1,31.8,26,61,41.2,86.3c0.4,0.5,0.7,1,1,1.6c18,29.8,37.8,54.2,58.3,71.5c4.9,4.2,5.4,11.6,1.2,16.5c-4.2,4.8-11.4,5.4-16.3,1.4 c-21.1-17.9-41.5-42.5-60.1-72.3c-0.4,0-0.8,0-1.2,0c-73,0-135.2-53.8-137.9-56.2c-4.9-4.2-5.4-11.6-1.1-16.5 c4.2-4.9,11.6-5.4,16.5-1.1c0,0,0,0,0.1,0.1c0.6,0.5,50.6,43.9,109.6,49.8c-17.5-32-33-68.6-45.6-108.2 c-7.3-22.9-21.4-48.7-37.4-73.3c-13.6-18.8-63.1-37-92.1-44.2C458.2,2778.7,454.4,2772.4,456,2766.1z"/></g><g><path fill="#49ba59" d="M552.9,2866.1c10.3,22.3,25,44.3,44.7,65c1.8,1.9,3.7,3.9,5.6,5.8c8.6,8.6,16.4,17.9,23.4,27.9 c18.8,27.2,26.3,53.8,28.5,75.6c3.2,31.4-4.3,53-4.3,53H1083c0,0,16-58.4-34.4-78.1c-31.3-12.1-70-28.6-88.3-50.8 c-11.2-13.6-14.8-29.4-4.1-47.6c28-47.9,44.8-123,0-193s-103.7-61.7-136.5-126.7s-20.4-139.5-104.4-159.9c-4.2-1-8.4-1.8-12.7-2.3 c-75.8-9.3-115.7,70.8-107.6,129.7c8.6,62-8.5,61.2-42.2,132.8C529.1,2747.9,526.2,2808.3,552.9,2866.1z"/></g><g><path fill="#2f8939" d="M960.3,2964.6c-19.5,16.2-43.2,29.8-71.6,36.3c-11.4,2.6-19,13.4-17.5,24.9c2.2,17.5,5.1,43.2,6.1,67.6H1083 c0,0,16-58.4-34.4-78.1C1017.3,3003.2,978.6,2986.7,960.3,2964.6z"/></g><g><path fill="#2f8939" d="M626.5,2964.8c18.8,27.2,26.3,53.8,28.5,75.6c6.8,16.9,10.7,34.8,11.3,53H849l-3.2-46.7l-13.3-39.2 c0,0-57.5-29.3-109-21.2c-34.1,5.4-64.1-8.2-80.4-18C638.2,2965.3,632.3,2964,626.5,2964.8z"/></g><g><path fill="#7add85" d="M552.9,2866.1l5.8-2.3c16.2-6.5,24.7-24.4,19.4-41.1c-3.4-10.7-6-21.6-8-32.7c-7-39.2,1.4-68.6,33.6-119.1 s18.2-89.6,25.2-148.5c4.5-37.8,29.8-52.3,47.3-57.8c11.3-3.6,20.2-12.4,24.1-23.6l2.1-6.1c-75.8-9.3-115.7,70.8-107.6,129.7 c8.6,62-8.5,61.2-42.2,132.8C529.1,2747.9,526.2,2808.3,552.9,2866.1z"/></g><g><path fill="#3a2409" d="M641.3,3100.2c-2.2-3.1-2.8-7-1.5-10.6c0.3-0.7,24.8-74.8-44.9-144.4c-37.2-37.2-61.2-81.3-69.4-127.4 c-7.6-42.4-1.7-86.2,16.7-125.2c9.8-20.9,18.2-35.8,25-47.7c16.2-28.6,21.7-38.2,16.2-78.6c-5.9-42.9,10.8-90.5,41.5-118.2 c17.8-16.1,48.4-32.9,93.1-22c65.4,15.9,78.8,63.1,91.7,108.7c5.4,19.1,11,38.8,20.4,57.3c15.1,30,36.1,42.7,60.4,57.4 c24.4,14.8,52,31.5,75.6,68.3c21.8,34.1,31.6,71.7,29.1,111.8c-2.6,40.7-17.1,73.2-28.9,93.4c-4.9,8.5-6,15.8-3.5,23.3 c9.4,27,65.9,48.9,90.1,58.3c24.8,9.7,39.8,28.9,43.4,55.7c1.5,12.1,0.8,24.4-2,36.3c-1.4,5.1-6,8.6-11.3,8.6H650.8 C647,3105.1,643.4,3103.2,641.3,3100.2z M1073.1,3063.3c-2.5-18.4-11.9-30.5-28.8-37.1c-47.1-18.3-92.3-39.8-103.7-72.4 c-4.9-13.9-3.1-28.3,5.4-42.7c13-22.2,51.4-100.9,0.2-180.8c-20.7-32.3-44.7-46.8-68-60.9c-25-15.2-50.9-30.9-69.1-66.8 c-10.4-20.5-16.3-41.3-22-61.5c-12.6-44.5-22.6-79.7-74.8-92.4c-27.6-6.7-52.4-0.9-72,16.7c-24.9,22.5-38.9,62.6-34,97.7 c6.6,48.2-1.9,63.3-19,93.3c-6.6,11.6-14.8,26-24.2,46.1c-35.6,75.9-17.6,160.4,48.1,226.2c41.6,41.6,53.2,84.9,55.6,113.9 c1.1,13.1,0.6,26.2-1.5,39.2h407.8C1073.9,3075.6,1073.9,3069.4,1073.1,3063.3z"/></g><g><path fill="#3a2409" d="M602.8,2747.9c4.8-4.3,12.1-4,16.5,0.7c0.5,0.5,46.7,50.8,86.7,63.3c19.5,6.2,38.5,13.7,57,22.3 c-27.2-67.9-43.6-147.4-52.5-202.2c-45.2-26-65.3-94.8-66.2-97.9c-1.7-6.2,1.9-12.6,8.1-14.4c6.2-1.7,12.5,1.8,14.3,8 c0.2,0.5,12.9,44.2,38.7,70.8c-2.6-18.9-3.8-31-4-32.8c-0.6-6.4,4.1-12.1,10.5-12.8c6.4-0.6,12.1,4.1,12.8,10.5 c0.2,1.7,17.2,169.9,68.9,283c7.7,17,14.5,34.1,20.5,50.9c11.2-25.5,28.8-38.6,32.1-40.9c45.2-35.5,25.2-122.8,24.9-124.2 c-1.6-6.2,2.2-12.6,8.4-14.2c6.2-1.6,12.6,2.2,14.2,8.4c0,0.1,0.1,0.2,0.1,0.3c1,4.2,24,103.6-33.6,148.3c-0.3,0.2-0.5,0.4-0.8,0.6 c-0.3,0.2-30.6,20.4-31.3,66.3c22.5,80.6,26.6,146.8,26.8,150.6c0.4,6.4-4.5,11.9-11,12.3c0,0,0,0,0,0c-0.2,0-0.5,0-0.7,0 c-6.2,0-11.3-4.8-11.6-11c0-0.4-1.1-17.2-4.8-43.7c-11.5-9.5-55.9-42.5-125.8-51.5c-6.4-0.9-10.9-6.8-10-13.1 c0.9-6.3,6.6-10.8,13-10c54,6.9,94,26.9,117.5,42c-7.8-42.4-21.3-97.1-44.2-150.4c-10.5-5.5-43.6-22.3-78.3-33.1 c-46-14.4-94.9-67.5-96.9-69.8C597.7,2759.7,598.1,2752.3,602.8,2747.9C602.8,2747.9,602.8,2747.9,602.8,2747.9z"/></g><g><path fill="#49ba59" d="M3047.2,3093.4h432.2c0,0-7.5-21.7-4.3-53c2.3-21.8,9.7-48.4,28.5-75.6c6.9-10,14.8-19.3,23.4-27.9 c1.9-1.9,3.8-3.8,5.6-5.8c19.6-20.8,34.4-42.7,44.7-65c26.7-57.8,23.8-118.2,0.2-168.6c-33.6-71.6-50.7-70.8-42.2-132.8 c3.2-23.1-1.1-49.6-12-72.6c-16.9-35.5-49.6-62.7-95.6-57.1c-4.3,0.5-8.5,1.3-12.7,2.3c-53.6,13.1-68,48.1-79.8,88.6 c-6.8,23-12.7,47.8-24.6,71.3c-32.8,65.1-91.7,56.7-136.5,126.7s-28,145.1,0,193c10.7,18.2,7.1,34-4.1,47.6 c-18.3,22.2-57.1,38.6-88.3,50.8C3031.2,3034.9,3047.2,3093.4,3047.2,3093.4z"/></g><g><path fill="#7add85" d="M3335.2,2525.9L3335.2,2525.9c11,9,27.3,7.4,36.3-3.7c1-1.2,1.8-2.4,2.5-3.7c9.9-18,26.9-39,53.8-46.5 c28.4-7.9,48.8,6.1,61.3,19.8c8.6,9.5,23.2,10.3,32.7,1.7c0.5-0.4,0.9-0.9,1.3-1.3l0.2-0.2c-16.9-35.5-49.6-62.7-95.6-57.1 c-4.3,0.5-8.5,1.3-12.7,2.3C3361.4,2450.4,3347,2485.4,3335.2,2525.9z"/></g><g><path fill="#2f8939" d="M3170,2964.6c19.5,16.2,43.2,29.8,71.6,36.3c11.4,2.6,19,13.4,17.5,24.9c-2.2,17.5-5.1,43.2-6.1,67.6h-205.7 c0,0-16-58.4,34.4-78.1C3112.9,3003.2,3151.6,2986.7,3170,2964.6z"/></g><g><path fill="#2f8939" d="M3503.7,2964.8c-18.8,27.2-26.3,53.8-28.5,75.6c-6.8,16.9-10.7,34.8-11.3,53h-182.7l3.2-46.7l13.3-39.2 c0,0,57.5-29.3,109-21.2c34.1,5.4,64.1-8.2,80.4-18C3492,2965.3,3497.9,2964,3503.7,2964.8z"/></g><g><path fill="#3a2409" d="M3479.5,3105.1h-432.2c-5.3,0-9.9-3.5-11.3-8.6c-2.9-11.9-3.6-24.2-2-36.3c3.6-26.8,18.6-46.1,43.4-55.7 c24.1-9.4,80.7-31.4,90.1-58.3c2.6-7.4,1.5-14.8-3.5-23.3c-11.8-20.1-26.3-52.7-28.9-93.4c-2.5-40.1,7.3-77.7,29.1-111.8 c23.6-36.8,51.2-53.6,75.6-68.3c24.3-14.7,45.2-27.4,60.4-57.4c9.4-18.5,14.9-38.2,20.4-57.3c12.9-45.6,26.3-92.8,91.7-108.7 c44.7-10.9,75.3,6,93.1,22c30.8,27.8,47.4,75.3,41.5,118.2c-5.6,40.4-0.1,50,16.2,78.6c6.8,11.9,15.2,26.8,25,47.7 c18.4,39,24.3,82.7,16.7,125.2c-8.2,46.1-32.2,90.2-69.4,127.4c-69.7,69.7-45.1,143.7-44.9,144.4c2.1,6.1-1.1,12.7-7.2,14.9 C3482,3104.8,3480.8,3105.1,3479.5,3105.1L3479.5,3105.1z M3057,3081.7h407.8c-2.1-12.9-2.6-26.1-1.5-39.2 c2.4-29,14-72.3,55.6-113.9c65.7-65.7,83.7-150.3,48.1-226.2c-9.4-20.1-17.6-34.5-24.2-46.1c-17.1-30-25.6-45.1-19-93.3 c4.8-35.1-9.2-75.3-34-97.7c-19.5-17.6-44.4-23.4-72-16.7c-52.2,12.7-62.2,47.9-74.8,92.4c-5.7,20.1-11.6,40.9-22,61.5 c-18.1,35.9-44,51.6-69.1,66.8c-23.3,14.1-47.3,28.7-68,60.9c-51.1,79.9-12.7,158.6,0.2,180.8c8.4,14.4,10.2,28.8,5.4,42.7 c-11.4,32.6-56.5,54.1-103.7,72.4c-16.9,6.6-26.3,18.7-28.8,37.1C3056.3,3069.4,3056.3,3075.6,3057,3081.7z"/></g><g><path fill="#3a2409" d="M3236.5,2727c1.6-6.2,7.9-10,14.2-8.4c6.1,1.6,9.9,7.7,8.5,13.9c-0.3,1.4-20.3,88.7,24.9,124.2 c3.4,2.3,21,15.3,32.1,40.9c5.9-16.9,12.7-34,20.5-50.9c11.4-24.9,21.1-52.4,29.3-80.3c-35.1-33.2-46.1-98-46.6-101 c-1-6.4,3.4-12.3,9.7-13.3c6.3-1,12.2,3.3,13.3,9.5c2.5,15.3,12.4,53.4,31,78.1c23.5-89.8,32.1-174.9,32.2-176.1 c0.6-6.4,6.3-11.1,12.7-10.5s11.1,6.3,10.5,12.7c0,0,0,0.1,0,0.1c-0.2,1.8-1.4,13.9-4,32.8c25.8-26.6,38.6-70.3,38.7-70.8 c1.8-6.2,8.3-9.7,14.5-7.9c6.1,1.8,9.7,8.2,8,14.3c-0.9,3-21,71.9-66.2,97.9c-8.9,54.8-25.3,134.2-52.5,202.2 c18.5-8.6,37.5-16.1,57-22.3c39.9-12.5,86.2-62.8,86.7-63.3c4.4-4.7,11.8-5,16.5-0.6c4.7,4.3,5,11.6,0.7,16.4 c-2.1,2.3-50.9,55.4-96.9,69.8c-34.7,10.8-67.7,27.6-78.3,33.1c-22.9,53.3-36.4,108.1-44.2,150.4c23.5-15.1,63.4-35.1,117.5-42 c6.4-0.9,12.3,3.6,13.1,10c0.9,6.4-3.6,12.3-10,13.1c-0.1,0-0.1,0-0.2,0c-69.9,9-114.2,42-125.8,51.5c-3.8,26.5-4.8,43.2-4.9,43.7 c-0.4,6.2-5.5,11-11.6,11c-0.2,0-0.5,0-0.7,0c-6.4-0.4-11.4-5.9-11-12.3c0.2-3.8,4.3-69.9,26.8-150.6c-0.7-45.8-31-66.1-31.3-66.3 c-0.3-0.2-0.5-0.4-0.8-0.6C3212.4,2830.6,3235.4,2731.3,3236.5,2727z"/></g><g><path fill="#3a2409" d="M3654.8,3105.1H308.2c-9.7,0-17.5-7.8-17.5-17.5s7.8-17.5,17.5-17.5h3346.5c9.7,0,17.5,7.8,17.5,17.5 S3664.5,3105.1,3654.8,3105.1z"/></g><g><path fill="#3f3f3f" d="M1293.3,1842.5v163.6c0,7.1-5.8,12.9-12.9,12.9c0,0,0,0,0,0h-56.9c-7.1,0-12.9-5.8-12.9-12.9c0,0,0,0,0,0 v-163.6c0-8.8,2.9-17.3,8.3-24.2l4.5-5.8c3.2-4.1,5-9.1,5.2-14.3c0.3-9.4,1.1-19,2.2-28.9c0-0.2,0-0.5,0.1-0.7 c1.9-16.8,4.5-34.2,6.1-51.9h0.4c-1.5,0-2.7-1.2-2.7-2.7v-13.6c0-1.5,1.2-2.7,2.7-2.7h28.8c1.5,0,2.7,1.2,2.7,2.7v13.6 c0,1.5-1.2,2.7-2.7,2.7h0.4c1.7,17.6,4.3,35.1,6.1,51.9c0,0.2,0.1,0.5,0.1,0.7c1.1,9.9,2,19.6,2.2,28.9c0.2,5.2,2,10.2,5.2,14.3 l4.5,5.8C1290.4,1825.2,1293.3,1833.7,1293.3,1842.5"/></g><g><path fill="#efe3e1" d="M1273,1769.2h-42c0-0.2,0-0.5,0.1-0.7c1.9-16.8,4.5-34.2,6.1-51.9h0.4c-1.5,0-2.7-1.2-2.7-2.7v-13.6 c0-1.5,1.2-2.7,2.7-2.7h28.8c1.5,0,2.7,1.2,2.7,2.7v13.6c0,1.5-1.2,2.7-2.7,2.7h0.4c1.7,17.6,4.3,35.1,6.1,51.8 C1272.9,1768.7,1272.9,1768.9,1273,1769.2z"/></g><g><path fill="#3a2409" d="M1293.3,1842.5h-12.5v163.6l0,0.1l-0.2,0.2c-0.1,0-0.1,0.1-0.2,0.1h-56.9c-0.1,0-0.1,0-0.2,0l-0.2-0.2 c0-0.1-0.1-0.1-0.1-0.2v-163.6c0-6,2-11.8,5.7-16.5l0,0l4.5-5.8l0,0c4.9-6.2,7.6-13.8,7.8-21.7v0c0.3-9.1,1.1-18.6,2.2-28.6v0 c1.9-16.5,4.4-34,6.2-52.1l-12.4-1.2v12.5h0.4c6.9,0,12.5-5.6,12.5-12.5s-5.6-12.5-12.5-12.5v9.8l3.8-9c-1.2-0.5-2.5-0.8-3.8-0.8 v9.8l3.8-9l-3.8,9l8.1-5.5c-1.1-1.6-2.5-2.8-4.3-3.5l-3.8,9l8.1-5.5l-8.1,5.5h9.8c0-2-0.6-3.9-1.7-5.5l-8.1,5.5h9.8v-13.6h-9.8 l9,3.8c0.5-1.2,0.8-2.5,0.8-3.8h-9.8l9,3.8l-9-3.8l5.5,8.1c1.6-1.1,2.8-2.6,3.5-4.3l-9-3.8l5.5,8.1l-5.5-8.1v9.8 c2,0,3.9-0.6,5.5-1.7l-5.5-8.1v9.8h28.8v-9.8l-3.8,9c1.2,0.5,2.5,0.8,3.8,0.8v-9.8l-3.8,9l3.8-9l-8.1,5.5c1.1,1.6,2.5,2.8,4.3,3.5 l3.8-9l-8.1,5.5l8.1-5.5h-9.8c0,2,0.6,3.9,1.7,5.5l8.1-5.5h-9.8v13.6h9.8l-9-3.8c-0.5,1.2-0.8,2.5-0.8,3.8h9.8l-9-3.8l9,3.8 l-5.5-8.1c-1.6,1.1-2.8,2.5-3.5,4.3l9,3.8l-5.5-8.1l5.5,8.1v-9.8c-2,0-3.9,0.6-5.5,1.7l5.5,8.1v-9.8c-6.9,0-12.5,5.6-12.5,12.5 s5.6,12.5,12.5,12.5h0.4v-12.5l-12.4,1.2c1.7,18.1,4.3,35.6,6.2,52.1l0,0c1.1,10,2,19.6,2.2,28.6v0c0.2,7.9,3,15.5,7.8,21.7l0,0 l4.5,5.8v0c3.7,4.7,5.7,10.5,5.7,16.5h25c0-11.6-3.9-22.8-11-31.9l0,0l-4.5-5.8l0,0c-1.6-2-2.5-4.5-2.5-7v0 c-0.3-10.1-1.2-20.3-2.4-30.7l0,0c-1.9-17.1-4.5-34.4-6.1-51.6c-0.6-6.4-6-11.3-12.4-11.3h-0.4c-6.9,0-12.5,5.6-12.5,12.5 s5.6,12.5,12.5,12.5c8.4,0,15.2-6.8,15.2-15.2v-13.6c0-8.4-6.8-15.2-15.2-15.2h-28.8c-8.4,0-15.2,6.8-15.2,15.2c0,0,0,0,0,0v13.6 c0,8.4,6.8,15.2,15.2,15.2c0,0,0,0,0,0c6.9,0,12.5-5.6,12.5-12.5s-5.6-12.5-12.5-12.5h-0.4c-6.4,0-11.8,4.9-12.4,11.3 c-1.6,17.2-4.2,34.6-6.1,51.7v0c-1.2,10.3-2.1,20.5-2.4,30.6v0c-0.1,2.5-1,5-2.5,7l0,0l-4.5,5.8l0,0c-7.1,9.1-11,20.3-11,31.9v163.6 c0,14,11.4,25.4,25.4,25.4c0,0,0,0,0,0h56.9c14,0,25.4-11.4,25.4-25.4c0,0,0,0,0,0v-163.6H1293.3"/></g><g><path fill="#557751" d="M1428.3,1842.5v163.6c0,7.1-5.8,12.9-12.9,12.9c0,0,0,0,0,0h-56.9c-7.1,0-12.9-5.8-12.9-12.9c0,0,0,0,0,0 v-163.6c0-8.8,2.9-17.3,8.3-24.2l4.5-5.8c3.2-4.1,5-9.1,5.2-14.3c0.3-9.4,1.1-19,2.2-28.9c0-0.2,0-0.5,0.1-0.7 c1.9-16.8,4.5-34.2,6.1-51.9h0.4c-1.5,0-2.7-1.2-2.7-2.7v-13.6c0-1.5,1.2-2.7,2.7-2.7h28.8c1.5,0,2.7,1.2,2.7,2.7v13.6 c0,1.5-1.2,2.7-2.7,2.7h0.4c1.7,17.6,4.3,35.1,6.1,51.9c0,0.2,0.1,0.5,0.1,0.7c1.1,9.9,2,19.6,2.2,28.9c0.2,5.2,2,10.2,5.2,14.3 l4.5,5.8C1425.3,1825.2,1428.3,1833.7,1428.3,1842.5"/></g><g><path fill="#3a2409" d="M1428.3,1842.5h-12.5v163.6l0,0.1l-0.2,0.2c-0.1,0-0.1,0.1-0.2,0.1h-56.9c-0.1,0-0.1,0-0.2,0l-0.2-0.2 c0-0.1-0.1-0.1-0.1-0.2v-163.6c0-6,2-11.8,5.7-16.5l0,0l4.5-5.8l0,0c4.9-6.2,7.6-13.8,7.8-21.7v0c0.3-9.1,1.1-18.6,2.2-28.6v0 c1.9-16.5,4.4-34,6.2-52.1l-12.4-1.2v12.5h0.4c6.9,0,12.5-5.6,12.5-12.5s-5.6-12.5-12.5-12.5v9.8l3.8-9c-1.2-0.5-2.5-0.8-3.8-0.8 v9.8l3.8-9l-3.8,9l8.1-5.5c-1.1-1.6-2.6-2.8-4.3-3.5l-3.8,9l8.1-5.5l-8.1,5.5h9.8c0-2-0.6-3.9-1.7-5.5l-8.1,5.5h9.8v-13.6h-9.8 l9,3.8c0.5-1.2,0.8-2.5,0.8-3.8h-9.8l9,3.8l-9-3.8l5.5,8.1c1.6-1.1,2.8-2.6,3.5-4.3l-9-3.8l5.5,8.1l-5.5-8.1v9.8 c2,0,3.9-0.6,5.5-1.7l-5.5-8.1v9.8h28.8v-9.8l-3.8,9c1.2,0.5,2.5,0.8,3.8,0.8v-9.8l-3.8,9l3.8-9l-8.1,5.5c1.1,1.6,2.5,2.8,4.3,3.5 l3.8-9l-8.1,5.5l8.1-5.5h-9.8c0,2,0.6,3.9,1.7,5.5l8.1-5.5h-9.8v13.6h9.8l-9-3.8c-0.5,1.2-0.8,2.5-0.8,3.8h9.8l-9-3.8l9,3.8 l-5.5-8.1c-1.6,1.1-2.8,2.5-3.5,4.3l9,3.8l-5.5-8.1l5.5,8.1v-9.8c-2,0-3.9,0.6-5.5,1.7l5.5,8.1v-9.8c-6.9,0-12.5,5.6-12.5,12.5 s5.6,12.5,12.5,12.5h0.4v-12.5l-12.4,1.2c1.7,18.1,4.3,35.6,6.2,52.1l0,0c1.1,10,2,19.6,2.2,28.6v0c0.2,7.9,3,15.5,7.8,21.7l0,0 l4.5,5.8l0,0c3.7,4.7,5.7,10.5,5.7,16.5h25c0-11.6-3.9-22.8-11-31.9l0,0l-4.5-5.8l0,0c-1.6-2-2.5-4.5-2.5-7v0 c-0.3-10.1-1.2-20.3-2.4-30.7l0,0c-1.9-17.1-4.5-34.4-6.1-51.6c-0.6-6.4-6-11.3-12.4-11.3h-0.4c-6.9,0-12.5,5.6-12.5,12.5 s5.6,12.5,12.5,12.5c8.4,0,15.2-6.8,15.2-15.2v-13.6c0-8.4-6.8-15.2-15.2-15.2h-28.8c-8.4,0-15.2,6.8-15.2,15.2c0,0,0,0,0,0v13.6 c0,8.4,6.8,15.2,15.2,15.2c0,0,0,0,0,0c6.9,0,12.5-5.6,12.5-12.5s-5.6-12.5-12.5-12.5h-0.4c-6.4,0-11.8,4.9-12.4,11.3 c-1.6,17.2-4.2,34.6-6.1,51.7v0c-1.2,10.3-2.1,20.5-2.4,30.6v0c-0.1,2.5-1,5-2.5,7l0,0l-4.5,5.8l0,0c-7.1,9.1-11,20.3-11,31.9v163.6 c0,14,11.4,25.4,25.4,25.4c0,0,0,0,0,0h56.9c14,0,25.4-11.4,25.4-25.4c0,0,0,0,0,0v-163.6H1428.3"/></g><g><path fill="#557751" d="M2237,1842.5v163.6c0,7.1-5.8,12.9-12.9,12.9c0,0,0,0,0,0h-56.9c-7.1,0-12.9-5.8-12.9-12.9c0,0,0,0,0,0v-163.6 c0-8.8,2.9-17.3,8.3-24.2l4.5-5.8c3.2-4.1,5-9.1,5.2-14.3c0.3-9.4,1.1-19,2.2-28.9c0-0.2,0-0.5,0.1-0.7c1.9-16.8,4.5-34.2,6.1-51.9 h0.4c-1.5,0-2.7-1.2-2.7-2.7v-13.6c0-1.5,1.2-2.7,2.7-2.7h28.8c1.5,0,2.7,1.2,2.7,2.7v13.6c0,1.5-1.2,2.7-2.7,2.7h0.4 c1.7,17.6,4.3,35.1,6.1,51.9c0,0.2,0.1,0.5,0.1,0.7c1.1,9.9,2,19.6,2.2,28.9c0.2,5.2,2,10.2,5.2,14.3l4.5,5.8 C2234.1,1825.2,2237,1833.7,2237,1842.5"/></g><g><path fill="#3a2409" d="M2237,1842.5h-12.5v163.6l0,0.1l-0.2,0.2c-0.1,0-0.1,0.1-0.2,0.1h-56.9c-0.1,0-0.1,0-0.2,0l-0.2-0.2 c0-0.1-0.1-0.1-0.1-0.2v-163.6c0-6,2-11.8,5.7-16.5v0l4.5-5.8l0,0c4.9-6.2,7.6-13.8,7.8-21.7v0c0.3-9.1,1.1-18.6,2.2-28.6v0 c1.9-16.5,4.4-34,6.2-52.1l-12.4-1.2v12.5h0.4c6.9,0,12.5-5.6,12.5-12.5s-5.6-12.5-12.5-12.5v9.8l3.8-9c-1.2-0.5-2.5-0.8-3.8-0.8 v9.8l3.8-9l-3.8,9l8.1-5.5c-1.1-1.6-2.5-2.8-4.3-3.5l-3.8,9l8.1-5.5l-8.1,5.5h9.8c0-2-0.6-3.9-1.7-5.5l-8.1,5.5h9.8v-13.6h-9.8 l9,3.8c0.5-1.2,0.8-2.5,0.8-3.8h-9.8l9,3.8l-9-3.8l5.5,8.1c1.6-1.1,2.8-2.6,3.5-4.3l-9-3.8l5.5,8.1l-5.5-8.1v9.8 c2,0,3.9-0.6,5.5-1.7l-5.5-8.1v9.8h28.8v-9.8l-3.8,9c1.2,0.5,2.5,0.8,3.8,0.8v-9.8l-3.8,9l3.8-9l-8.1,5.5c1.1,1.6,2.5,2.8,4.3,3.5 l3.8-9l-8.1,5.5l8.1-5.5h-9.8c0,2,0.6,3.9,1.7,5.5l8.1-5.5h-9.8v13.6h9.8l-9-3.8c-0.5,1.2-0.8,2.5-0.8,3.8h9.8l-9-3.8l9,3.8 l-5.5-8.1c-1.6,1.1-2.8,2.5-3.5,4.3l9,3.8l-5.5-8.1l5.5,8.1v-9.8c-2,0-3.9,0.6-5.5,1.7l5.5,8.1v-9.8c-6.9,0-12.5,5.6-12.5,12.5 s5.6,12.5,12.5,12.5h0.4v-12.5l-12.4,1.2c1.7,18.1,4.3,35.6,6.2,52.1c1.1,10,2,19.6,2.2,28.6v0c0.2,7.9,3,15.5,7.8,21.7l0,0l4.5,5.8 l0,0c3.7,4.7,5.7,10.5,5.7,16.5h25c0-11.6-3.9-22.8-11-31.9l0,0l-4.5-5.8l0,0c-1.6-2-2.5-4.5-2.5-7v0c-0.3-10.1-1.2-20.3-2.4-30.7 c-1.9-17.1-4.5-34.4-6.1-51.6c-0.6-6.4-6-11.3-12.4-11.3h-0.4c-6.9,0-12.5,5.6-12.5,12.5s5.6,12.5,12.5,12.5l0,0 c8.4,0,15.2-6.8,15.2-15.2v-13.6c0-8.4-6.8-15.2-15.2-15.2h-28.8c-8.4,0-15.2,6.8-15.2,15.2c0,0,0,0,0,0v13.6 c0,8.4,6.8,15.2,15.2,15.2c0,0,0,0,0,0c6.9,0,12.5-5.6,12.5-12.5s-5.6-12.5-12.5-12.5h-0.4c-6.4,0-11.8,4.9-12.4,11.3 c-1.6,17.2-4.2,34.6-6.1,51.7v0c-1.2,10.3-2.1,20.5-2.4,30.6v0c-0.1,2.5-1,5-2.5,7l0,0l-4.5,5.8l0,0c-7.1,9.1-11,20.3-11,31.9v163.6 c0,14,11.4,25.4,25.4,25.4c0,0,0,0,0,0h56.9c14,0,25.4-11.4,25.4-25.4c0,0,0,0,0,0v-163.6H2237"/></g><g><path fill="#557751" d="M2342.8,1842.5v163.6c0,7.1-5.8,12.9-12.9,12.9c0,0,0,0,0,0H2273c-7.1,0-12.9-5.8-12.9-12.9c0,0,0,0,0,0v-163.6 c0-8.8,2.9-17.3,8.3-24.2l4.5-5.8c3.2-4.1,5-9.1,5.2-14.3c0.3-9.4,1.1-19,2.2-28.9c0-0.2,0-0.5,0.1-0.7c1.9-16.8,4.5-34.2,6.1-51.9 h0.4c-1.5,0-2.7-1.2-2.7-2.7v-13.6c0-1.5,1.2-2.7,2.7-2.7c0,0,0,0,0,0h28.8c1.5,0,2.7,1.2,2.7,2.7v13.6c0,1.5-1.2,2.7-2.7,2.7h0.4 c1.7,17.6,4.3,35.1,6.1,51.9c0,0.2,0.1,0.5,0.1,0.7c1.1,9.9,2,19.6,2.2,28.9c0.2,5.2,2,10.2,5.2,14.3l4.5,5.8 C2339.9,1825.2,2342.8,1833.7,2342.8,1842.5"/></g><g><path fill="#3a2409" d="M2342.8,1842.5h-12.5v163.6l0,0.1l-0.2,0.2c-0.1,0-0.1,0.1-0.2,0.1h-56.9c-0.1,0-0.1,0-0.2,0l-0.2-0.2 c0-0.1-0.1-0.1-0.1-0.2v-163.6c0-6,2-11.8,5.7-16.5l0,0l4.5-5.8l0,0c4.9-6.2,7.6-13.8,7.8-21.7v0c0.3-9.1,1.1-18.6,2.2-28.6v0 c1.9-16.5,4.4-34,6.2-52.1l-12.4-1.2v12.5h0.4c6.9,0,12.5-5.6,12.5-12.5s-5.6-12.5-12.5-12.5v9.8l3.8-9c-1.2-0.5-2.5-0.8-3.8-0.8 v9.8l3.8-9l-3.8,9l8.1-5.5c-1.1-1.6-2.5-2.8-4.3-3.5l-3.8,9l8.1-5.5l-8.1,5.5h9.8c0-2-0.6-3.9-1.7-5.5l-8.1,5.5h9.8v-13.6h-9.8 l9,3.8c0.5-1.2,0.8-2.5,0.8-3.8h-9.8l9,3.8l-9-3.8l5.5,8.1c1.6-1.1,2.8-2.6,3.5-4.3l-9-3.8l5.5,8.1l-5.5-8.1v9.8 c2,0,3.9-0.6,5.5-1.7l-5.5-8.1v9.8h28.8v-9.8l-3.8,9c1.2,0.5,2.5,0.8,3.8,0.8v-9.8l-3.8,9l3.8-9l-8.1,5.5c1.1,1.6,2.5,2.8,4.3,3.5 l3.8-9l-8.1,5.5l8.1-5.5h-9.8c0,2,0.6,3.9,1.7,5.5l8.1-5.5h-9.8v13.6h9.8l-9-3.8c-0.5,1.2-0.8,2.5-0.8,3.8h9.8l-9-3.8l9,3.8 l-5.5-8.1c-1.6,1.1-2.8,2.5-3.5,4.3l9,3.8l-5.5-8.1l5.5,8.1v-9.8c-2,0-3.9,0.6-5.5,1.7l5.5,8.1v-9.8c-6.9,0-12.5,5.6-12.5,12.5 s5.6,12.5,12.5,12.5h0.4v-12.5l-12.4,1.2c1.7,18.1,4.3,35.6,6.2,52.1c1.1,10,2,19.6,2.2,28.6v0c0.2,7.9,3,15.5,7.8,21.7l0,0l4.5,5.8 l0,0c3.7,4.7,5.7,10.5,5.7,16.5h25c0-11.6-3.9-22.8-11-31.9l0,0l-4.5-5.8l0,0c-1.6-2-2.5-4.5-2.5-7v0c-0.3-10.1-1.2-20.3-2.4-30.7 c-1.9-17.1-4.5-34.4-6.1-51.6c-0.6-6.4-6-11.3-12.4-11.3h-0.4c-6.9,0-12.5,5.6-12.5,12.5s5.6,12.5,12.5,12.5 c8.4,0,15.2-6.8,15.2-15.2v-13.6c0-8.4-6.8-15.2-15.2-15.2h-28.8c-8.4,0-15.2,6.8-15.2,15.2c0,0,0,0,0,0v13.6 c0,8.4,6.8,15.2,15.2,15.2c0,0,0,0,0,0c6.9,0,12.5-5.6,12.5-12.5s-5.6-12.5-12.5-12.5h-0.4c-6.4,0-11.8,4.9-12.4,11.3 c-1.6,17.2-4.2,34.6-6.1,51.7v0c-1.2,10.3-2.1,20.5-2.4,30.6v0c-0.1,2.5-1,5-2.5,7l0,0l-4.5,5.8l0,0c-7.1,9.1-11,20.3-11,31.9v163.6 c0,14,11.4,25.4,25.4,25.4c0,0,0,0,0,0h56.9c14,0,25.4-11.4,25.4-25.4c0,0,0,0,0,0v-163.6H2342.8"/></g><g><path fill="#557751" d="M2448.7,1842.5v163.6c0,7.1-5.8,12.9-12.9,12.9c0,0,0,0,0,0h-56.9c-7.1,0-12.9-5.8-12.9-12.9c0,0,0,0,0,0 v-163.6c0-8.8,2.9-17.3,8.3-24.2l4.5-5.8c3.2-4.1,5-9.1,5.2-14.3c0.3-9.4,1.1-19,2.2-28.9c0-0.2,0-0.5,0.1-0.7 c1.9-16.8,4.5-34.2,6.1-51.9h0.4c-1.5,0-2.7-1.2-2.7-2.7v-13.6c0-1.5,1.2-2.7,2.7-2.7l0,0h28.8c1.5,0,2.7,1.2,2.7,2.7v13.6 c0,1.5-1.2,2.7-2.7,2.7h0.4c1.7,17.6,4.3,35.1,6.1,51.9c0,0.2,0.1,0.5,0.1,0.7c1.1,9.9,2,19.6,2.2,28.9c0.2,5.2,2,10.2,5.2,14.3 l4.5,5.8C2445.7,1825.2,2448.7,1833.7,2448.7,1842.5"/></g><g><path fill="#3a2409" d="M2448.7,1842.5h-12.5v163.6l0,0.1l-0.2,0.2c-0.1,0-0.1,0.1-0.2,0.1h-56.9c-0.1,0-0.1,0-0.2,0l-0.2-0.2 c0-0.1-0.1-0.1-0.1-0.2v-163.6c0-6,2-11.8,5.7-16.5l0,0l4.5-5.8l0,0c4.9-6.2,7.6-13.8,7.8-21.7v0c0.3-9.1,1.1-18.6,2.2-28.6v0 c1.9-16.5,4.4-34,6.2-52.1l-12.4-1.2v12.5h0.4c6.9,0,12.5-5.6,12.5-12.5s-5.6-12.5-12.5-12.5v9.8l3.8-9c-1.2-0.5-2.5-0.8-3.8-0.8 v9.8l3.8-9l-3.8,9l8.1-5.5c-1.1-1.6-2.6-2.8-4.3-3.5l-3.8,9l8.1-5.5l-8.1,5.5h9.8c0-2-0.6-3.9-1.7-5.5l-8.1,5.5h9.8v-13.6h-9.8 l9,3.8c0.5-1.2,0.8-2.5,0.8-3.8h-9.8l9,3.8l-9-3.8l5.5,8.1c1.6-1.1,2.8-2.6,3.5-4.3l-9-3.8l5.5,8.1l-5.5-8.1v9.8 c2,0,3.9-0.6,5.5-1.7l-5.5-8.1v9.8h28.8v-9.8l-3.8,9c1.2,0.5,2.5,0.8,3.8,0.8v-9.8l-3.8,9l3.8-9l-8.1,5.5c1.1,1.6,2.5,2.8,4.3,3.5 l3.8-9l-8.1,5.5l8.1-5.5h-9.8c0,2,0.6,3.9,1.7,5.5l8.1-5.5h-9.8v13.6h9.8l-9-3.8c-0.5,1.2-0.8,2.5-0.8,3.8h9.8l-9-3.8l9,3.8 l-5.5-8.1c-1.6,1.1-2.8,2.5-3.5,4.3l9,3.8l-5.5-8.1l5.5,8.1v-9.8c-2,0-3.9,0.6-5.5,1.7l5.5,8.1v-9.8c-6.9,0-12.5,5.6-12.5,12.5 s5.6,12.5,12.5,12.5l0,0h0.4v-12.5l-12.4,1.2c1.7,18.1,4.3,35.6,6.2,52.1c1.1,10,2,19.6,2.2,28.6v0c0.2,7.9,3,15.5,7.8,21.7l0,0 l4.5,5.8l0,0c3.7,4.7,5.7,10.5,5.7,16.5h25c0-11.6-3.9-22.8-11-31.9l0,0l-4.5-5.8l0,0c-1.6-2-2.5-4.5-2.5-7v0 c-0.3-10.1-1.2-20.3-2.4-30.7c-1.9-17.1-4.5-34.4-6.1-51.6c-0.6-6.4-6-11.3-12.4-11.3h-0.4c-6.9,0-12.5,5.6-12.5,12.5 s5.6,12.5,12.5,12.5l0,0c8.4,0,15.2-6.8,15.2-15.2v-13.6c0-8.4-6.8-15.2-15.2-15.2h-28.8c-8.4,0-15.2,6.8-15.2,15.2c0,0,0,0,0,0 v13.6c0,8.4,6.8,15.2,15.2,15.2c0,0,0,0,0,0c6.9,0,12.5-5.6,12.5-12.5s-5.6-12.5-12.5-12.5h-0.4c-6.4,0-11.8,4.9-12.4,11.3 c-1.6,17.2-4.2,34.6-6.1,51.7v0c-1.2,10.3-2.1,20.5-2.4,30.6v0c-0.1,2.5-1,5-2.5,7l0,0l-4.5,5.8l0,0c-7.1,9.1-11,20.3-11,31.9v163.6 c0,14,11.4,25.4,25.4,25.4c0,0,0,0,0,0h56.9c14,0,25.4-11.4,25.4-25.4c0,0,0,0,0,0v-163.6H2448.7"/></g><g><path fill="#3b7cbc" d="M2040.7 1830.7L1804.2 1830.7 1567.6 1830.7 1494.1 2019 1804.2 2019 2114.3 2019 2040.7 1830.7"/></g><g><path fill="#3a2409" d="M2114.3,2031.5h-620.3c-6.9,0-12.5-5.6-12.5-12.5c0-1.6,0.3-3.1,0.9-4.5l73.6-188.3c1.9-4.8,6.5-8,11.6-8h473.1 c5.1,0,9.8,3.2,11.6,8l73.6,188.3c2.5,6.4-0.7,13.7-7.1,16.2C2117.4,2031.2,2115.9,2031.5,2114.3,2031.5 M1512.4,2006.5H2096 l-63.8-163.3h-456L1512.4,2006.5"/></g><g><path fill="#bc4b4b" d="M1522.6 1750.7H2085.8999999999996V1830.7H1522.6z"/></g><g><path fill="#3a2409" d="M2085.8,1843.2h-563.3c-6.9,0-12.5-5.6-12.5-12.5v-80c0-6.9,5.6-12.5,12.5-12.5h563.3c6.9,0,12.5,5.6,12.5,12.5 v80C2098.3,1837.6,2092.7,1843.2,2085.8,1843.2z M1535.1,1818.2h538.3v-55h-538.3L1535.1,1818.2z"/></g><g><path fill="#b5b5b5" d="M1557.8 1534.1H1788V1750.6H1557.8z"/></g><g><path fill="#ffffff" d="M1759.8 1534.1H1788V1750.6H1759.8z"/></g><g><path fill="#3a2409" d="M1788,1763.2h-230.2c-6.9,0-12.5-5.6-12.5-12.5v-216.5c0-6.9,5.6-12.5,12.5-12.5l0,0H1788 c6.9,0,12.5,5.6,12.5,12.5l0,0v216.5C1800.5,1757.6,1794.9,1763.2,1788,1763.2z M1570.3,1738.2h205.2v-191.5h-205.2V1738.2z"/></g><g><path fill="#b5b5b5" d="M1823.9 1534.1H2054.1V1750.6H1823.9z"/></g><g><path fill="#ffffff" d="M2025.9 1534.1H2054.1V1750.6H2025.9z"/></g><g><path fill="#3a2409" d="M2054.1,1763.2h-230.2c-6.9,0-12.5-5.6-12.5-12.5v-216.5c0-6.9,5.6-12.5,12.5-12.5l0,0h230.2 c6.9,0,12.5,5.6,12.5,12.5l0,0v216.5C2066.6,1757.6,2061,1763.2,2054.1,1763.2C2054.1,1763.2,2054.1,1763.2,2054.1,1763.2z M1836.4,1738.2h205.2v-191.5h-205.2L1836.4,1738.2z"/></g><g><path fill="#bc4b4b" d="M740.4,1934L740.4,1934c0,18.2,14.7,32.9,32.9,32.9l0,0c7.6,0,14.8-3.8,19.1-10.1c5.9-8.6,15.6-13.7,26-13.7 h46.1c7.5,0,14.7,3,20,8.3c9.9,9.9,23.3,15.5,37.3,15.5h1577v-65.8H773.3C755.2,1901.1,740.4,1915.9,740.4,1934 C740.4,1934,740.4,1934,740.4,1934z"/></g><g><path fill="#3a2409" d="M2499,1979.4H922c-17.3,0-34-6.8-46.2-19.1c-3-3-7-4.6-11.2-4.6h-46.1c-6.3,0-12.2,3.1-15.7,8.3 c-6.6,9.7-17.6,15.5-29.4,15.5c-25.1-0.4-45.1-21-44.7-46.1c0.4-24.5,20.2-44.4,44.7-44.7H2499c6.9,0,12.5,5.6,12.5,12.5v65.8 C2511.5,1973.8,2505.9,1979.4,2499,1979.4L2499,1979.4z M818.5,1930.7h46.1c10.8,0,21.2,4.3,28.9,12c7.5,7.6,17.8,11.8,28.5,11.8 h1564.5v-40.8H773.3c-11.3,0.2-20.2,9.6-19.9,20.8c0.2,10.9,9,19.7,19.9,19.9c3.5,0,6.8-1.7,8.8-4.6 C790.3,1937.8,803.9,1930.7,818.5,1930.7L818.5,1930.7z"/></g><g><path fill="#b2b2b2" d="M3212.5,1936.7l-10.4,6.2c-12.2,7.3-32.4,24-37.5,28.3c-14.2,22.9-41.6,60.4-83.7,90.8l-96.2-0.6l-24.1-0.1 l-100.2-0.6h0l-34.5-0.2l-66.1-0.4c-37-26.7-61.4-59.6-80.7-86.7c0,0-26.8-18.1-41.8-24.9l-11-5c-2.3-1-3.3-3.8-2.3-6.1 c1-2.1,3.4-3.2,5.6-2.5c7.2,2.4,22.1,7.6,30.5,12.3l65.8,0.4l55.1,0.3h0l241.9,1.5l35,0.2l113.8,0.7c2.4-2.2,5-4.3,7.7-6.2 c7.8-5.6,22.1-12.4,29-15.6c2.3-1.1,5-0.1,6.1,2.3C3215.3,1933,3214.5,1935.5,3212.5,1936.7"/></g><g><path fill="#848484" d="M2860.3,2060.7l-34.5-0.2c-36.1-25.2-74-61.6-100-112.8l55.1,0.3h0C2796.8,1979.6,2823.2,2023.7,2860.3,2060.7"/></g><g><path fill="#ffffff" d="M3057.8,1949.7c-13.1,29.2-36.3,71.7-73.1,111.8l-24.1-0.1c20.5-33.1,46.3-76.8,62.3-111.8L3057.8,1949.7"/></g><g><path fill="#3a2409" d="M3081.5,2073c-0.2,0-0.4,0-0.7,0l-321.2-1.9c-2.3,0-4.5-0.7-6.4-2.1c-36.8-26.6-61.7-59-82-87.6 c-5.9-3.9-26.6-17.5-38.5-22.9l-11-5c-7.8-3.6-11.3-12.8-7.7-20.7c3.3-7.3,11.5-10.9,19.1-8.3c7.5,2.5,20.7,7.1,29.8,11.7l504.7,3 c1.8-1.5,3.5-2.8,5.4-4.1c8.4-6,22.9-13,30.8-16.6c7.8-3.6,17.1-0.2,20.7,7.6c3.3,7.2,0.7,15.9-6.2,19.9l-10.4,6.2 c-8.7,5.2-23.4,16.7-34.8,26.2c-16.2,25.8-44.1,62.3-85.6,92.4C3085.6,2072.2,3083.6,2072.9,3081.5,2073 M2763.3,2049.1l314,1.9 c37.9-28.1,63.2-61.9,77.9-85.6c0.6-1,1.4-1.9,2.3-2.6c0.5-0.4,1.1-0.9,1.8-1.5l-483.2-2.9c5.1,3.3,8.6,5.7,9,5.9 c1.1,0.7,2,1.7,2.8,2.7C2707.9,1995.1,2730.1,2024.4,2763.3,2049.1 M3206.9,1927.3L3206.9,1927.3L3206.9,1927.3L3206.9,1927.3"/></g><g><path fill="#353535" d="M2141.2 2520.7L1462.5 2520.7 1462.5 2679.6 2141.2 2679.6 2141.2 2520.7"/></g><g><path fill="#3a2409" d="M2141.2,2692.1h-678.8c-6.9,0-12.5-5.6-12.5-12.5l0,0v-158.9c0-6.9,5.6-12.5,12.5-12.5l0,0h678.8 c6.9,0,12.5,5.6,12.5,12.5l0,0v158.9C2153.7,2686.5,2148.1,2692.1,2141.2,2692.1L2141.2,2692.1 M1475,2667.1h653.8v-133.9H1475 V2667.1"/></g><g><path fill="#494242" d="M1812.5,2296.7c-219.2-3.3-399.6,171.8-402.8,391s171.8,399.6,391,402.8s399.6-171.8,402.8-391 S2031.7,2300,1812.5,2296.7 M1801.9,3002.5c-170.6-2.6-306.8-142.9-304.3-313.5s142.9-306.8,313.5-304.3s306.8,142.9,304.3,313.5 S1972.5,3005.1,1801.9,3002.5"/></g><g><path fill="#d1d1d1" d="M1811.5,2359c-184.8-2.8-336.9,144.8-339.6,329.6s144.8,336.9,329.6,339.6s336.9-144.8,339.6-329.6 S1996.4,2361.8,1811.5,2359 M1801.9,3002.5c-170.6-2.6-306.8-142.9-304.3-313.5s142.9-306.8,313.5-304.3s306.8,142.9,304.3,313.5 S1972.5,3005.1,1801.9,3002.5"/></g><g><path fill="#ffffff" d="M1812.5,2296.7c-63.5-1-126.3,13.2-183.1,41.6c48.6-19.4,100.6-28.9,152.9-28.1 c219.2,3.3,394.2,183.6,391,402.8c-2.3,153.4-91.3,285.2-219.7,349.3c144.4-57.6,247.4-197.7,249.9-362.9 C2206.7,2480.4,2031.7,2300,1812.5,2296.7"/></g><g><path fill="#3a2409" d="M1800.4,3103c-225.4-3.7-405.2-189.4-401.5-414.8c3.7-225.4,189.4-405.2,414.8-401.5s405.2,189.4,401.5,414.8 c-2.7,163.8-103,310.2-254.9,371.7C1909.5,3093.8,1855.2,3104,1800.4,3103 M1812.3,2309.2c-212-3.2-387,166.7-390.2,378.7 s166.7,387,378.7,390.2s387-166.7,390.2-378.7S2024.3,2312.4,1812.3,2309.2 M1801.7,3015c-177.5-2.7-319.3-148.7-316.6-326.2 c2.7-177.5,148.7-319.3,326.2-316.6c177.5,2.7,319.3,148.7,316.6,326.2c-1.3,85.2-36.4,166.5-97.5,225.9 C1969.4,2983.9,1887,3016.5,1801.7,3015 M1811,2397.2c-163.4-2.4-298.4,128.5-300.8,292s128.5,298.4,292,300.8 s298.4-128.5,300.8-292S1974.4,2399.7,1811,2397.2"/></g><g><circle fill="#bababa" r="51.3" cx="1806.6" transform="rotate(-11.958 1806.172 2693.126)" cy="2693.6"/></g><g><path fill="#3a2409" d="M1805.6,2757.5c-35.2-0.5-63.4-29.5-62.9-64.8c0.5-35.2,29.5-63.4,64.8-62.9c35.2,0.5,63.4,29.5,62.9,64.8 c0,0,0,0,0,0C1869.8,2729.8,1840.8,2757.9,1805.6,2757.5z M1807.1,2654.8c-21.4-0.3-39.1,16.8-39.4,38.2s16.8,39.1,38.2,39.4 s39.1-16.8,39.4-38.2c0,0,0,0,0,0C1845.7,2672.8,1828.6,2655.2,1807.1,2654.8L1807.1,2654.8z"/></g><path fill="none" d="M1759.8 2388.2L1750.7 2997.5"/><g><path fill="#3a2409" d="M1750.5,3005c-4.1-0.1-7.4-3.5-7.4-7.6l9.1-609.3c0.1-4.1,3.5-7.4,7.6-7.4s7.4,3.5,7.4,7.6l-9.1,609.3 C1758.1,3001.8,1754.7,3005.1,1750.5,3005C1750.6,3005,1750.5,3005,1750.5,3005z"/></g><g><path fill="#bababa" d="M1862.4 2389.7L1853.3 2999.1 1862.4 2389.7"/></g><g><path fill="#3a2409" d="M1853.2,3006.6c-4.1-0.1-7.4-3.5-7.4-7.6l9.1-609.3c0.1-4.1,3.5-7.4,7.6-7.4s7.4,3.5,7.4,7.6l-9.1,609.3 C1860.7,3003.3,1857.3,3006.6,1853.2,3006.6"/></g><g><path fill="#bababa" d="M1989.4 2444.6L1552.1 2869 1989.4 2444.6"/></g><g><path fill="#3a2409" d="M1552,2876.5c-4.1-0.1-7.4-3.5-7.4-7.6c0-2,0.8-3.9,2.3-5.3l437.3-424.4c3-2.9,7.7-2.7,10.6,0.3 c2.8,3,2.8,7.6-0.2,10.5l-437.3,424.4C1555.9,2875.8,1554,2876.5,1552,2876.5"/></g><path fill="none" d="M2060.9 2518.3L1623.6 2942.7"/><g><path fill="#3a2409" d="M1623.5,2950.2c-4.1-0.1-7.4-3.5-7.4-7.6c0-2,0.8-3.9,2.3-5.3l437.3-424.4c3-2.9,7.7-2.8,10.6,0.2 s2.8,7.7-0.2,10.6l-437.3,424.4C1627.4,2949.4,1625.5,2950.2,1623.5,2950.2z"/></g><path fill="none" d="M2112 2646.9L1502.7 2637.8"/><g><path fill="#3a2409" d="M2111.9,2654.4l-609.3-9.1c-4.1-0.1-7.4-3.5-7.4-7.6c0.1-4.1,3.5-7.4,7.6-7.4l609.3,9.1 c4.1,0.1,7.4,3.5,7.4,7.6S2116,2654.4,2111.9,2654.4L2111.9,2654.4L2111.9,2654.4z"/></g><path fill="none" d="M2110.4 2749.5L1501.1 2740.4"/><g><path fill="#3a2409" d="M2110.3,2757l-609.3-9.1c-4.1-0.1-7.4-3.5-7.4-7.6c0.1-4.1,3.5-7.4,7.6-7.4l0,0l609.3,9.1 c4.1,0.1,7.4,3.5,7.4,7.6S2114.5,2757.1,2110.3,2757L2110.3,2757L2110.3,2757z"/></g><path fill="none" d="M2055.6 2876.5L1631.2 2439.2"/><g><path fill="#3a2409" d="M2055.5,2884c-2,0-3.9-0.8-5.3-2.3l-424.4-437.3c-2.9-2.9-2.9-7.7,0.1-10.6c2.9-2.9,7.7-2.9,10.6,0.1 c0,0,0.1,0.1,0.1,0.1l424.4,437.3c2.9,3,2.8,7.7-0.2,10.6C2059.4,2883.3,2057.5,2884.1,2055.5,2884L2055.5,2884z"/></g><path fill="none" d="M1981.9 2948L1557.5 2510.7"/><g><path fill="#3a2409" d="M1981.8,2955.5c-2,0-3.9-0.8-5.3-2.3L1552.1,2516c-2.9-3-2.8-7.7,0.2-10.6c3-2.9,7.7-2.8,10.6,0.2l424.4,437.3 c2.9,3,2.8,7.7-0.2,10.6C1985.7,2954.8,1983.8,2955.6,1981.8,2955.5L1981.8,2955.5z"/></g><g><path fill="#b5b5b5" d="M3236.2 2019L3236.2 2485.8 2564.7 2485.8 2564.7 2019 3236.2 2019"/></g><g><path fill="#d3d3d3" d="M3084.4 2031.5L2863.9 2031.5 2674.1 2473.3 2894.6 2473.3 3084.4 2031.5"/></g><g><path fill="#ffffff" d="M3193.9 2019H3236.2000000000003V2485.8H3193.9z"/></g><g><path fill="#3a2409" d="M3236.2,2498.3h-671.5c-6.9,0-12.5-5.6-12.5-12.5V2019c0-6.9,5.6-12.5,12.5-12.5h671.5 c6.9,0,12.5,5.6,12.5,12.5v466.8C3248.7,2492.7,3243.1,2498.3,3236.2,2498.3 M2577.2,2473.3h646.5v-441.8h-646.5L2577.2,2473.3"/></g><g><path fill="#bc4b4b" d="M1048.3 1163.7L1048.3 2019 1114.1 2019 1114.1 1163.7 1048.3 1163.7"/></g><g><path fill="#3a2409" d="M1114.1,2031.5h-65.8c-6.9,0-12.5-5.6-12.5-12.5v-855.3c0-6.9,5.6-12.5,12.5-12.5l0,0h65.8 c6.9,0,12.5,5.6,12.5,12.5l0,0V2019C1126.6,2025.9,1121,2031.5,1114.1,2031.5 M1060.8,2006.5h40.8v-830.3h-40.8V2006.5"/></g><g><path fill="#bc4b4b" d="M2499 1163.7L2499 2019 2564.7 2019 2564.7 1163.7 2499 1163.7"/></g><g><path fill="#3a2409" d="M2564.7,2031.5H2499c-6.9,0-12.5-5.6-12.5-12.5v-855.3c0-6.9,5.6-12.5,12.5-12.5l0,0h65.8 c6.9,0,12.5,5.6,12.5,12.5l0,0V2019C2577.2,2025.9,2571.6,2031.5,2564.7,2031.5 M2511.5,2006.5h40.8v-830.3h-40.8V2006.5"/></g><g><path fill="#bc4b4b" d="M2499 2679.6H2564.8V3028.2999999999997H2499z"/></g><g><path fill="#3a2409" d="M2564.7,3040.8H2499c-6.9,0-12.5-5.6-12.5-12.5l0,0v-348.7c0-6.9,5.6-12.5,12.5-12.5h65.8 c6.9,0,12.5,5.6,12.5,12.5v348.7C2577.2,3035.2,2571.6,3040.8,2564.7,3040.8L2564.7,3040.8z M2511.5,3015.8h40.8v-323.7h-40.8 V3015.8z"/></g><g><path fill="#e2e2e2" d="M2499 1163.7L2499 1415.2 1114.1 1415.2 1114.1 1163.7 2499 1163.7"/></g><g><path fill="#bc4b4b" d="M1218.6,1245.9c0-6-1-10-2.9-11.9c-2-1.9-6.3-3.1-13-3.7v-9.4h65v9.4c-6.7,0.6-11.1,1.8-13,3.7 s-2.9,5.8-2.9,11.9v41.1l39.2-37.2c2.2-2,4.2-4.3,5.8-6.8c1.2-1.8,1.9-3.8,2-6c0-2.2-1.3-3.8-3.8-5c-2.5-1.1-6.3-1.7-11.3-1.7h-1.1 v-9.4h60.6v9.4h-1.1c-4.7,0.1-9.3,1.1-13.6,3.1c-4.8,2.2-9.3,5.2-13.2,8.8l-28.7,26.5l46.7,63.3c2.7,3.6,5.8,6.9,9.3,9.7 c2.9,2.3,6.2,4.1,9.7,5.2v9.4h-66.9v-9.4c6-0.2,9.7-0.7,11.3-1.4c1.4-0.6,2.4-2,2.3-3.5c-0.1-2.2-0.9-4.2-2.3-5.9l-0.1-0.2 l-34.2-46.8l-10.6,9.6v32.6c0,6,1,10,2.9,11.9c2,1.9,6.3,3.1,13,3.7v9.4h-65v-9.4c6.7-0.6,11.1-1.8,13-3.7c2-1.9,3-5.8,2.9-11.9 L1218.6,1245.9"/></g><g><path fill="#bc4b4b" d="M1361.9,1356.4v-9.4c6.7-0.6,11.1-1.8,13-3.7c2-1.9,3-5.8,2.9-11.9v-85.4c0-6-1-10-2.9-11.9s-6.3-3.1-13-3.7 v-9.4h126.9l2.8,45.6h-10.4c-2.4-12.8-7.3-22-14.8-27.6c-7.5-5.7-18.5-8.5-33.1-8.5c-9.1,0-15,0.9-17.7,2.8 c-2.7,1.8-4.1,6.1-4.1,12.8v35.4h8.2c7.9,0,13.8-2.1,17.7-6.4c4-4.3,6.4-11.1,7.2-20.5h9.3v63.7h-9.3c-0.8-9.4-3.3-16.2-7.2-20.5 s-9.9-6.4-17.7-6.4h-8.2v40.2c0,6.8,1.4,11.1,4.1,12.9c2.8,1.8,8.9,2.7,18.4,2.7c15.7,0,27.4-3.1,35-9.3 c7.6-6.2,12.3-16.5,14.1-30.7h10.4l-3,49.5L1361.9,1356.4"/></g><g><path fill="#bc4b4b" d="M1562.1,1230.3h-2.6c-9.9,0-17.4,3.3-22.6,10s-8.5,17.3-10,31.8h-9.4l1.8-51.3h119.2l2.1,51.3h-9.7 c-1.4-14.5-4.7-25.1-9.9-31.8c-5.2-6.7-12.7-10-22.6-10h-2.6v101c0,5.9,1.1,9.8,3.3,11.8s7.4,3.2,15.5,3.9v9.4h-71.2v-9.4 c8.1-0.7,13.3-2,15.5-3.9c2.2-1.9,3.3-5.8,3.3-11.8L1562.1,1230.3"/></g><g><path fill="#bc4b4b" d="M1727.5,1359.6c-8.3,0.1-16.5-1.4-24.2-4.4c-7.5-3-14.3-7.5-20.1-13.1c-6.8-6.6-12.1-14.6-15.5-23.5 c-3.6-9.6-5.4-19.8-5.3-30c-0.1-10.2,1.7-20.3,5.3-29.9c3.5-8.9,8.8-16.9,15.7-23.6c5.8-5.7,12.6-10.1,20.1-13.1 c15.5-5.9,32.5-5.9,48,0c7.5,3,14.3,7.4,20,13.1c6.9,6.6,12.3,14.7,15.7,23.6c7.1,19.3,7.1,40.5,0,59.8c-3.4,8.9-8.8,17-15.6,23.6 c-5.8,5.7-12.6,10.1-20.1,13.1C1743.9,1358.2,1735.7,1359.7,1727.5,1359.6 M1727.5,1349.9c10,0,17.1-4.4,21.2-13.2 c4.1-8.8,6.1-24.9,6.1-48.1c0-23.1-2.1-39.1-6.2-47.9s-11.2-13.2-21.1-13.2c-10,0-17.1,4.4-21.2,13.2c-4.1,8.8-6.1,24.8-6.1,47.9 c0,23.3,2,39.3,6.1,48.1S1717.5,1349.9,1727.5,1349.9"/></g><g><path fill="#bc4b4b" d="M1832.6,1245.9c0-6-1-10-2.9-11.9c-2-1.9-6.3-3.1-13-3.7v-9.4h73.2c19.5,0,34.1,3,43.7,9 c9.6,6,14.3,15.1,14.3,27.4c0,13.4-4.9,23.1-14.7,29.3c-9.8,6.1-25.5,9.2-47.1,9.2h-19.9v35.6c0,6,1.1,10,3.4,11.9 c2.2,1.9,7.4,3.1,15.6,3.7v9.4h-68.5v-9.4c6.7-0.6,11.1-1.8,13-3.7c2-1.9,3-5.8,2.9-11.9L1832.6,1245.9 M1866.2,1247.3v38.8h10.8 c12.2,0,21.1-2.2,26.7-6.7c5.6-4.4,8.4-11.5,8.4-21.2c0-9.7-2.3-16.9-6.8-21.6c-4.5-4.7-11.4-7.1-20.6-7.1c-7.5,0-12.5,1.1-14.9,3.4 C1867.4,1235.3,1866.2,1240,1866.2,1247.3"/></g><g><path fill="#bc4b4b" d="M2014.7,1331.3c0,6,1.1,10,3.2,11.8c2.1,1.8,7.1,3.1,14.9,3.8v9.4h-67.6v-9.4c6.7-0.6,11.1-1.8,13-3.7 s3-5.8,2.9-11.9v-85.4c0-6-1-10-2.9-11.9s-6.3-3.1-13-3.7v-9.4h68.2c20.4,0,35.5,2.7,45.2,8.1s14.7,13.8,14.7,25.2 c0.2,8.4-3.8,16.3-10.8,21c-7.2,5.2-18,8.6-32.4,10.2c9.4,2.1,16.9,5.2,22.2,9.3c5.2,3.8,8.9,9.3,10.5,15.5c1.6,6.2,2.6,12.5,3,18.9 c0.3,3,0.5,5.2,0.7,6.4c0.5,3.3,1.3,5.6,2.1,6.7c1,1.2,2.4,1.8,3.9,1.7c2.8,0,4.9-1.5,6.4-4.5s2.2-7.4,2.2-13.2l8.7,0.1 c0.1,0.5,0.1,1,0.1,1.6s0,1.5,0,2.7c0,9.3-2.4,16.5-7.2,21.5c-4.8,5-11.6,7.5-20.5,7.5c-4.6,0.1-9.2-0.7-13.6-2.3 c-3.6-1.4-6.8-3.7-9.3-6.8c-3.4-4.4-5.6-12.9-6.4-25.5c-0.1-1-0.1-1.8-0.2-2.5c-0.8-13.5-3.6-22.4-8.3-26.8 c-2.5-2.2-5.5-3.7-8.7-4.6c-4.3-1.1-8.7-1.6-13.1-1.5h-8.2V1331.3 M2014.7,1245.6v34.9h10.3c12,0,20.7-1.9,25.9-5.8 c5.2-3.8,7.8-10.2,7.8-18.9c0-8.5-2.2-15-6.6-19.5c-4.4-4.5-10.8-6.7-19.2-6.7c-7.4,0-12.3,1-14.6,3.1S2014.7,1239,2014.7,1245.6"/></g><g><path fill="#bc4b4b" d="M2114.1,1356.4v-9.4c3.7-0.7,7.1-2.4,9.8-5.1c2.5-2.5,5-7,7.5-13.3l41.2-107.6h21.8l40.1,109.8 c2.1,5.6,4.3,9.6,6.9,11.8c2.5,2.2,6.1,3.7,10.7,4.4v9.4h-65.8v-9.4c5.9-0.4,9.9-1.2,12.2-2.4c2.2-1.1,3.5-3.4,3.4-5.9 c-0.2-2-0.6-3.9-1.3-5.8c-0.1-0.2-0.1-0.4-0.2-0.6l-6.7-21.4h-44.3l-5.5,16.9l-0.2,0.6c-1.5,4.4-2.3,7.6-2.3,9.4 c-0.1,2.4,1,4.8,3.1,6.1c2.1,1.3,5.8,2.4,11.3,3.1v9.4L2114.1,1356.4 M2152.8,1301.4h36.9l-17.3-53.2L2152.8,1301.4"/></g><g><path fill="#bc4b4b" d="M2281.3,1245.9c0-6-1-10-2.9-11.9s-6.3-3.1-13-3.7v-9.4h65v9.4c-6.7,0.6-11.1,1.8-13,3.7s-3,5.8-2.9,11.9v41.1 l39.2-37.2c2.2-2,4.2-4.3,5.8-6.8c1.2-1.8,1.9-3.8,2-6c0-2.2-1.3-3.8-3.8-5c-2.5-1.1-6.3-1.7-11.3-1.7h-1.1v-9.4h60.6v9.4h-1.1 c-4.7,0.1-9.3,1.1-13.6,3.1c-4.8,2.2-9.3,5.2-13.2,8.8l-28.7,26.5l46.7,63.3c2.7,3.6,5.8,6.9,9.3,9.7c2.9,2.3,6.2,4.1,9.7,5.2v9.4 H2348v-9.4c6-0.2,9.7-0.7,11.3-1.4c1.4-0.6,2.4-2,2.3-3.5c-0.1-2.2-0.9-4.2-2.3-5.9l-0.1-0.2l-34.2-46.8l-10.6,9.6v32.6 c0,6,1,10,2.9,11.9c2,1.9,6.3,3.1,13,3.7v9.4h-65v-9.4c6.7-0.6,11.1-1.8,13-3.7c2-1.9,2.9-5.8,2.9-11.9L2281.3,1245.9"/></g><g><path fill="#d5d5d5" d="M2499,1163.7H1114.1v84h104.5v-1.7c0-6-1-10-2.9-11.9c-2-1.9-6.3-3.1-13-3.7v-9.4h65v9.4 c-6.7,0.6-11.1,1.8-13,3.7c-2,1.9-2.9,5.8-2.9,11.9v1.7h41.4c1.3-1.4,2.5-3,3.6-4.6c1.2-1.8,1.9-3.8,2-6c0-2.2-1.3-3.8-3.8-5 c-2.5-1.1-6.3-1.7-11.3-1.7h-1.1v-9.4h60.6v9.4h-1.1c-4.7,0.1-9.3,1.1-13.6,3.1c-4.8,2.2-9.3,5.2-13.2,8.8l-5.8,5.4h68.4v-1.7 c0-6-1-10-2.9-11.9c-2-1.9-6.3-3.1-13-3.7v-9.4h126.9l1.7,26.8h27.9l0.9-26.8h119.2l1.1,26.8h33.7c2.9-4.6,6.3-8.8,10.2-12.6 c5.8-5.7,12.6-10.1,20.1-13.1c15.5-5.9,32.5-5.9,48,0c7.5,3,14.3,7.4,20,13.1c3.9,3.8,7.4,8,10.2,12.6h50.8v-1.7c0-6-1-10-2.9-11.9 c-2-1.9-6.3-3.1-13-3.7v-9.4h73.2c19.5,0,34.1,3,43.7,9c6.6,3.9,11.3,10.3,13.2,17.8h34.5v-1.7c0-6-1-10-2.9-11.9 c-2-1.9-6.3-3.1-13-3.7v-9.4h68.2c20.4,0,35.5,2.7,45.2,8.1c7.8,4.3,12.5,10.5,14.1,18.7h69.8l10.3-26.8h21.8l9.8,26.8h77v-1.7 c0-6.1-1-10-2.9-11.9s-6.3-3.1-13-3.7v-9.4h65v9.4c-6.7,0.6-11.1,1.8-13,3.7s-3,5.8-2.9,11.9v1.7h41.4c1.3-1.4,2.5-3,3.6-4.6 c1.2-1.8,1.9-3.8,2-6c0-2.2-1.3-3.8-3.8-5s-6.3-1.7-11.3-1.7h-1.1v-9.4h60.6v9.4h-1.1c-4.7,0.1-9.3,1.1-13.6,3.1 c-4.8,2.2-9.3,5.2-13.2,8.8l-5.8,5.4H2499L2499,1163.7"/></g><g><path fill="#9f2929" d="M1267.6,1220.9h-65v9.4c6.7,0.6,11.1,1.8,13,3.7c2,1.9,2.9,5.8,2.9,11.9v1.7h33v-1.7c0-6,1-10,2.9-11.9 s6.3-3.1,13-3.7V1220.9 M1343.1,1220.9h-60.6v9.4h1.1c5,0,8.7,0.6,11.3,1.7c2.5,1.2,3.8,2.8,3.8,5c-0.1,2.1-0.8,4.2-2,6 c-1,1.7-2.2,3.2-3.6,4.6h16.4l5.8-5.4c3.9-3.6,8.4-6.6,13.2-8.8c4.2-2,8.9-3.1,13.6-3.1h1.1L1343.1,1220.9"/></g><g><path fill="#d5d5d5" d="M1433.2,1230.3c-9.1,0-15,0.9-17.7,2.8c-2.7,1.8-4.1,6.1-4.1,12.8v1.7h62.9c-2.1-3.4-4.8-6.4-8-8.9 C1458.8,1233.2,1447.8,1230.3,1433.2,1230.3 M1562.1,1230.3h-2.6c-9.9,0-17.4,3.3-22.6,10c-1.7,2.3-3.2,4.7-4.3,7.3h29.5 L1562.1,1230.3 M1598.3,1230.3h-2.6v17.3h29.5c-1.1-2.6-2.6-5.1-4.3-7.3C1615.7,1233.7,1608.1,1230.3,1598.3,1230.3 M1884.7,1229.6 c-7.5,0-12.5,1.1-14.9,3.4c-2.5,2.3-3.7,7-3.7,14.3v0.4h44.8c-0.9-4.1-2.8-7.9-5.6-11C1900.8,1232,1893.9,1229.6,1884.7,1229.6 M2032.7,1229.6c-7.4,0-12.3,1-14.6,3.1s-3.4,6.4-3.4,12.9v2.1h43.1c-0.8-4.3-2.8-8.2-5.8-11.4 C2047.6,1231.8,2041.2,1229.6,2032.7,1229.6 M1727.5,1227.4c-10,0-17.1,4.4-21.2,13.2c-1,2.3-1.8,4.6-2.4,7h47.3 c-0.6-2.4-1.4-4.8-2.5-7C1744.5,1231.8,1737.5,1227.4,1727.5,1227.4"/></g><g><path fill="#9f2929" d="M1488.8,1220.9h-126.9v9.4c6.7,0.6,11.1,1.8,13,3.7c2,1.9,3,5.8,2.9,11.9v1.7h33.6v-1.7c0-6.7,1.4-11,4.1-12.8 c2.7-1.8,8.6-2.8,17.7-2.8c14.6,0,25.6,2.8,33.1,8.5c3.2,2.4,5.9,5.4,8,8.9h16.1L1488.8,1220.9"/></g><g><path fill="#9f2929" d="M1638.4,1220.9h-119.2l-0.9,26.8h14.3c1.1-2.6,2.6-5.1,4.3-7.3c5.2-6.7,12.7-10,22.6-10h2.6v17.3h33.6v-17.3 h2.6c9.9,0,17.4,3.3,22.6,10c1.7,2.3,3.2,4.7,4.3,7.3h14.3L1638.4,1220.9"/></g><g><path fill="#9f2929" d="M1727.5,1217.5c-8.2-0.1-16.4,1.4-24,4.4c-7.5,3-14.3,7.5-20.1,13.1c-3.9,3.8-7.3,8-10.2,12.6h30.6 c0.6-2.4,1.4-4.8,2.4-7c4.1-8.8,11.2-13.2,21.2-13.2c10,0,17,4.4,21.1,13.2c1,2.3,1.9,4.6,2.5,7h30.6c-2.9-4.6-6.3-8.9-10.2-12.6 c-5.7-5.7-12.5-10.1-20-13.1C1743.9,1219,1735.7,1217.5,1727.5,1217.5"/></g><g><path fill="#9f2929" d="M1889.7,1220.9h-73.2v9.4c6.7,0.6,11.1,1.8,13,3.7c2,1.9,3,5.8,2.9,11.9v1.7h33.6v-0.4c0-7.3,1.2-12,3.7-14.3 c2.5-2.3,7.4-3.4,14.9-3.4c9.2,0,16.1,2.4,20.6,7.1c2.8,3.1,4.8,6.9,5.6,11h35.6c-1.9-7.4-6.6-13.8-13.2-17.8 C1923.8,1223.9,1909.3,1220.9,1889.7,1220.9"/></g><g><path fill="#9f2929" d="M2033.3,1220.9h-68.2v9.4c6.7,0.6,11.1,1.8,13,3.7c2,1.9,3,5.8,2.9,11.9v1.7h33.6v-2.1 c0-6.5,1.1-10.8,3.4-12.9s7.2-3.1,14.6-3.1c8.4,0,14.8,2.2,19.2,6.7c3,3.1,5,7.1,5.8,11.4h34.8c-1.6-8.1-6.3-14.3-14.1-18.7 C2068.8,1223.6,2053.7,1220.9,2033.3,1220.9"/></g><g><path fill="#9f2929" d="M2194.5 1220.9L2172.7 1220.9 2162.4 1247.7 2204.3 1247.7 2194.5 1220.9"/></g><g><path fill="#9f2929" d="M2330.3,1220.9h-65v9.4c6.7,0.6,11.1,1.8,13,3.7c2,1.9,2.9,5.8,2.9,11.9v1.7h33v-1.7c0-6,1-10,2.9-11.9 s6.3-3.1,13-3.7L2330.3,1220.9 M2405.8,1220.9h-60.6v9.4h1.1c5,0,8.7,0.6,11.3,1.7s3.8,2.8,3.8,5c-0.1,2.1-0.8,4.2-2,6 c-1,1.7-2.2,3.2-3.6,4.6h16.4l5.8-5.4c3.9-3.6,8.4-6.6,13.2-8.8c4.2-2,8.9-3.1,13.6-3.1h1.1L2405.8,1220.9"/></g><g><path fill="#3a2409" d="M2499,1427.7H1114.1c-6.9,0-12.5-5.6-12.5-12.5l0,0v-251.6c0-6.9,5.6-12.5,12.5-12.5l0,0H2499 c6.9,0,12.5,5.6,12.5,12.5l0,0v251.6C2511.5,1422.2,2505.9,1427.7,2499,1427.7L2499,1427.7z M1126.6,1402.7h1359.8v-226.6H1126.6 L1126.6,1402.7z"/></g><g><path fill="#b5b5b5" d="M2564.7 2019L2564.7 2679.6 2138.7 2679.6 2085.4 2560.5 1527.7 2560.5 1475.2 2679.6 1048.3 2679.6 1048.3 2019 2564.7 2019"/></g><g><path fill="#d3d3d3" d="M1560.2 2136.7L1339.7 2136.7 1079.3 2679.6 1299.8 2679.6 1560.2 2136.7"/></g><g><path fill="#d3d3d3" d="M2196.1 2136.7L1975.6 2136.7 1776.2 2560.5 1996.7 2560.5 2196.1 2136.7"/></g><g><path fill="#959394" d="M2564.7 2019L1048.3 2019 1048.3 2136.7 2564.7 2136.7 2564.7 2019"/></g><g><path fill="#3a2409" d="M2564.7,2692.1h-426.1c-4.9,0-9.4-2.9-11.4-7.4l-50-111.7h-541.5l-49.2,111.6c-2,4.5-6.5,7.5-11.4,7.5h-426.8 c-6.9,0-12.5-5.6-12.5-12.5l0,0V2019c0-6.9,5.6-12.5,12.5-12.5h1516.4c6.9,0,12.5,5.6,12.5,12.5v660.6 C2577.2,2686.5,2571.6,2692.1,2564.7,2692.1L2564.7,2692.1z M2146.8,2667.1h405.5v-635.6H1060.8v635.6H1467l49.2-111.6 c2-4.5,6.5-7.5,11.4-7.5h557.7c4.9,0,9.4,2.9,11.4,7.4L2146.8,2667.1z"/></g><g><path fill="#3b7cbc" d="M874.5 2019H2748.4V2062.7H874.5z"/></g><g><path fill="#3a2409" d="M2748.3,2075.2H874.5c-6.9,0-12.5-5.6-12.5-12.5V2019c0-6.9,5.6-12.5,12.5-12.5h1873.9 c6.9,0,12.5,5.6,12.5,12.5v43.7C2760.8,2069.6,2755.2,2075.2,2748.3,2075.2z M887,2050.2h1848.9v-18.7H887L887,2050.2z"/></g><g><path fill="#bc4b4b" d="M635.1 1067.7H3364.9V1163.7H635.1z"/></g><g><path fill="#ffffff" d="M3364.9,1067.7v96h-44.4v-50.4c0-12-9.7-21.7-21.7-21.7l0,0H635.1v-24H3364.9z"/></g><g><path fill="#3a2409" d="M3364.9,1176.2H635.1c-6.9,0-12.5-5.6-12.5-12.5v-96c0-6.9,5.6-12.5,12.5-12.5h2729.8c6.9,0,12.5,5.6,12.5,12.5 v96C3377.4,1170.6,3371.8,1176.2,3364.9,1176.2z M647.6,1151.2h2704.8v-71H647.6L647.6,1151.2z"/></g></svg>