<?xml version="1.0" encoding="UTF-8" standalone="no"?><svg xmlns="http://www.w3.org/2000/svg" xmlns:xlink="http://www.w3.org/1999/xlink" contentScriptType="text/ecmascript" fill="#000000" width="925.7" zoomAndPan="magnify" contentStyleType="text/css" viewBox="-1.7 -5.0 925.7 620.5" height="620.5" data-name="Layer 1" preserveAspectRatio="xMidYMid meet" version="1"><g id="change1_1"><path fill="#ededdf" d="M114.43341,302.77568s727.47867,11.734,746.38211,16.63868,52.491,6.767,45.33372,98.17633S900.61,794.73883,905.15707,816.0946,914.284,860.147,797.29958,849.58983,135.16354,821.5,92.22257,821.208s-17.66389-63.969-23.099-176.53743S53.83453,348.53251,56.2213,336.399,50.00556,301.66723,114.43341,302.77568Z" transform="translate(-39.656 -248.111)"/></g><g id="change2_1"><path fill="#ffffee" d="M130.93341,286.27568s727.47867,11.734,746.38211,16.63868,52.491,6.767,45.33372,98.17633S917.11,778.23883,921.65707,799.5946,930.784,843.647,813.79958,833.08983,151.66354,805,108.72257,804.708s-17.66389-63.969-23.099-176.53743S70.33453,332.03251,72.7213,319.899,66.50556,285.16723,130.93341,286.27568Z" transform="translate(-39.656 -248.111)"/></g><g id="change3_1"><path fill="#c45037" d="M864.36035,840.7334c-13.57519,0-30.30566-.79492-51.00976-2.66406C697.84473,827.64551,157.52441,810.04,108.68848,809.708c-9.06006-.06153-15.86621-2.63867-20.80713-7.877-11.78418-12.49414-10.459-38.14062-8.45215-76.96289,1.34912-26.10644,3.02832-58.5957,1.20019-96.456-1.04687-21.67578-2.25683-45.98535-3.5122-71.19531C70.47266,423.7832,65.9165,328.58643,67.81543,318.93408a40.75463,40.75463,0,0,0,.49023-4.78564c.44092-6.64746,1.04493-15.752,10.189-22.75049,9.479-7.25537,26.66357-10.5752,52.51953-10.12158h0c74.522,1.20215,728.62256,11.88574,747.55713,16.79834,1.13672.29492,2.3291.57861,3.5625.87207,9.96094,2.37158,23.60351,5.61914,33.54687,20.25146,11.09961,16.3335,15.00977,43.24854,11.95313,82.28272-7.11035,90.81054-5.69141,375.44384-1.08594,397.07275,1.875,8.80762,4.209,19.76856-3.49707,28.457C917.06152,833.76367,904.53516,840.7334,864.36035,840.7334ZM126.47607,291.23682c-20.78857,0-34.873,2.72119-41.9038,8.102-5.54346,4.24316-5.90528,9.69726-6.28858,15.47168a48.29771,48.29771,0,0,1-.65625,6.05322c-1.80908,9.1958,4.71436,140.20019,9.477,235.855,1.25586,25.21582,2.46631,49.53027,3.51319,71.21094,1.85205,38.35937.15869,71.126-1.20215,97.45508-1.80615,34.94921-3.11133,60.20019,5.74023,69.585,3.00928,3.19043,7.33106,4.69531,13.60108,4.73828,48.88379.332,589.81738,17.96289,705.49218,28.40234,58.03516,5.23731,92.12305,2.63477,101.32032-7.73437,4.05175-4.56934,3.10449-10.78223,1.19726-19.74024-4.668-21.92578-6.24707-308.67871.89844-399.93506,6.38086-81.49658-19.18262-87.582-37.84766-92.02588-1.30078-.30957-2.55761-.60937-3.75781-.92041-17.375-3.9375-543.82519-13.231-745.20654-16.479l-.00537-.00049Q128.616,291.23681,126.47607,291.23682Z" transform="translate(-39.656 -248.111)"/></g><g id="change3_2"><path fill="#c45037" d="M47.18359,377.85059a5.00167,5.00167,0,0,1-4.63867-3.13184c-.48-1.19092-4.6167-13.32275-2.0625-71.814.61426-14.07227,6.15479-25.73487,16.46778-34.66407,29.01025-25.11767,86.0332-19.72314,88.44482-19.48193a4.99991,4.99991,0,0,1-.99512,9.95019c-.5498-.05468-55.18066-5.20019-80.917,17.103-8.25781,7.15576-12.51367,16.16065-13.01025,27.5293-2.42432,55.521,1.3081,67.542,1.34668,67.63818a5.00339,5.00339,0,0,1-4.63575,6.8711Z" transform="translate(-39.656 -248.111)"/></g><g id="change3_3"><path fill="#c45037" d="M865.61719,863.52832a71.69461,71.69461,0,0,1-13.27442-1.00586,5.00022,5.00022,0,0,1,1.92969-9.8125c10.06738,1.98047,30.37793.65137,54.334-3.55664,22.61425-3.9707,38.09277-8.76367,41.32714-10.92773.75489-1.83789,2.97461-11.3086.07227-56.72168-1.64453-25.72364-4.12891-50.29786-4.1543-50.543a5.00017,5.00017,0,0,1,9.94922-1.00977c.02637.26172,2.67969,26.50488,4.33106,53.25488,3.48242,56.37305-.59473,59.94239-3.292,62.30469C948.16309,853.1084,895.707,863.52637,865.61719,863.52832Zm84.19043-25.03613Z" transform="translate(-39.656 -248.111)"/></g><g id="change3_4"><path fill="#c45037" d="M103.7583,442.209a5.00151,5.00151,0,0,1-4.92529-4.17334c-3.00733-17.91455-12.40528-77.25146-7.05567-88.63867,6.50391-13.84228,29.01416-25.17871,52.15674-19.99072a5,5,0,1,1-2.1875,9.75781c-19.11963-4.28564-36.71924,5.54737-40.91845,14.48535-2.74024,5.834,1.9497,47.48584,7.86718,82.731a5.00484,5.00484,0,0,1-4.937,5.82861Z" transform="translate(-39.656 -248.111)"/></g><g id="change3_5"><path fill="#c45037" d="M238.11328,339.63965q-.1604,0-.32226-.01026l-45.688-2.9082a4.99983,4.99983,0,1,1,.63476-9.97949l45.68848,2.9082a4.99994,4.99994,0,0,1-.313,9.98975Z" transform="translate(-39.656 -248.111)"/></g><g id="change3_6"><path fill="#c45037" d="M321.40479,344.312a5,5,0,0,1-.11963-9.99853l41.56738-1.01612a5,5,0,0,1,.24414,9.99707l-41.56738,1.01612Q321.467,344.312,321.40479,344.312Z" transform="translate(-39.656 -248.111)"/></g><g id="change3_7"><path fill="#c45037" d="M432.69775,341.59131a5,5,0,0,1-.11962-9.99854l37.54492-.91748a5,5,0,0,1,.24414,9.99707l-37.54492.91748Q432.76,341.59131,432.69775,341.59131Z" transform="translate(-39.656 -248.111)"/></g><g id="change3_8"><path fill="#c45037" d="M557.56445,345.24756a5,5,0,0,1-.12011-9.99854l44.249-1.08154a5,5,0,0,1,.24414,9.99707l-44.249,1.08154C557.64746,345.24707,557.60547,345.24756,557.56445,345.24756Z" transform="translate(-39.656 -248.111)"/></g><g id="change3_9"><path fill="#c45037" d="M682.36426,346.22168a5,5,0,0,1-.12012-9.99854l40.22656-.98291a5,5,0,0,1,.24414,9.99707l-40.22656.98291C682.44727,346.22119,682.40527,346.22168,682.36426,346.22168Z" transform="translate(-39.656 -248.111)"/></g><g id="change3_10"><path fill="#c45037" d="M815.11133,342.97705a5,5,0,0,1-.12012-9.99853l44.249-1.08155a5,5,0,0,1,.24415,9.99707l-44.249,1.08155C815.19434,342.97656,815.15234,342.97705,815.11133,342.97705Z" transform="translate(-39.656 -248.111)"/></g><g id="change3_11"><path fill="#c45037" d="M825.23438,802.72461c-5.97852,0-12.04981-.22559-18.09473-.72363a5.00033,5.00033,0,0,1,.82226-9.9668c37.56641,3.09863,73.044-4.74707,77.96875-8.88867,1.99024-2.44141.84082-16.68164-2.48144-29.80957a4.99948,4.99948,0,0,1,9.69336-2.45313c2.46387,9.7334,7.32129,33.1084-.77637,39.917C885.68164,796.4209,856.83008,802.72363,825.23438,802.72461Z" transform="translate(-39.656 -248.111)"/></g><g id="change3_12"><path fill="#c45037" d="M720.26074,798.78418a4.99977,4.99977,0,0,1-.12011-9.99805l37.54492-.918c.041-.00195.083-.00195.124-.00195a4.99977,4.99977,0,0,1,.12012,9.998l-37.54492.918C720.34375,798.78418,720.30176,798.78418,720.26074,798.78418Z" transform="translate(-39.656 -248.111)"/></g><g id="change3_13"><path fill="#c45037" d="M624.89453,794.40723a4.99977,4.99977,0,0,1-.12012-9.99805l36.20313-.88574c.041-.002.083-.002.124-.002a4.99977,4.99977,0,0,1,.12012,9.99805l-36.20313.88574C624.97754,794.40723,624.93555,794.40723,624.89453,794.40723Z" transform="translate(-39.656 -248.111)"/></g><g id="change3_14"><path fill="#c45037" d="M564.56152,795.88184c-.11621,0-.23242-.00391-.34961-.01172l-43.00683-2.97364a5.00018,5.00018,0,1,1,.68945-9.97656l43.00684,2.97363a5.00009,5.00009,0,0,1-.33985,9.98829Z" transform="translate(-39.656 -248.111)"/></g><g id="change3_15"><path fill="#c45037" d="M403.419,790.42871a4.99977,4.99977,0,0,1-.11963-9.99805l52.29443-1.27832c.0415-.00195.083-.00195.12451-.00195a4.99977,4.99977,0,0,1,.11963,9.99805l-52.29443,1.27832C403.502,790.42871,403.46045,790.42871,403.419,790.42871Z" transform="translate(-39.656 -248.111)"/></g><g id="change3_16"><path fill="#c45037" d="M287.97217,787.88477a4.99977,4.99977,0,0,1-.11963-9.99805l38.88525-.95117c.04151-.002.083-.002.12451-.002a4.99977,4.99977,0,0,1,.11963,9.99805l-38.88525.95117C288.05518,787.88477,288.01367,787.88477,287.97217,787.88477Z" transform="translate(-39.656 -248.111)"/></g><g id="change3_17"><path fill="#c45037" d="M163.10645,784.22852a4.99977,4.99977,0,0,1-.11963-9.99805l46.93066-1.14746c.0415-.002.083-.002.12451-.002a4.99977,4.99977,0,0,1,.11963,9.99805L163.231,784.22656C163.18945,784.22852,163.148,784.22852,163.10645,784.22852Z" transform="translate(-39.656 -248.111)"/></g></svg>