<?xml version="1.0" encoding="UTF-8" standalone="no"?><svg xmlns="http://www.w3.org/2000/svg" xmlns:xlink="http://www.w3.org/1999/xlink" contentScriptType="text/ecmascript" fill="#000000" width="2736.3" zoomAndPan="magnify" contentStyleType="text/css" viewBox="131.4 970.3 2736.3 948.4" height="948.4" preserveAspectRatio="xMidYMid meet" version="1"><g><g><g id="change1_1"><path fill="#dfe894" clip-rule="evenodd" d="M262.88,1243.96h2473.51c46.66,0,84.8,38.25,84.8,84.92v492.79c0,46.66-38.14,84.92-84.8,84.92H262.88 c-46.66,0-84.92-38.25-84.92-84.92v-492.79C177.96,1282.22,216.21,1243.96,262.88,1243.96L262.88,1243.96z" fill-rule="evenodd"/></g><g id="change2_1"><path fill="#5c3624" d="M262.88,1231.87h2473.51c26.62,0,50.93,10.83,68.44,28.46c17.63,17.51,28.57,41.82,28.57,68.56v492.79 c0,26.73-10.95,51.04-28.57,68.56c-17.51,17.63-41.82,28.46-68.44,28.46H1385.22v-24.31h1351.17c19.93,0,38.02-8.18,51.27-21.31 c13.14-13.25,21.32-31.34,21.32-51.39v-492.79c0-20.05-8.18-38.14-21.32-51.39c-13.25-13.13-31.34-21.32-51.27-21.32H262.88 c-20.05,0-38.14,8.18-51.39,21.32c-13.13,13.25-21.32,31.34-21.32,51.39v492.79c0,20.05,8.18,38.14,21.32,51.39 c13.25,13.13,31.34,21.31,51.39,21.31h988.69v24.31H262.88c-26.73,0-51.04-10.83-68.56-28.46 c-17.63-17.51-28.46-41.82-28.46-68.56v-492.79c0-26.73,10.83-51.04,28.46-68.56C211.84,1242.7,236.15,1231.87,262.88,1231.87 L262.88,1231.87z M1349.04,1918.68h-61.41v-24.31h61.41V1918.68z"/></g><g id="change3_1"><path fill="#fef7eb" clip-rule="evenodd" d="M230.62,1169.07h2537.92c47.82,0,86.99,39.17,86.99,86.99v505.69c0,47.93-39.17,87.11-86.99,87.11H230.62 c-47.82,0-86.99-39.17-86.99-87.11v-505.69C143.63,1208.25,182.8,1169.07,230.62,1169.07L230.62,1169.07z" fill-rule="evenodd"/></g><g id="change2_2"><path fill="#5c3624" d="M230.62,1156.86h340.01v24.43H230.62c-20.51,0-39.29,8.41-52.77,22.01c-13.6,13.48-22.01,32.26-22.01,52.77 v505.69c0,20.62,8.41,39.29,22.01,52.89c13.48,13.6,32.26,22.01,52.77,22.01H2442.7v24.43H230.62 c-27.31,0-52.08-11.18-70.05-29.15c-17.97-17.97-29.15-42.86-29.15-70.17v-505.69c0-27.31,11.18-52.08,29.15-70.05 C178.54,1168.04,203.31,1156.86,230.62,1156.86L230.62,1156.86z M2478.76,1836.65h61.41v24.43h-61.41V1836.65z M2576.35,1836.65 h192.18c20.51,0,39.29-8.41,52.89-22.01c13.48-13.6,21.89-32.26,21.89-52.89v-505.69c0-20.51-8.41-39.29-21.89-52.77 c-13.6-13.6-32.38-22.01-52.89-22.01H704.28v-24.43h2064.26c27.31,0,52.08,11.18,70.05,29.15c17.97,17.97,29.15,42.75,29.15,70.05 v505.69c0,27.31-11.18,52.19-29.15,70.17c-17.97,17.97-42.75,29.15-70.05,29.15h-192.18V1836.65z M668.22,1181.29h-61.53v-24.43 h61.53V1181.29z"/></g><g id="change4_1"><path fill="#fdd000" clip-rule="evenodd" d="M1499.63,1368.86c106.35,0,193.11-86.76,193.11-193.11c0-106.46-86.76-193.22-193.11-193.22 c-106.46,0-193.22,86.76-193.22,193.22C1306.41,1282.1,1393.17,1368.86,1499.63,1368.86L1499.63,1368.86z" fill-rule="evenodd"/></g><g id="change2_3"><path fill="#5c3624" d="M1499.63,970.32c47.24,0,90.68,16.02,125.47,42.86l-23.16,13.25c-29.15-19.93-64.41-31.69-102.31-31.69 c-50,0-95.29,20.28-128.01,53c-32.72,32.72-53,78-53,128.01c0,49.89,20.28,95.17,53,127.89c32.72,32.72,78,53,128.01,53 c49.89,0,95.17-20.28,127.89-53c32.72-32.72,53-78,53-127.89c0-13.02-1.38-25.81-4.03-38.02l22.12-12.79 c4.15,16.25,6.34,33.3,6.34,50.81c0,56.69-23.04,107.96-60.14,145.18c-37.22,37.1-88.49,60.14-145.18,60.14 c-56.8,0-108.08-23.04-145.29-60.14c-37.1-37.22-60.14-88.49-60.14-145.18c0-56.69,23.04-108.08,60.14-145.29 C1391.56,993.36,1442.83,970.32,1499.63,970.32L1499.63,970.32z M1665.2,1102.59c-8.41-19.01-20.05-36.29-34.1-51.27l21.55-12.44 c13.71,15.32,25.12,32.61,33.76,51.5L1665.2,1102.59z"/></g></g></g></svg>