<?xml version="1.0" encoding="UTF-8" standalone="no"?><svg xmlns="http://www.w3.org/2000/svg" xmlns:xlink="http://www.w3.org/1999/xlink" contentScriptType="text/ecmascript" fill="#000000" width="243.7" zoomAndPan="magnify" contentStyleType="text/css" viewBox="52.0 165.4 243.7 98.5" height="98.5" data-name="Layer 1" preserveAspectRatio="xMidYMid meet" version="1"><g id="change1_1"><path fill="#fffeff" d="M231.57,263.93a6.67,6.67,0,0,1-1.15-.11,16.31,16.31,0,0,1-3-.79c-6.76-2.62-12.39-4.78-17.74-6.79-4.63-1.74-9.82-3.44-16.34-5.36-5.45-1.59-11.07-2.81-16.83-4l-.78-.17c-3.61-.76-7.34-1.55-11-2-1.24-.15-2.53-.19-3.89-.24s-2.53-.09-3.82-.22a35,35,0,0,0-3.7-.18c-1.77,0-3.52.1-5.37.2-.84,0-1.67.09-2.51.12-13.85.57-26,3.06-37.07,7.6-1.87.77-3.73,1.58-5.58,2.39l-3.24,1.4a22.05,22.05,0,0,1-2.21.8,5.1,5.1,0,0,1-1.44.22A4.25,4.25,0,0,1,92,254.21a6.24,6.24,0,0,1,1-7.43,20,20,0,0,1,3.41-3,5.3,5.3,0,0,1,.76-2.1,23.87,23.87,0,0,1-4.52.45,19.63,19.63,0,0,1-7.84-1.6,12.89,12.89,0,0,1-7.12-6.87,19.58,19.58,0,0,1-10.21,6,14.08,14.08,0,0,1-2.94.32,13.93,13.93,0,0,1-5.88-1.32c-3.61-1.68-5.7-4.8-6.22-9.26-.44-3.8.45-7.54,2.8-11.77a60.38,60.38,0,0,1,6.68-9.18c.64-.78,1.31-1.55,2-2.33a25.57,25.57,0,0,1-4.5-4.79,10.76,10.76,0,0,1-1.68-3.09,5.35,5.35,0,0,1,1.78-6.4,5.9,5.9,0,0,1,3.59-1.24,5,5,0,0,1,.67,0,5.27,5.27,0,0,1,2.4-5.15,5.57,5.57,0,0,1,3.14-1,5.18,5.18,0,0,1,.84.07A5.91,5.91,0,0,1,72,179.35v0c.11-.27.23-.55.36-.8.51-1,2.13-4.24,5.67-5.12l.06,0a2.18,2.18,0,0,0,.08-.24,8.28,8.28,0,0,1,.78-1.76c2.27-4.11,5.47-5,7.76-5a11.44,11.44,0,0,1,3.17.49,11.27,11.27,0,0,1,7.2,6.38,24.25,24.25,0,0,1,1.75,5.47,19.22,19.22,0,0,1,7.19-3.2,10.5,10.5,0,0,1,2.26-.25,8.75,8.75,0,0,1,8.06,5.19,11.68,11.68,0,0,1,.54,1.22c.42-.43.82-.9,1.24-1.39l.53-.62A23.21,23.21,0,0,1,134,171.39c.51,0,1-.08,1.54-.08a16.22,16.22,0,0,1,7.9,2.13,18.25,18.25,0,0,1,3.37,2.36,8.52,8.52,0,0,1,3.42-.71,10.14,10.14,0,0,1,4,.89c1-.42,1-.65,1.12-.87a6,6,0,0,1,2.05-2.61c3-2.31,7.25-5,12.73-5l.72,0A12.76,12.76,0,0,1,174,168a6.38,6.38,0,0,1,4.31,3.68,5.48,5.48,0,0,1,.34,2.63,7.49,7.49,0,0,1,1.52-.16,5.17,5.17,0,0,1,4.54,2.44A26.81,26.81,0,0,1,195.55,169a15,15,0,0,1,5.29-1c.39,0,.79,0,1.19.05a10,10,0,0,1,6.85,3.55c.23.25.44.51.65.77a4.35,4.35,0,0,1,6.94-.08,12.74,12.74,0,0,1,1.37,1.93l1.64-1.35a14.57,14.57,0,0,1,2.77-1.9,4.41,4.41,0,0,1,2-.52,3.47,3.47,0,0,1,3.41,3.21c.32,1.83.56,3.67.8,5.44v.11c.21,1.58.4,3.18.6,4.77.36,3,.73,6.12,1.26,9.15a10,10,0,0,1,.53-.94v-.09A26.4,26.4,0,0,1,234,181.55a15.94,15.94,0,0,1,6.64-6.52c.18-.1.24-.15.24-.16,3-4.71,7.61-7.67,14.12-9a20,20,0,0,1,4.22-.45,21.15,21.15,0,0,1,4.11.42A5.8,5.8,0,0,1,268.2,170l1.88-.87a36.17,36.17,0,0,1,8.91-2.83,9.33,9.33,0,0,1,1.38-.12h.2a4.92,4.92,0,0,1,5.15,5.17,10.69,10.69,0,0,1-.2,2.17c-.44,2.23-.89,4.5-1.37,6.78a6.11,6.11,0,0,1,2.39-.48,7.2,7.2,0,0,1,1.29.12,3.78,3.78,0,0,1,3.23,4.27,6.7,6.7,0,0,1-.71,2.38h.46a7.45,7.45,0,0,1,1.06.07,4.17,4.17,0,0,1,3.2,6.1,6.71,6.71,0,0,1-2.49,2.62c-1,.68-2,1.34-3.08,2a4.93,4.93,0,0,1-1,2.85,9.05,9.05,0,0,1-2.27,2.16,113.6,113.6,0,0,1-12.32,7.27l-.5.23a59,59,0,0,1-3,6.65c-.36.73-.72,1.45-1.07,2.18-.18.37-.37.73-.57,1.1s-.26.48-.38.73a5.71,5.71,0,0,1-3.87,3.29c-.23.38-.46.73-.68,1.05s-.37.56-.54.85a8.39,8.39,0,0,1-7.27,4.64l-.84,0c-.95.06-1.94.11-2.95.11-.82,0-1.55,0-2.26-.11a6.59,6.59,0,0,1-2.27-.6,7.19,7.19,0,0,1-4.33,2.49,17.07,17.07,0,0,1-3.61.37,22.23,22.23,0,0,1-4.41-.47,6.55,6.55,0,0,1-.79-.22,20.22,20.22,0,0,1,2.88,3.41,33.34,33.34,0,0,1,5.62,15.06,9.45,9.45,0,0,1,.06,1.81,5.29,5.29,0,0,1-5.34,5.11H237a8.45,8.45,0,0,1-.63,3.17A5,5,0,0,1,231.57,263.93Z"/></g><g id="change2_1"><path d="M291.48,189.41a5.58,5.58,0,0,0-2.15.15,14.56,14.56,0,0,0-3.61,1.41l-3,1.62a4.34,4.34,0,0,1,1-1.53,40,40,0,0,0,3.8-5.27,4.77,4.77,0,0,0,.7-1.88,1,1,0,0,0-.91-1.23A3.48,3.48,0,0,0,285,183a13.19,13.19,0,0,0-4.13,3.33c-.4.5-.82,1-1.28,1.53a2,2,0,0,1,0-.26c1.3-4.84,2.26-9.75,3.22-14.66a7.61,7.61,0,0,0,.16-1.57,2.15,2.15,0,0,0-2.41-2.41,5.62,5.62,0,0,0-1,.08,33,33,0,0,0-8.21,2.61,67.56,67.56,0,0,0-6.3,3.17c.22-.89.43-1.58.54-2.28.34-2.26-.52-3.51-2.72-3.95a17.54,17.54,0,0,0-7.18,0c-5.07,1.06-9.44,3.26-12.32,7.8a3.24,3.24,0,0,1-1.27,1.11,13.21,13.21,0,0,0-5.5,5.38,23.58,23.58,0,0,0-2.87,9.44,2,2,0,0,1-.24,1.11,12.93,12.93,0,0,0-1.72,4.85,11.32,11.32,0,0,1-.71,2.91c-.41-1.09-.72-2.14-1.61-2.67a3.31,3.31,0,0,1-1.45-2.63c-1.09-5.38-1.57-10.86-2.3-16.3-.24-1.81-.48-3.63-.79-5.43-.16-.91-.49-1.05-1.31-.65a12,12,0,0,0-2.24,1.56l-4.15,3.42-.68-1a26.79,26.79,0,0,0-2.11-3.27,1.56,1.56,0,0,0-2.67.07,10.38,10.38,0,0,0-1.3,2.41c-.24.56-.26,1.22-.79,1.73a15.37,15.37,0,0,0-2.81-4.88,7.3,7.3,0,0,0-5-2.62,11.85,11.85,0,0,0-5.23.77,23.92,23.92,0,0,0-10.29,7.44,18.82,18.82,0,0,1-3.41,2.71c0-.71,0-1.23,0-1.76-.17-2.58-1.63-3.59-4.11-2.88a13.76,13.76,0,0,0-4,2l-2,1.38c-.23-.36,0-.55.08-.74.79-1.44,1.54-2.89,2.39-4.29,1.32-2.19.24-4.12-2.05-4.79a10.32,10.32,0,0,0-2.43-.34c-4.5-.19-8.18,1.78-11.61,4.39a3.08,3.08,0,0,0-1.11,1.32,4.33,4.33,0,0,1-2.68,2.51,2.32,2.32,0,0,1-2.13,0A6.19,6.19,0,0,0,147,179c-.54.35-.82.15-1.19-.25a14.44,14.44,0,0,0-3.66-2.79,13.15,13.15,0,0,0-7.78-1.71,20.42,20.42,0,0,0-13.49,7.35,22.78,22.78,0,0,1-3.6,3.68,33.27,33.27,0,0,0-2.7,2.43,7.82,7.82,0,0,0-.68-5.91,6.08,6.08,0,0,0-7.19-3.44,17.34,17.34,0,0,0-9.27,5.52c-.24.26-.35.68-.8.74a4.5,4.5,0,0,1-.1-1.59,21.83,21.83,0,0,0-1.95-8.53,8.41,8.41,0,0,0-5.42-4.84c-3.42-1-5.93,0-7.65,3.13a6,6,0,0,0-.54,1.18,2.73,2.73,0,0,1-2.18,2.22c-1.85.46-3,2-3.84,3.68-.26.5-.39,1.19-.8,1.49-1.28.93-1.26,2.19-1.09,3.51.14,1.09.35,2.18.56,3.27a4.61,4.61,0,0,1-.23,2.78c-.81-1-1.5-1.89-2.31-2.7a2.34,2.34,0,0,0-3.27-.28,2.44,2.44,0,0,0-1,3.14,4.68,4.68,0,0,1,.35,2,14.5,14.5,0,0,0,.45,3.14,4.56,4.56,0,0,1,.31,1.77c-.5-.74-.9-1.33-1.31-1.92a7,7,0,0,0-1.74-1.91,3,3,0,0,0-3.62.1,2.57,2.57,0,0,0-.8,3.23,7.84,7.84,0,0,0,1.24,2.27c1.82,2.36,3.71,4.64,6.66,5.78-1.46,1.68-2.87,3.26-4.22,4.89a58,58,0,0,0-6.37,8.74c-1.74,3.12-2.89,6.4-2.46,10.06.36,3.11,1.63,5.64,4.59,7a11.05,11.05,0,0,0,7.05.8c4.37-.92,7.56-3.66,10.28-7a6.31,6.31,0,0,1,2.33-1.8c0,.77,0,1.45.14,2.11A9.78,9.78,0,0,0,85.94,238a18.59,18.59,0,0,0,12.29.61c5.34-1.38,9.88-4.1,13-8.78,1.06-1.62,2.73-2.29,4-3.69a9.29,9.29,0,0,0,3.09,4.29c-.12.33-.37.39-.59.48a65.34,65.34,0,0,0-10.34,6A56.59,56.59,0,0,0,100.6,242a3.38,3.38,0,0,0-1.39,2.44,1.54,1.54,0,0,1-.8,1.39,17.66,17.66,0,0,0-3.29,2.81,3.38,3.38,0,0,0-.58,4.25,1.48,1.48,0,0,0,2,.92,17.93,17.93,0,0,0,1.9-.69c2.95-1.26,5.89-2.58,8.86-3.8,12.18-5,24.93-7.27,38-7.81a81.2,81.2,0,0,1,12-.13c2.58.26,5.21.16,7.78.47,4,.5,8,1.37,12,2.21,5.73,1.2,11.44,2.43,17,4.07s11.11,3.39,16.54,5.43q8.9,3.34,17.74,6.79a13.73,13.73,0,0,0,2.5.65,2.28,2.28,0,0,0,2.83-1.61,5.32,5.32,0,0,0,.37-2.82c-.12-.89-.44-1.73-.65-2.73.43.08.75.13,1.07.2a13.2,13.2,0,0,0,3.14.42A2.47,2.47,0,0,0,240.3,252a7.07,7.07,0,0,0-.05-1.3,30.41,30.41,0,0,0-5.15-13.79,16.51,16.51,0,0,0-5.66-5.27l-2.51-1.41c2-.92,2.6-2.63,2.89-4.5,0-.09.08-.19.06-.28-.18-1,.55-1.08,1.26-1.26s1,.1,1.12.71a13.16,13.16,0,0,0,1.21,2.61,3.58,3.58,0,0,0,2.46,1.85,16.74,16.74,0,0,0,6.87.11c2.33-.49,3.39-1.79,3.72-4.18a4.39,4.39,0,0,0,.07-.72c0-.81.34-1.22,1.28-1.22a6.57,6.57,0,0,1-.07.68c-.37,2.16.35,3.29,2.47,3.5a37.8,37.8,0,0,0,5.63,0,5.64,5.64,0,0,0,4.93-3.2c.45-.8,1-1.52,1.45-2.33a1.38,1.38,0,0,1,1.18-.89,2.82,2.82,0,0,0,2.39-1.83c.3-.61.64-1.19.93-1.8A71.5,71.5,0,0,0,271,208.1a.92.92,0,0,1,.66-.65c.31-.12.64-.21.94-.36a110.17,110.17,0,0,0,12-7.1,6.14,6.14,0,0,0,1.57-1.48,1.76,1.76,0,0,0,.37-1.87c-.3-.57,0-.76.36-1,1.38-.88,2.76-1.76,4.12-2.67a4,4,0,0,0,1.52-1.51A1.34,1.34,0,0,0,291.48,189.41Zm-180.73,5.34c-.15.44-.28.89-.45,1.33-.33.83-.14,2.06-.87,2.45s-1.65-.09-2.8-.21A33.32,33.32,0,0,0,110.75,194.75Zm38.93,26.7a18.22,18.22,0,0,1-3.11.41,16.6,16.6,0,0,1,2.29-2.37A6.74,6.74,0,0,1,149.68,221.45ZM171.57,200a22.67,22.67,0,0,0-2.08,1.93,9.64,9.64,0,0,1-.23-3.29,8.08,8.08,0,0,0,3.12-.65A1.8,1.8,0,0,1,171.57,200Zm43.79,25.83-4.94-1.39a4.2,4.2,0,0,0,1.16-2.33c0-.61.89-.74,1.46-1.09A37.3,37.3,0,0,0,215.36,225.83Zm-15.49-29.47a17.91,17.91,0,0,1-1.6,5.66c-.62,1.44-1.3,2.86-2,4.37a3.86,3.86,0,0,1-1.33-2.88,22.43,22.43,0,0,1,1-8,15.84,15.84,0,0,1,.53-1.65,1.37,1.37,0,0,1,2.51-.48A3.79,3.79,0,0,1,199.87,196.36Zm-3.64,25.18a5.38,5.38,0,0,1-2.71-.39l2.15-1.5Z"/></g><g id="change3_1"><path fill="#c04940" d="M286.53,183.81c-4.34,1.86-6.38,5.79-9.09,9.19a8.38,8.38,0,0,1,.22-2.41,69.84,69.84,0,0,1,1.68-10c.57-2.53,1.26-5,1.74-7.59.44-2.3.08-2.58-2.18-2.14a5.66,5.66,0,0,0-.56.13,50.55,50.55,0,0,0-13.79,5.83c-2.62,1.58-5.16,3.45-5.82,6.83a7,7,0,0,1,2.65-6.33,4.63,4.63,0,0,0,1.58-1.65,16.1,16.1,0,0,0,1.09-3.43c.26-1.35-.18-2-1.53-2.27a17.68,17.68,0,0,0-9,.62,15.94,15.94,0,0,0-11.15,11.15,31.12,31.12,0,0,0-1.12,7.84c-.19,4.62-.11,9.25-.1,13.87a66.08,66.08,0,0,0,.59,8.2c.08.66.07,1.34.1,2a4.1,4.1,0,0,1-.6-1.49c-.9-3.39-1.36-6.88-2.31-10.26a23,23,0,0,0-3.44-7.28c-.55-.76-.71-.73-1.26,0a8.38,8.38,0,0,0-1.39,3.16,78.9,78.9,0,0,0-1.47,11.87c0,.49-.07,1-.1,1.52-.49-.23-.53-.6-.64-.9a78.8,78.8,0,0,1-4.16-13.65c-1.08-5.48-1.64-11-2.32-16.58-.19-1.6-.44-3.19-.7-5.06a79.46,79.46,0,0,0-9.93,8.64,2.38,2.38,0,0,1,.84-1.63c.54-.68,1.4-1.28,1.56-2s-.76-1.58-1.22-2.36a9.69,9.69,0,0,0-1.81-2.7c-1.6,2.16-2,4.78-3.11,7.22-.26-.61-.46-1.05-.64-1.49a28.63,28.63,0,0,0-2.78-5.21,6.63,6.63,0,0,0-7.8-2.91,20.68,20.68,0,0,0-9,5,25.05,25.05,0,0,0-5.26,6.85,49.24,49.24,0,0,0-4.58,12.28c-.27,1.22-.39,2.38.74,3.28a.4.4,0,0,1,.13.56l-.9-.58a5.11,5.11,0,0,0-5.47-.2,9.18,9.18,0,0,0-4.88,5.77,11,11,0,0,1-.25,1.68c-1.93-3.07-1.73-14.6.24-19.46a1,1,0,0,1,.66.26,10.74,10.74,0,0,0,6.46,1.65,3,3,0,0,0,2.77-1.54,16.25,16.25,0,0,0,2.06-7.88c0-1.61-.68-2.06-2.21-1.63a34.29,34.29,0,0,0-3.53,1.64,12.55,12.55,0,0,0-4.86,3.75,1.51,1.51,0,0,1-1,.69,13.4,13.4,0,0,0,.88-1.81c.87-2.8,1.88-5.55,3-8.27.6-1.45.05-2.34-1.53-2.56a13.34,13.34,0,0,0-4.32.1,21.48,21.48,0,0,0-6.57,2.9,6.83,6.83,0,0,0-3.05,4.53,13.12,13.12,0,0,0,0,3.86,3.78,3.78,0,0,1-1.6-1.1,9.5,9.5,0,0,0-2.6-1.81,7.94,7.94,0,0,0-6.83-.32,7.18,7.18,0,0,0-3,2.57,3.1,3.1,0,0,1,.72-1.71c.42-.54.32-.9-.14-1.34-3.49-3.39-7.59-4.94-12.4-3.7a20,20,0,0,0-14,12.34,28.94,28.94,0,0,0-1.75,13.21,3.05,3.05,0,0,0,.6,1.59,14.51,14.51,0,0,1,1.81,3.31c-4.3-4.68-9-7.68-15.69-6.75.81-.8,1.44-1.54,2.17-2.13a32.6,32.6,0,0,0,5.82-6.59,12.93,12.93,0,0,0,1.7-3.65,6.44,6.44,0,0,0-.32-4.65,4.73,4.73,0,0,0-6-3,16.16,16.16,0,0,0-8.2,4.87c-.67.7-1.31,1.42-2,2.1s-1.08,1.55-1.89,2.53A44.47,44.47,0,0,0,95,182.9a18.36,18.36,0,0,0-1.74-7.69,7.06,7.06,0,0,0-4.71-4.16,4.37,4.37,0,0,0-5.53,2.2,9.5,9.5,0,0,0-1.12,2.81,31.23,31.23,0,0,0-.53,6,38.77,38.77,0,0,1-.29,5,19.85,19.85,0,0,0-.08,7.29,12.46,12.46,0,0,1,.07,2.45,2.68,2.68,0,0,1-.45,1.51c-.68,1-2.23,1.68-3.15.43-.09-.12-.2-.34-.51-.21-2,2.89-4.45,5.48-6.64,8.3a57.55,57.55,0,0,0-6.49,9.72,11.77,11.77,0,0,0-1.34,6.56,6.16,6.16,0,0,0,1.7,3.74,9.24,9.24,0,0,0,5.91,2.71,12.83,12.83,0,0,0,10.74-3.95,23.51,23.51,0,0,0,5.7-9.43c.19-.59.44-1.15.7-1.82a3,3,0,0,1,.38,2.15c-.11.85-.31,1.7-.38,2.56a10,10,0,0,0,1.6,7A10.23,10.23,0,0,0,95,229.89a20.41,20.41,0,0,0,7.75.07c8.76-1.25,14.45-6.26,17.63-14.35.11-.3.11-.68.52-.79a12.9,12.9,0,0,1,.2,1.86c.31,1.69,1.38,2.94,2.27,4.3a10.21,10.21,0,0,0,6.84,4.67,10.42,10.42,0,0,1,3.22.83c-1.56.52-2.9,1-4.24,1.42-8.7,3-17,6.91-24.16,12.74-1.28,1-2.56,2.05-3.81,3.11a1.57,1.57,0,0,0-.43,1.94c.41.74,1,.36,1.52.2a21.72,21.72,0,0,0,2.18-.77c2-.87,4-1.75,5.92-2.67A79.19,79.19,0,0,1,125.25,237c6.7-1.62,13.43-3.05,20.34-3.19,7.46-.15,14.92-.46,22.38.44,5.3.65,10.56,1.5,15.8,2.48a199.35,199.35,0,0,1,20.85,5.12,205.18,205.18,0,0,1,22.84,8.11,41.2,41.2,0,0,0,7.3,2.68,11,11,0,0,0,2.84.46c.89,0,1.21-.34,1.28-1.21a4.85,4.85,0,0,0,0-1,32.64,32.64,0,0,0-2-7.66c-2.26-5.48-5.79-9.67-11.44-12a120.37,120.37,0,0,0-14.28-5c-5.17-1.38-10.43-2.27-15.69-3.18a53.44,53.44,0,0,0-6.65-1,27.53,27.53,0,0,0,13-11.36c.48,1.72.88,3.25,1.34,4.77a11.1,11.1,0,0,0,2.27,4.15,4,4,0,0,0,5.44,1,18.61,18.61,0,0,0,3.78-2.88,4.43,4.43,0,0,0,1.25-4.73,44.58,44.58,0,0,1-1.7-14.57,15.15,15.15,0,0,0-.26-3.86,25,25,0,0,1-.59-4.61c.46,2,.77,3.71,1.24,5.37,1.42,5.05,3.28,10,4.91,14.94a80.15,80.15,0,0,0,3.89,9.33,5.2,5.2,0,0,0,2.24,2.37,8.48,8.48,0,0,0,6.84.68,2.86,2.86,0,0,0,2.17-2.42,21.66,21.66,0,0,0,.32-4c0-3.61.33-7.21.6-10.81,0-.32,0-.65.38-.76,1.33,4.77,2.76,9.46,4.53,14a12.36,12.36,0,0,0,1,2.22,2.54,2.54,0,0,0,2.09,1.34,12,12,0,0,0,5-.64,2.62,2.62,0,0,0,1.82-2.17c.82-4.25,1.33-8.55,2.23-12.79,1.3-6.13,2.67-12.23,5.24-18,.11-.25.15-.55.56-.68-.34,1.8-.16,3.6-.39,5.36a60,60,0,0,0-.51,9.08,7.75,7.75,0,0,0,.32,2.14,1.63,1.63,0,0,0,2.09,1.27,9.48,9.48,0,0,0,2.07-.62c3.34-1.61,6.67-3.23,10-4.79a8,8,0,0,0,4.53-5.47c.08-.29,0-.71.45-.78.15.11.12.25.09.39-.13.52-.32,1.15.27,1.42s1-.35,1.37-.76a.94.94,0,0,0,.09-.12,42,42,0,0,1,3.8-4.91,42.15,42.15,0,0,0,3.45-4.63A2.2,2.2,0,0,0,286.53,183.81Zm-140,38.05a16.6,16.6,0,0,1,2.29-2.37,6.74,6.74,0,0,1,.82,2A18.22,18.22,0,0,1,146.57,221.86Zm53.3-25.5a17.91,17.91,0,0,1-1.6,5.66c-.62,1.44-1.3,2.86-2,4.37a3.86,3.86,0,0,1-1.33-2.88,22.43,22.43,0,0,1,1-8,15.84,15.84,0,0,1,.53-1.65,1.37,1.37,0,0,1,2.51-.48A3.79,3.79,0,0,1,199.87,196.36Z"/></g><g id="change3_2"><path fill="#c04940" d="M259.1,220.09c-1,0-1.69,0-2.41,0-1.09-.06-1.25-.29-1.15-1.34a25.77,25.77,0,0,1,1.78-6.68,26.15,26.15,0,0,1,1.35-3.18,3.22,3.22,0,0,1,2.72-1.86,44.17,44.17,0,0,1,4.87-.51,12.14,12.14,0,0,1,2,.24c1.17.23,1.44.61,1,1.7-.61,1.56-1.29,3.11-2,4.63-.85,1.83-1.78,3.63-2.65,5.46a2,2,0,0,1-1.87,1.31A35.73,35.73,0,0,1,259.1,220.09Z"/></g><g id="change4_1"><path fill="#bf4940" d="M79.77,196.33a3.05,3.05,0,0,1-.15.73,1.05,1.05,0,0,1-1.92.29,2.59,2.59,0,0,1-.49-1c-1-3.74-2.08-7.49-2.75-11.32a7.15,7.15,0,0,1-.11-1.72,1.06,1.06,0,0,1,.71-1,1.13,1.13,0,0,1,1.31.35,4.9,4.9,0,0,1,1,1.9,100.37,100.37,0,0,1,2.37,11.25C79.75,195.93,79.76,196.07,79.77,196.33Z"/></g><g id="change5_1"><path fill="#bf493f" d="M75.44,198.15a2.18,2.18,0,0,1-1.37-.53A33.35,33.35,0,0,1,68.33,191a2.59,2.59,0,0,1-.31-.65,1.18,1.18,0,0,1,.57-1.36,1.08,1.08,0,0,1,1.34,0,2.47,2.47,0,0,1,.53.49c1.91,2.41,3.92,4.74,5.59,7.33l.07.13a.83.83,0,0,1,.16.93C76.08,198.17,75.71,198.13,75.44,198.15Z"/></g><g id="change6_1"><path fill="#be493f" d="M291.24,190.65a4,4,0,0,1-1.51,1.42c-3.49,2.23-7,4.36-10.64,6.36-.51.27-1,.64-1.46.93a1,1,0,0,1-1.19-1.52,5.19,5.19,0,0,1,1.67-1.11c2.54-1.18,4.86-2.73,7.31-4.06a16.27,16.27,0,0,1,4.92-2A8.49,8.49,0,0,1,291.24,190.65Z"/></g><g id="change7_1"><path fill="#010000" d="M207.5,187.75a2.43,2.43,0,0,1-.24-.35c-1.16-2.86-4.19-3.32-6.64-1.76a11.25,11.25,0,0,0-3.19,3.11c-2.9,4.18-3.93,8.93-4.12,13.91a7.23,7.23,0,0,0,.89,3.76,3.33,3.33,0,0,0,4,1.8,4.69,4.69,0,0,0,2-1.17c.64-.57,1.31-1.1,2-1.65.23.22-.24.8.18,1.12,2.35-6.39,4.26-12.92,6.15-19.48C208,187.11,207.86,187.58,207.5,187.75Zm-7.63,8.61a17.91,17.91,0,0,1-1.6,5.66c-.62,1.44-1.3,2.86-2,4.37a3.86,3.86,0,0,1-1.33-2.88,22.43,22.43,0,0,1,1-8,15.84,15.84,0,0,1,.53-1.65,1.37,1.37,0,0,1,2.51-.48A3.79,3.79,0,0,1,199.87,196.36Z"/></g><g id="change7_2"><path fill="#010000" d="M127.7,200.14a6.07,6.07,0,0,0,4.16,2.66,3.24,3.24,0,0,0,1.42,0,10.83,10.83,0,0,0,6.19-3.17c1.35-1.44,3-2.56,4.16-4.19a28.75,28.75,0,0,0,2.64-4.8,1.08,1.08,0,0,0-.31-1.5,4.07,4.07,0,0,1-1.39-2.18c2,1.34,3.87,2.51,6.18,2.5a13,13,0,0,0,6.51-1.47c.29,1.66-.64,2.95-.82,4.39a35.11,35.11,0,0,1-.86,4.53,42.81,42.81,0,0,0-.77,4.49c-.45-.29-.51-.68-.7-1a13.67,13.67,0,0,0-1.34-1.88c-2.19-2.5-5.94-2.44-8.83-1.2a9.79,9.79,0,0,0-5,5.37c-.37.83-.7,1.68-1.09,2.51a7.15,7.15,0,0,1-1.91,2.52,4.52,4.52,0,0,1-6.05-.16A7.72,7.72,0,0,1,127.7,200.14Z"/></g><g id="change2_2"><path d="M90,210c-.59.46-.7,1.21-1.29,1.58-.17-1.75,3.85-15,5.28-17.36,0,1.55-.78,2.89-.66,4.42a35.67,35.67,0,0,1,2.62-2.86,4.19,4.19,0,0,1,1.26-.95c1-.43,1.7,0,1.73,1.13a5.4,5.4,0,0,1-.69,2.48,24.87,24.87,0,0,1-2.06,3.48c-.38.56-.77,1.11-1.11,1.69-.58,1-.57,1,.26,1.84,1,1,2,2,3,2.94a21.63,21.63,0,0,1,2.22,2.46c2,2.57.74,5.62-2.76,6.09-2.53.34-4.35-.86-5.79-2.8a8.83,8.83,0,0,1-1.33-2.72A3.37,3.37,0,0,0,90,210Z"/></g><g id="change7_3"><path fill="#010000" d="M161.31,219.38a20.17,20.17,0,0,1-5.73-10.32,14.18,14.18,0,0,0-.71-3.34c-.16.53-.28.93-.41,1.34a15.35,15.35,0,0,1-2,4.32c-1.75,2.59-3.33,5.29-5.3,7.74a21.87,21.87,0,0,1-5.74,5.2c-.24.14-.62.15-.59.67,3.61-1.7,7.51-2,11.34-2.6s7.66-1.3,11.83-1.06C163.05,220.54,162.08,220.11,161.31,219.38Zm-14.74,2.48a16.6,16.6,0,0,1,2.29-2.37,6.74,6.74,0,0,1,.82,2A18.22,18.22,0,0,1,146.57,221.86Z"/></g><g id="change8_1"><path fill="#020100" d="M132.21,186.72c-.33.7-1.12,1-1.4,1.84.47.13.79-.22,1.18-.29a1.94,1.94,0,0,1,2.52,1.54,7,7,0,0,1-1.95,6.76c-1.32,1.33-2.62,1.26-4.05,0-.23-.21-.29-.21-.52,0s-.32-.06-.39-.27C126.63,193,128.9,188.24,132.21,186.72Z"/></g><g id="change9_1"><path fill="#060201" d="M185.41,221.47a16.73,16.73,0,0,1-2.24,0c-2.49-.34-5-.18-7.49-.46a5.44,5.44,0,0,0-2.79.57,7.36,7.36,0,0,1-2.79.7,32.52,32.52,0,0,0,3.93-2.05,18.28,18.28,0,0,0,3.51-2.75,20.57,20.57,0,0,0,2.93-3.54c.26.08.19.23.12.31-.93,1.2-.44,2.25.35,3.25A14.71,14.71,0,0,0,185.41,221.47Z"/></g></svg>