<?xml version="1.0" encoding="UTF-8" standalone="no"?><svg xmlns="http://www.w3.org/2000/svg" xmlns:xlink="http://www.w3.org/1999/xlink" contentScriptType="text/ecmascript" fill="#000000" width="275.2" zoomAndPan="magnify" contentStyleType="text/css" viewBox="37.2 120.5 275.2 118.6" height="118.6" data-name="Layer 1" preserveAspectRatio="xMidYMid meet" version="1"><g><path fill="#ffffff" d="M104.07,239a10.22,10.22,0,0,1-9.47-5.88,37.44,37.44,0,0,1-9.61,3,27,27,0,0,1-4.47.37,38,38,0,0,1-7.39-.81,47.15,47.15,0,0,1-18.55-7.77,49.27,49.27,0,0,1-14.69-16.61A19.08,19.08,0,0,1,38,206.48a11,11,0,0,1,1.44-9A9.41,9.41,0,0,1,45,186.43a12.25,12.25,0,0,0,6-5.57l.68-1.18a23.1,23.1,0,0,0,1.67-3.15,10.2,10.2,0,0,1,3.54-4.68,10.29,10.29,0,0,1-1.33-8.61,9.49,9.49,0,0,1,.84-2,9.45,9.45,0,0,1,4.45-11.34A31.63,31.63,0,0,1,64.85,148a199.6,199.6,0,0,1,22-7.29C89.5,140,92,139.49,94.47,139l.79-.14a11.62,11.62,0,0,1,2.19-.22,10.23,10.23,0,0,1,7,2.67,9.91,9.91,0,0,1,3.42-.61c.35,0,.74,0,1.15.06.65.06,1.42.09,2.24.12L113,141c.71,0,1.36.06,2,.06a20.3,20.3,0,0,0,7.54-1.29l.15-.06a9.71,9.71,0,0,1,3.38-.62c.23-1,.47-1.92.75-2.88a8.37,8.37,0,0,1,.52-1.74l.07-.17.08-.17.19-.45c2.21-5.19,6-6.12,9.48-6.33a20.52,20.52,0,0,0,7.67-2.11l.11-.12.16-.17c.26-.29.52-.58.79-.85l.15-.15a9.67,9.67,0,0,1,16.34,7.39,14.28,14.28,0,0,1-.52,3.17,50.43,50.43,0,0,0-1.26,5.86,10.06,10.06,0,0,1,2.31.33,9.81,9.81,0,0,1,4.49,2.62,9.56,9.56,0,0,1,7.72-3.89,11.6,11.6,0,0,1,4.73,1.09,70.08,70.08,0,0,1,7.41,3.82,10.27,10.27,0,0,1,8.25-4h.75a48.15,48.15,0,0,1,6.29.42c.05-.54.35-3.38.35-3.38a8.54,8.54,0,0,1,.1-.9l0-.28.07-.28a9.78,9.78,0,0,1,9.6-7.94,10.26,10.26,0,0,1,4.19.9,63.76,63.76,0,0,0,12,3.35l2,.43a64.55,64.55,0,0,0,13.89,1.43c1.15,0,2.33,0,3.51-.08a77.13,77.13,0,0,0,12.4-1.34c.16,0,.35-.09.55-.14.48-.13,1-.26,1.46-.37a12.2,12.2,0,0,1,2.54-.28,9.9,9.9,0,0,1,7.25,3,10.11,10.11,0,0,1,2.73,6.25,9.28,9.28,0,0,1,4.05,3.25,12.62,12.62,0,0,1,5.85-6.19l1.84-.95a52.47,52.47,0,0,1,10.24-4.35,19.18,19.18,0,0,1,5.19-.71h.57A9.1,9.1,0,0,1,311.87,143a13.19,13.19,0,0,1-.77,2.69,10.62,10.62,0,0,1-.49,7.51c-1.53,3.73-2.88,7.51-4.31,11.51l-.67,1.86a39.48,39.48,0,0,0-1.63,9.19c-.31,3.13-.45,6.23-.59,9.52l-.13,2.62c0,.47-.06.94-.1,1.41a17,17,0,0,1,3.61,7.29A19.3,19.3,0,0,1,305,210a15.14,15.14,0,0,1-2.55,8.7,22.85,22.85,0,0,1-19.59,10.72h0c-.46,0-.93,0-1.41,0a15.85,15.85,0,0,1-11.59-5.93,10.24,10.24,0,0,1-2.91.42A11.6,11.6,0,0,1,259.5,221,17.77,17.77,0,0,1,256,217c-2,4.11-5.65,6.41-10.54,6.5a18.5,18.5,0,0,0-7.73,1.57,15.12,15.12,0,0,1-2.65,1,11.12,11.12,0,0,1-2.82.38,9.92,9.92,0,0,1-8.24-4.29,10.34,10.34,0,0,1-2.06.2,9.93,9.93,0,0,1-5.78-1.82h-.12c-.31,0-.63,0-1,0a11.89,11.89,0,0,1-5.37,5.11,37.88,37.88,0,0,0-6.91,5,29.72,29.72,0,0,1-2.44,1.94,10.84,10.84,0,0,1-6.22,2,9.9,9.9,0,0,1-7.54-3.53h-.05a10.48,10.48,0,0,1-7.28-3c-.66.51-1.34,1-2,1.48a11.31,11.31,0,0,1-6.59,2.15,11.6,11.6,0,0,1-5.53-1.43A42,42,0,0,1,160,227a9.89,9.89,0,0,1-9.07,5.39h-.61c-.78,0-1.54-.11-2.29-.18s-1.38-.13-1.88-.13H146l-4.79.16-2.37.08H138c-.38,0-.77,0-1.15,0h-.11a11.78,11.78,0,0,1-4.59-1.17,10.4,10.4,0,0,1-4.24.91,9.67,9.67,0,0,1-5.2-1.48,9.19,9.19,0,0,1-1.25.76c-1.35.69-2.8,1.53-4.33,2.43-2.11,1.23-4.29,2.5-6.69,3.64a14.83,14.83,0,0,1-5,1.53A11.13,11.13,0,0,1,104.07,239Z"/></g><g><path d="M302.71,140.69a10.91,10.91,0,0,0-3.26.39c-3.73,1-7.05,2.95-10.46,4.67a4.19,4.19,0,0,0-2.15,2.54c-.64,1.88-1.13,3.8-1.58,5.73a9.05,9.05,0,0,1-1.47,3.9,3.78,3.78,0,0,0-.45,1,40,40,0,0,0-1.95,6c-1.33,5.48-2.53,11-3.46,16.55-.13.83-.24,1.66-.35,2.49s-.22,1.57-.32,2.35a.79.79,0,0,1-.38-.47,72.3,72.3,0,0,1-3.91-16,100,100,0,0,1-.54-16.77c.05-.92.12-1.85.12-2.78,0-1.19-.73-1.63-1.85-1.19l-.48.22a65.17,65.17,0,0,1-6.69,2.8c-.27.1-.53.36-.86.13a3.08,3.08,0,0,1,.46-1.07c1-2.08,1.94-4.14,2.89-6.23a6.94,6.94,0,0,0,.72-2.53c.08-1.64-.67-2.31-2.26-2-.69.15-1.36.37-2.05.52a84,84,0,0,1-13.78,1.51,76.25,76.25,0,0,1-19.59-1.53c-5.28-1.15-10.6-2.13-15.61-4.31a1.36,1.36,0,0,0-2.06,1.11c0,.13,0,.26,0,.39-.27,2.59-.53,5.18-.82,7.77-.19,1.69-.21,3.4-.27,5.22l-2.91-.78a43.24,43.24,0,0,0-11.76-1.52,1.67,1.67,0,0,0-1.83,1.17c-1.07,3.12-2.17,6.23-3.25,9.35a2.06,2.06,0,0,1-.5,1v-3a2.2,2.2,0,0,0-1.19-2.05c-1.21-.72-2.39-1.49-3.59-2.24a68,68,0,0,0-8.81-4.77c-1.57-.69-2.11-.47-2.78,1.09-1.9,4.36-3.77,8.73-5.33,13.23a2.53,2.53,0,0,1-.49,1.14.56.56,0,0,1-.13-.09c-2.36-4.38-4.78-8.73-6-13.6a1.35,1.35,0,0,0-.94-1.15,1.32,1.32,0,0,0-1.41.51c-.19.24-.39.47-.59.71q-4.68,5.65-8.78,11.76c-.17.25-.26.61-.69.65.59-6.53,1.35-13,2.3-19.38a86,86,0,0,1,2.12-11,5.21,5.21,0,0,0,.2-1.17,1.09,1.09,0,0,0-.63-1.08,1.14,1.14,0,0,0-1.35.21c-.25.25-.48.52-.72.78a8.48,8.48,0,0,1-2.49,1.92,28.85,28.85,0,0,1-11,3c-2.06.13-1.68.13-2.5,1.89a2.45,2.45,0,0,0-.08.39c-1.67,5.74-2.37,11.65-3.13,17.55-.41,3.13-.75,6.28-1.12,9.41a4,4,0,0,1-.5-1.2,120.57,120.57,0,0,1-2.91-13.42,8.42,8.42,0,0,0-.54-2.17c-.3-.65-.67-.82-1.26-.6a30.28,30.28,0,0,1-13.1,1.81c-1.45-.08-2.9-.08-4.36-.22-1-.1-1.31.23-1.45,1.23a37.4,37.4,0,0,0-.18,4.36c-.07,2.8-.38,5.58-.58,8.38-.3-.06-.34-.26-.4-.4-1-2.49-2.2-4.9-3.33-7.34a17.5,17.5,0,0,1-1.09-2.82,20.57,20.57,0,0,0-1.83-4.23,2,2,0,0,0-2.48-1.19c-2.55.48-5.11.93-7.6,1.65a191.53,191.53,0,0,0-21.14,7,23.18,23.18,0,0,0-2.84,1.37c-.89.53-1,.91-.56,1.83a6.92,6.92,0,0,0,.48.79,18.63,18.63,0,0,1,1.9,3.85,7.42,7.42,0,0,1-2.11.85,1.66,1.66,0,0,0-.84,2.75A33.26,33.26,0,0,1,69,180.05c.35,2,.59,4.1.86,6.15.17,1.36.67,1.64,2,1.19a19.48,19.48,0,0,0,1.93-.85c3.4-1.66,6.7-3.54,10.19-5,.34-.14.65-.46,1.07-.3a12.69,12.69,0,0,1-1.29,10.2,6.28,6.28,0,0,1-8.28,2.43,20.82,20.82,0,0,1-8.57-8,38.63,38.63,0,0,1-3-6.16c-.21-.59-.52-1.14-1.29-1.13a1.35,1.35,0,0,0-1.23,1,40.51,40.51,0,0,1-2.9,5.49,20.73,20.73,0,0,1-10.07,9.18c-.68.29-.85.7-.55,1.61a27.72,27.72,0,0,0,1.67,3.74c.17.33.49.62.4,1.06a6.45,6.45,0,0,1-2,.79c-1.88.49-2,1.74-1.65,3a10.82,10.82,0,0,0,1.08,2.69,40.6,40.6,0,0,0,12.17,13.75,38.7,38.7,0,0,0,15.24,6.34,23.91,23.91,0,0,0,8.79.4A28.05,28.05,0,0,0,96.49,222c1.47-1.17,3-2.31,4.47-3.71,0,.4.06.6.07.81.08,1.63.12,3.26.24,4.89a22.53,22.53,0,0,0,.77,4.82,2,2,0,0,0,2.47,1.63,7.07,7.07,0,0,0,2.24-.76c3.74-1.78,7.19-4.11,10.87-6a1.7,1.7,0,0,0,.22-.15,2.45,2.45,0,0,0,1.2-2.59c-.06-.43-.11-.87-.2-1.3a8.74,8.74,0,0,1-.16-4l1.36-.33c.35-.1.72-.25.78-.63a6.26,6.26,0,0,0,.19-2.21c-.38-2-.69-4-1-6s-.27-2,1.64-2.83h.16a3.59,3.59,0,0,1,.35,1.11c1,4.69,1.83,9.43,3.15,14.05.33,1.14.67,2.28,1.09,3.4a1.58,1.58,0,0,0,2.61.91,5.18,5.18,0,0,0,1.12-.92c1.13-1.18,2.22-2.39,3.34-3.57.25-.26.45-.62,1-.69.07,1.22.09,2.37.22,3.5a2.3,2.3,0,0,0,2.52,2.33c.44,0,.88,0,1.32,0l7.14-.24c1.69-.06,3.35.23,5,.31,1.33.06,1.87-.38,2-1.7a12.68,12.68,0,0,0,0-1.85c-.12-1.27-.28-2.52-.43-3.79,2.19,0,2.65-.55,2.16-2.63a4.77,4.77,0,0,1-.13-.51,25.64,25.64,0,0,1-.64-3.79c.5.55.78.88,1.08,1.18,3.07,3,6.16,5.94,9.47,8.67a30.58,30.58,0,0,0,5.07,3.33,2.8,2.8,0,0,0,3.21-.18c.61-.43,1.22-.87,1.81-1.33,2.35-1.88,5.08-3.09,7.63-4.72a45.22,45.22,0,0,0,2.75,4.65c1.27,1.93,2.71,1.59,3.94.41.48-.45.92-1,1.41-1.4.33-.31.56-.77,1.15-1,.06.27.11.47.15.68a23.06,23.06,0,0,0,1.37,4.82c.63,1.47,1.62,1.76,2.94.85a21.72,21.72,0,0,0,1.76-1.41,47,47,0,0,1,8.5-6c1.93-1,2.54-1.86.83-4a12,12,0,0,1-1.7-2.63c1-.52,1.87-1,2.75-1.47a.79.79,0,0,1,.85,0,27.65,27.65,0,0,0,6.55,2,3.5,3.5,0,0,0,3.66-1.17c.44-.47.81-1,1.43-1.75,0,.76,0,1.23,0,1.69a14.12,14.12,0,0,0,.17,1.44,1.73,1.73,0,0,0,2.67,1.5,15.58,15.58,0,0,0,2.4-1.39,25.85,25.85,0,0,1,4.78-2.62c.16.53.09,1.14.53,1.37.77.4.54,1,.41,1.55a14.17,14.17,0,0,0-.45,3.66,1.62,1.62,0,0,0,2.23,1.66,6.53,6.53,0,0,0,1.11-.43A26.73,26.73,0,0,1,245.31,215c2,0,2.77-.61,3.37-2.51a46.71,46.71,0,0,1,1.65-4.46c.73-1.65,1.53-3.27,2.21-4.95a1.26,1.26,0,0,1,1-.88,35.3,35.3,0,0,1,5.21-.82c.88-.09,1.09-.27,1.19,1a21.42,21.42,0,0,0,2.85,9.4,9.89,9.89,0,0,0,2.16,2.65c1.58,1.31,2.52,1.3,4-.11a48.14,48.14,0,0,1,4.46-3.73,3.38,3.38,0,0,1,1.53-.86,20.25,20.25,0,0,0-.34,3.44,7.84,7.84,0,0,0,7.26,7.75,14.34,14.34,0,0,0,13.44-6.85,6.37,6.37,0,0,0,1.08-4.66,2.9,2.9,0,0,1,.45-2.3,11,11,0,0,0,1.65-8.59,8.12,8.12,0,0,0-5-5.94c-.3-.13-.8-.13-.85-.5a9.6,9.6,0,0,0-.26-1.42c-.05-.18.19-.27.35-.33a3.87,3.87,0,0,1,.87-.29,1.17,1.17,0,0,0,1-1.18c.06-.48.09-1,.12-1.45.2-4.14.33-8.28.74-12.41a46.59,46.59,0,0,1,2.09-11.27c1.65-4.6,3.26-9.21,5.12-13.74.68-1.65.33-2.27-1.4-2.57.59-1.53,1.18-3,1.75-4.57a6.33,6.33,0,0,0,.39-1.26C303.6,140.94,303.38,140.71,302.71,140.69Zm-141,47.72a39.4,39.4,0,0,1-3.86-3.07,54.05,54.05,0,0,1,5.86-7.46C163.07,181.36,162.15,184.77,161.7,188.41Z"/></g><g><path fill="#fcb958" d="M73,176.9a52,52,0,0,0-5.83-18.19.49.49,0,0,1,.33-.29,173,173,0,0,1,27.13-8.67,5.57,5.57,0,0,1,2.57-.35c.76.28.8,1.47,1.18,2.25a129.93,129.93,0,0,1,7.14,17.62,58,58,0,0,1,2.9,19.53,29.39,29.39,0,0,1-6.56,18.08,27.63,27.63,0,0,1-17.25,10.23c-6.38,1-12.66.62-18.48-2.64a27.56,27.56,0,0,1-5.2-3.85A45.65,45.65,0,0,1,51,198.17c-.3-.58-.83-1.21-.7-1.81s1-.74,1.57-1.06a23.52,23.52,0,0,0,8.66-8.91c.71-1.26,1.39-2.53,2.14-3.89.83,1.55,1.58,3,2.36,4.4A22.05,22.05,0,0,0,74.7,196a7.69,7.69,0,0,0,8-.47A13.94,13.94,0,0,0,87.89,190a24.7,24.7,0,0,0,2.3-16.44,13.75,13.75,0,0,0-1.37-3.42c-.27-.53-.59-.53-1.07-.34a86.46,86.46,0,0,0-9.27,4.15C76.72,174.92,74.93,175.85,73,176.9Z"/></g><g><path fill="#fcb958" d="M150.55,134.61c-.32,1.75-.63,3.43-.92,5.12-1.14,6.65-1.95,13.34-2.65,20a33.78,33.78,0,0,0,.08,8.7c.05.33,0,.71.36,1a26.12,26.12,0,0,0,2.82-3.63,139.23,139.23,0,0,1,8.48-12,3.39,3.39,0,0,1,.88-1c.39.17.39.56.52.86A92.56,92.56,0,0,0,165.06,164c.58,1,.59,1-.27,1.86-2,1.95-3.95,3.9-5.81,6-1.42,1.58-2.83,3.15-4.15,4.81-.9,1.13-2.06,2-2.89,3.26s-1,1.23,0,2.51a29.5,29.5,0,0,0,4.18,4.4,118.73,118.73,0,0,0,27.21,17.63l1.23.6c-.25.45-.69.55-1,.73a107.69,107.69,0,0,0-10.9,6.46,2.09,2.09,0,0,1-2.73,0,105.26,105.26,0,0,1-12.36-9.72c-2.13-2-4.26-4.09-6.22-6.31a6,6,0,0,0-.84-.83,1.26,1.26,0,0,0-2.08.86,6,6,0,0,0,.13,2.24c.8,3.56,1.6,7.13,2.37,10.71.32,1.49.59,3,.88,4.49-.38.28-.73.13-1.07.08A62.69,62.69,0,0,0,139,212.51a.84.84,0,0,1-1-.79c-.2-1-.43-2.06-.68-3.09-.12-.47.22-.63.46-.85a32.72,32.72,0,0,1,5.58-4.22c.26-.16.55-.29.8-.46a1,1,0,0,0,.44-1.37c-.22-.53-.45-1.06-.68-1.58-3.88-8.93-7.72-17.87-10.82-27.11a6.1,6.1,0,0,1-.32-2.32,221.38,221.38,0,0,1,3.63-28.7c.21-1.13.56-2.22.85-3.33a.69.69,0,0,1,.71-.63,29.09,29.09,0,0,0,12.22-3.46S150.32,134.6,150.55,134.61Z"/></g><g><path fill="#fcb958" d="M129.69,212.59a113.18,113.18,0,0,1-4.14-14.12c-.3-1.55-1.08-3-1.3-4.56-.07-.46-.43-.51-.8-.52a2.71,2.71,0,0,0-1.48.5c-1.58,1-3.14,2-4.7,3a1.57,1.57,0,0,0-.71,1.8c.36,2.08.55,4.19.79,6.29s.6,4.46,1.07,6.66c.14.67.09,1.12-.65,1.48-4,2-7.9,4.07-11.77,6.27a2,2,0,0,1-.84.33c-.27-.34-.16-.7-.17-1-.11-3.62-.37-7.23-.34-10.85a3,3,0,0,1,.49-1.73,34,34,0,0,0,5.5-20.07A66.4,66.4,0,0,0,108,169.72a5.47,5.47,0,0,1-.18-1.81c.23-5.11.89-10.19.88-15.31,0-1.14,0-1.15,1.18-1.09,1.76.1,3.51.29,5.28.28a32.4,32.4,0,0,0,9.13-1.31c.29-.09.58-.16,1-.26.26,1.74.48,3.43.76,5.11a128.23,128.23,0,0,0,5,18.89c3,9,6.74,17.61,10.55,26.23a6,6,0,0,0,.35.72c.23.4.08.64-.28.86-.63.39-1.27.79-1.88,1.22a58.4,58.4,0,0,0-9,8.35A3.14,3.14,0,0,1,129.69,212.59Z"/></g><g><path fill="#fcb958" d="M264.06,143.11a51.21,51.21,0,0,1-2.48,5.46c-2.55,5.13-5.15,10.23-7.7,15.36a1.9,1.9,0,0,1-1.64,1.22,24.75,24.75,0,0,1-9.2-.06,3.5,3.5,0,0,0-.65-.07,1.87,1.87,0,0,0-2.34,1.43,21.1,21.1,0,0,0-.89,2.9c-1.29,5.31-2.24,10.69-3.14,16.08-.63,3.74-1,7.51-1.34,11.29,0,.48,0,.93-.65,1.14-3.1,1-6,2.56-9,3.85-.2.09-.41.16-.62.24-.31-.8.17-1.5.15-2.23,0-1.81,0-3.62-.06-5.43a5.29,5.29,0,0,1,.68-2.91,6.24,6.24,0,0,0,.53-1.34,1.33,1.33,0,0,0-.49-1.65,1.28,1.28,0,0,1-.61-1.3A61.79,61.79,0,0,1,227,172c.51-2,1-4,1.46-6,.17-.68.44-1.34.62-2,.27-1-.05-1.71-1.1-1.81a4.67,4.67,0,0,1-3.56-2.32c-2-2.94-5-4.8-8.17-6.32a28.71,28.71,0,0,0-3-1.27,1,1,0,0,1-.77-1.16c.24-2.63.44-5.27.69-7.9.11-1.18.3-2.35.49-3.72C230.07,145.07,246.78,146.79,264.06,143.11Z"/></g><g><path fill="#fcb958" d="M222.77,190.86a69.7,69.7,0,0,0-4.53,11.38c-.31,1-.34.95-1.29.69a21.13,21.13,0,0,1-4.37-1.82c-2.69-1.42-5.37-2.86-8.05-4.28-.77-.4-1.58-1-2.45-.32s-.61,1.69-.41,2.57a20.64,20.64,0,0,0,3.65,7.86c.23.31.46.64.69,1a1.47,1.47,0,0,1,.06.23A47.9,47.9,0,0,0,195.89,215a31.22,31.22,0,0,1-1.16-4.17,5.7,5.7,0,0,0-.33-1.41c-.63-1.09-.09-1.71.72-2.37,1.45-1.21,2.77-2.58,4.28-3.74,1-.78,1.09-1.19.51-2.38a95.22,95.22,0,0,1-5.32-12.37,93.89,93.89,0,0,1-3.93-18.32,13.36,13.36,0,0,1,.35-4.68,121.84,121.84,0,0,1,4.22-13.49,1.17,1.17,0,0,1,1.35-.91,46.92,46.92,0,0,1,20.62,5.54,16.58,16.58,0,0,1,6.07,5.58,11,11,0,0,1-.47,12.64,20.17,20.17,0,0,1-3.9,3.93,69,69,0,0,1-11.24,6.92,5.5,5.5,0,0,0-1,.57,1.29,1.29,0,0,0,0,2.14,3.72,3.72,0,0,0,1.43.65,40.87,40.87,0,0,0,8.22,1.27,33.24,33.24,0,0,0,5.28.12A2.18,2.18,0,0,1,222.77,190.86Z"/></g><g><path fill="#fcb958" d="M270.32,151.45a7.78,7.78,0,0,1-.11,2.1,92.46,92.46,0,0,0,1.49,22.65A118.66,118.66,0,0,0,275.51,189a29.92,29.92,0,0,0,4.22,8.53c-4,2.54-8.18,4.51-11.56,7.79-.52-.22-.64-.73-.88-1.12a24.47,24.47,0,0,1-3.37-7.71c-.29-1.24-.45-2.51-.68-3.77-.26-1.49-.6-1.78-2.09-1.8-2.39,0-4.76.21-7.14.32a2.12,2.12,0,0,0-1.51.71,10.3,10.3,0,0,0-1.36,1.79,36.22,36.22,0,0,0-4.95,11.19c-.2.86-.54,1.24-1.48,1.27a43.87,43.87,0,0,0-7.73.93,23.06,23.06,0,0,0-4.1,1.15,8.2,8.2,0,0,1,.32-3.09c.31-1.47.72-2.91,1-4.37a.76.76,0,0,1,.69-.66,2.64,2.64,0,0,0,2.19-2.86c.06-1.71.37-3.42.5-5.13a9.1,9.1,0,0,1,1.34-3.84c1.68-2.9,3-6,4.48-9,1.86-3.6,3.73-7.19,5.59-10.8a1,1,0,0,1,.9-.61c1-.07,2-.27,3-.32a3.17,3.17,0,0,0,2.93-2.06c1.57-3.3,3.27-6.54,4.89-9.83a2,2,0,0,1,1.41-1.2,42.56,42.56,0,0,0,7.15-2.71A1.81,1.81,0,0,1,270.32,151.45Z"/></g><g><path fill="#fcb958" d="M186.91,211.71c-.76-1.3-1.13-2.75-2.26-3.89l1.62-.93c.3-.18.63-.32.92-.51,1.19-.77,1.18-1.77-.06-2.42s-2.43-1.26-3.69-1.78a1.71,1.71,0,0,1-1.16-1.68c-.27-3.12-.7-6.22-.85-9.35-.06-1.21-.7-1.64-1.85-1.28-.42.13-.8.37-1.23.47-1.76.41-2.39,1.6-2.39,3.3a14.56,14.56,0,0,0,.36,4.8c-.72-.42-1.24-.71-1.74-1-3.46-2.2-6.92-4.4-10.21-6.84-1.16-.86-1.17-.86-.86-2.4,1.14-5.62,2.6-11.15,4.16-16.65a148.55,148.55,0,0,1,7.45-20.47,1.82,1.82,0,0,1,.56-.85c1.36.69,2.79,1.36,4.16,2.13,2.18,1.25,4.34,2.52,6.46,3.87,1.94,1.23,1.55.54,1.53,2.77a95.19,95.19,0,0,0,4.2,29.18,68.4,68.4,0,0,0,4.6,11.09c.3.59.58,1.19.92,1.76a.8.8,0,0,1-.21,1.21c-3.43,3-6.86,6.09-10.08,9.36C187.21,211.63,187.11,211.64,186.91,211.71Z"/></g><g><path fill="#fcb958" d="M282.32,192.53a37.72,37.72,0,0,1,0-6.47c.25-4.26.62-8.52,1.24-12.75.79-5.45,1.88-10.84,3.09-16.21.61-2.71,1.21-5.41,2-8.07a2.81,2.81,0,0,1,1.56-1.81,76.9,76.9,0,0,1,9.55-4.49l1.16-.4a.43.43,0,0,1,0,.56,82.87,82.87,0,0,0-5.64,18A127.88,127.88,0,0,0,292.68,187a1.3,1.3,0,0,1-.93,1.46c-2.15.88-4.25,1.89-6.37,2.87A20.53,20.53,0,0,1,282.32,192.53Z"/></g><g><path fill="#fcb958" d="M296.44,200.76a10.38,10.38,0,0,1-9.43,10,6,6,0,0,1-6.5-5c-1.08-5.4,3.78-11.43,9.3-11.61A6.21,6.21,0,0,1,296.44,200.76Z"/></g><g><path fill="#150f06" d="M98.63,167.26a1.25,1.25,0,0,1-1.38,1.24A1.34,1.34,0,0,1,96,167.12a1.28,1.28,0,0,1,1.31-1.32A1.35,1.35,0,0,1,98.63,167.26Z"/></g><g><path fill="#251c0c" d="M93.2,191.91a1,1,0,0,1-1-1.12,1,1,0,0,1,1-.95,1,1,0,0,1,1,1.11A1.08,1.08,0,0,1,93.2,191.91Z"/></g><g><path fill="#251a0c" d="M97.89,164.67a1,1,0,0,1-1-.88,1,1,0,0,1,.91-1.07,1,1,0,0,1,1,.87A1.07,1.07,0,0,1,97.89,164.67Z"/></g><g><path fill="#2a2313" d="M69.34,197.49c0,.37-.33.86-.71.82a.55.55,0,0,1-.52-.63.61.61,0,0,1,.66-.66C69,197,69.33,197,69.34,197.49Z"/></g><g><path fill="#43341d" d="M70.3,194.9a.48.48,0,0,1,.56.41c0,.34-.1.62-.47.64a.51.51,0,0,1-.57-.55A.47.47,0,0,1,70.3,194.9Z"/></g><g><path fill="#4d3a22" d="M74.79,200a.43.43,0,0,1-.43.49.47.47,0,0,1-.52-.45.45.45,0,0,1,.44-.52C74.56,199.52,74.75,199.69,74.79,200Z"/></g><g><path fill="#1a1409" d="M154.19,188.19a.88.88,0,0,1,.09,1.75.8.8,0,0,1-.91-.74A.89.89,0,0,1,154.19,188.19Z"/></g><g><path fill="#2a2011" d="M147.83,203.93a.53.53,0,0,1-.53.6.49.49,0,0,1-.6-.5.52.52,0,0,1,.51-.61A.55.55,0,0,1,147.83,203.93Z"/></g><g><path fill="#524026" d="M147.72,184.36c.13,0,.27.16.28.37a.32.32,0,0,1-.3.34c-.27.05-.39-.13-.4-.34S147.37,184.4,147.72,184.36Z"/></g><g><path fill="#020201" d="M116.76,179.28c.4,0,.42.39.52.65a43.3,43.3,0,0,0,3.1,6c.42.72.84,1.44,1.3,2.14.3.44.25.65-.28.84a22.77,22.77,0,0,0-5.07,2.5c-.5.33-.81.2-1-.37a3.3,3.3,0,0,1-.08-1,58.68,58.68,0,0,1,.87-9.45,8.86,8.86,0,0,1,.21-.89A.5.5,0,0,1,116.76,179.28Z"/></g><g><path fill="#1f1608" d="M131.09,179.58a1.39,1.39,0,0,1-1.36,1.34,1.27,1.27,0,1,1-.11-2.54A1.33,1.33,0,0,1,131.09,179.58Z"/></g><g><path fill="#4f3b1f" d="M131.23,182.6c0,.36-.2.59-.56.58a.52.52,0,0,1-.52-.5.53.53,0,0,1,.57-.58C131,182.09,131.19,182.3,131.23,182.6Z"/></g><g><path fill="#3c2e1a" d="M236.71,155.34a1,1,0,0,1-.92.93.54.54,0,0,1-.58-.56.94.94,0,0,1,.9-.93A.62.62,0,0,1,236.71,155.34Z"/></g><g><path fill="#010100" d="M200.24,180.55a23.72,23.72,0,0,1,.93-5,35,35,0,0,1,2.65-6.61c.42-.84.5-.86,1.45-.6,2.86.77,3.81,3.19,2.07,5.58a33.1,33.1,0,0,1-6,6.34C201.08,180.51,200.78,180.79,200.24,180.55Z"/></g><g><path fill="#1d160a" d="M217.17,174.63a1.09,1.09,0,0,1-1,1.17,1.35,1.35,0,0,1-1.34-1.35,1.21,1.21,0,0,1,1.13-1.23C216.66,173.17,217.15,173.73,217.17,174.63Z"/></g><g><path fill="#3c2e1a" d="M214.82,179.37c-.43,0-.77-.06-.77-.47s.3-.38.58-.39.55.09.58.4S215,179.34,214.82,179.37Z"/></g><g><path fill="#020101" d="M261.34,184.68c0,.32,0,.54,0,.76,0,.48-.22.8-.81.8a42,42,0,0,0-6,.59c-.62.1-.91-.25-.74-.84a2.35,2.35,0,0,1,.3-.59,63.45,63.45,0,0,0,4.87-10.35c.13-.37.09-1,.66-1s.64.69.7,1.15c.3,2.35.57,4.71.83,7.07C261.22,183.12,261.28,184,261.34,184.68Z"/></g><g><path fill="#181107" d="M252.16,177.43a5.94,5.94,0,0,1,.22-.74,1.17,1.17,0,0,1,1.15-.7c.63,0,1.2.89,1.19,1.78a1.26,1.26,0,0,1-1.23,1.27C252.73,179.05,252.16,178.41,252.16,177.43Z"/></g><g><path fill="#312515" d="M263.32,170.93c0,.32-.18.51-.49.51a.52.52,0,0,1-.6-.53.5.5,0,0,1,.55-.57C263.16,170.35,263.3,170.6,263.32,170.93Z"/></g><g><path fill="#49351d" d="M266,177.6c0,.27-.11.43-.37.44s-.43-.08-.44-.34a.4.4,0,0,1,.37-.43C265.82,177.22,265.93,177.41,266,177.6Z"/></g><g><path fill="#020101" d="M175.55,184.64a19,19,0,0,1,1.77-7.45c.29-.61.51-1.45,1.42-1.32s.83,1,.9,1.68c.21,2,.37,4.11.73,6.16.27,1.52.14,1.67-1.27,2.3-.64.28-1.26.63-1.92.87-1.24.47-1.72.1-1.69-1.23C175.49,185.38,175.52,185.12,175.55,184.64Z"/></g><g><path fill="#181006" d="M185.67,173.81a1.68,1.68,0,0,1-1.63,1.4,1.23,1.23,0,0,1-1-1.29,1.5,1.5,0,0,1,1.43-1.41A1.36,1.36,0,0,1,185.67,173.81Z"/></g><g><path fill="#524129" d="M185.63,177.21c.39,0,.55.15.59.37a.28.28,0,0,1-.29.35.48.48,0,0,1-.46-.39A.26.26,0,0,1,185.63,177.21Z"/></g></svg>