<?xml version="1.0" encoding="UTF-8" standalone="no"?><svg xmlns="http://www.w3.org/2000/svg" xmlns:xlink="http://www.w3.org/1999/xlink" contentScriptType="text/ecmascript" fill="#000000" width="1100.4" zoomAndPan="magnify" contentStyleType="text/css" viewBox="0.0 0.0 1100.4 1100.4" height="1100.4" preserveAspectRatio="xMidYMid meet" version="1"><defs><clipPath id="a"><path d="M 0 0 L 1100.359375 0 L 1100.359375 1100.371094 L 0 1100.371094 Z M 0 0"/></clipPath></defs><g><g id="change1_2"><path fill="#7b6406" d="M 550.183594 1036.800781 C 281.859375 1036.800781 63.5625 818.507812 63.5625 550.183594 C 63.5625 281.859375 281.859375 63.558594 550.183594 63.558594 C 818.507812 63.558594 1036.800781 281.859375 1036.800781 550.183594 C 1036.800781 818.507812 818.507812 1036.800781 550.183594 1036.800781 Z M 938.867188 161.5 C 835.046875 57.679688 697.007812 0.5 550.183594 0.5 C 403.355469 0.5 265.320312 57.679688 161.5 161.5 C 57.675781 265.320312 0.5 403.355469 0.5 550.183594 C 0.5 697.007812 57.675781 835.046875 161.5 938.867188 C 265.320312 1042.691406 403.355469 1099.871094 550.183594 1099.871094 C 697.007812 1099.871094 835.046875 1042.691406 938.867188 938.867188 C 1042.691406 835.046875 1099.859375 697.007812 1099.859375 550.183594 C 1099.859375 403.355469 1042.691406 265.320312 938.867188 161.5"/></g><g id="change1_1" clip-path="url(#a)"><path fill="#7b6406" d="M 550.183594 64.058594 C 282.136719 64.058594 64.0625 282.136719 64.0625 550.183594 C 64.0625 818.230469 282.136719 1036.300781 550.183594 1036.300781 C 818.230469 1036.300781 1036.300781 818.230469 1036.300781 550.183594 C 1036.300781 282.136719 818.230469 64.058594 550.183594 64.058594 Z M 550.183594 1037.300781 C 281.582031 1037.300781 63.0625 818.78125 63.0625 550.183594 C 63.0625 281.582031 281.582031 63.058594 550.183594 63.058594 C 818.78125 63.058594 1037.300781 281.582031 1037.300781 550.183594 C 1037.300781 818.78125 818.78125 1037.300781 550.183594 1037.300781 Z M 550.183594 1 C 403.492188 1 265.578125 58.128906 161.851562 161.851562 C 58.125 265.578125 1 403.492188 1 550.183594 C 1 696.875 58.125 834.785156 161.851562 938.511719 C 265.578125 1042.238281 403.492188 1099.371094 550.183594 1099.371094 C 696.875 1099.371094 834.785156 1042.238281 938.511719 938.511719 C 1042.238281 834.785156 1099.359375 696.875 1099.359375 550.183594 C 1099.359375 403.492188 1042.238281 265.578125 938.511719 161.851562 C 834.785156 58.128906 696.875 1 550.183594 1 Z M 550.183594 1100.371094 C 403.222656 1100.371094 265.0625 1043.140625 161.144531 939.222656 C 57.230469 835.304688 0 697.144531 0 550.183594 C 0 403.222656 57.230469 265.0625 161.144531 161.144531 C 265.058594 57.230469 403.222656 0 550.183594 0 C 697.140625 0 835.304688 57.230469 939.222656 161.144531 C 1043.140625 265.0625 1100.359375 403.226562 1100.359375 550.183594 C 1100.359375 697.140625 1043.140625 835.304688 939.222656 939.222656 C 835.304688 1043.140625 697.140625 1100.371094 550.183594 1100.371094"/></g><g id="change1_3"><path fill="#7b6406" d="M 807.703125 346.1875 L 292.660156 346.1875 C 275.246094 346.1875 261.132812 360.304688 261.132812 377.71875 C 261.132812 395.132812 275.246094 409.246094 292.660156 409.246094 L 807.703125 409.246094 C 825.117188 409.246094 839.234375 395.132812 839.234375 377.71875 C 839.234375 360.304688 825.117188 346.1875 807.703125 346.1875"/></g><g id="change1_4"><path fill="#7b6406" d="M 292.660156 346.6875 C 275.550781 346.6875 261.632812 360.605469 261.632812 377.71875 C 261.632812 394.828125 275.550781 408.746094 292.660156 408.746094 L 807.703125 408.746094 C 824.8125 408.746094 838.734375 394.828125 838.734375 377.71875 C 838.734375 360.605469 824.8125 346.6875 807.703125 346.6875 Z M 807.703125 409.746094 L 292.660156 409.746094 C 275 409.746094 260.632812 395.378906 260.632812 377.71875 C 260.632812 360.054688 275 345.6875 292.660156 345.6875 L 807.703125 345.6875 C 825.367188 345.6875 839.734375 360.054688 839.734375 377.71875 C 839.734375 395.378906 825.367188 409.746094 807.703125 409.746094"/></g><g id="change1_5"><path fill="#7b6406" d="M 807.703125 518.652344 L 292.660156 518.652344 C 275.246094 518.652344 261.132812 532.769531 261.132812 550.183594 C 261.132812 567.597656 275.246094 581.714844 292.660156 581.714844 L 807.703125 581.714844 C 825.117188 581.714844 839.234375 567.597656 839.234375 550.183594 C 839.234375 532.769531 825.117188 518.652344 807.703125 518.652344"/></g><g id="change1_6"><path fill="#7b6406" d="M 292.660156 519.152344 C 275.550781 519.152344 261.632812 533.074219 261.632812 550.183594 C 261.632812 567.292969 275.550781 581.214844 292.660156 581.214844 L 807.703125 581.214844 C 824.8125 581.214844 838.734375 567.292969 838.734375 550.183594 C 838.734375 533.074219 824.8125 519.152344 807.703125 519.152344 Z M 807.703125 582.214844 L 292.660156 582.214844 C 275 582.214844 260.632812 567.84375 260.632812 550.183594 C 260.632812 532.519531 275 518.152344 292.660156 518.152344 L 807.703125 518.152344 C 825.367188 518.152344 839.734375 532.519531 839.734375 550.183594 C 839.734375 567.84375 825.367188 582.214844 807.703125 582.214844"/></g><g id="change1_7"><path fill="#7b6406" d="M 807.703125 691.117188 L 292.660156 691.117188 C 275.246094 691.117188 261.132812 705.234375 261.132812 722.648438 C 261.132812 740.0625 275.246094 754.179688 292.660156 754.179688 L 807.703125 754.179688 C 825.117188 754.179688 839.234375 740.0625 839.234375 722.648438 C 839.234375 705.234375 825.117188 691.117188 807.703125 691.117188"/></g><g id="change1_8"><path fill="#7b6406" d="M 292.660156 691.617188 C 275.550781 691.617188 261.632812 705.539062 261.632812 722.648438 C 261.632812 739.757812 275.550781 753.679688 292.660156 753.679688 L 807.703125 753.679688 C 824.8125 753.679688 838.734375 739.757812 838.734375 722.648438 C 838.734375 705.539062 824.8125 691.617188 807.703125 691.617188 Z M 807.703125 754.679688 L 292.660156 754.679688 C 275 754.679688 260.632812 740.308594 260.632812 722.648438 C 260.632812 704.988281 275 690.617188 292.660156 690.617188 L 807.703125 690.617188 C 825.367188 690.617188 839.734375 704.988281 839.734375 722.648438 C 839.734375 740.308594 825.367188 754.679688 807.703125 754.679688"/></g></g></svg>