<?xml version="1.0" encoding="UTF-8" standalone="no"?><svg xmlns="http://www.w3.org/2000/svg" xmlns:xlink="http://www.w3.org/1999/xlink" contentScriptType="text/ecmascript" zoomAndPan="magnify" contentStyleType="text/css" version="1" width="337" stroke-miterlimit="2" clip-rule="evenodd" fill="#000000" preserveAspectRatio="xMidYMid meet" viewBox="-0.0 0.0 337.0 151.1" height="151.1" stroke-linejoin="round" fill-rule="evenodd"><g><g id="change1_1"><path fill="#ff9999" d="M335.985,133.248c-4.287,12.169 -24.885,16.883 -35.249,16.883c-10.364,0 -18.166,-9.883 -27.249,-9.883c-9.083,-0 -16.885,9.883 -27.249,9.883c-10.363,0 -18.166,-9.883 -27.249,-9.883c-9.083,-0 -16.885,9.883 -27.248,9.883c-10.364,0 -18.166,-9.883 -27.249,-9.883c-9.083,-0 -16.886,9.883 -27.249,9.883c-10.364,0 -18.166,-9.883 -27.249,-9.883c-9.083,-0 -16.885,9.883 -27.249,9.883c-10.364,0 -18.166,-9.883 -27.249,-9.883c-9.083,-0 -16.885,9.883 -27.249,9.883c-10.363,0 -19.866,-12.714 -27.249,-18.883c0,-0 0,9 0,-112.366c7.383,-6.169 16.886,-9.884 27.249,-9.884c10.364,0 18.166,9.884 27.249,9.884c9.083,-0 16.885,-9.884 27.249,-9.884c10.364,0 18.166,9.884 27.249,9.884c9.083,-0 16.885,-9.884 27.249,-9.884c10.363,0 18.166,9.884 27.249,9.884c9.083,-0 16.885,-9.884 27.249,-9.884c10.363,0 18.165,9.884 27.248,9.884c9.083,-0 16.886,-9.884 27.249,-9.884c10.364,0 18.166,9.884 27.249,9.884c9.083,-0 16.885,-9.884 27.249,-9.884c10.364,0 27.867,3.715 35.249,9.884l-0,114.366Z"/></g><g id="change2_1"><path fill="inherit" d="M0,131.257l0,-0.044l0,-112.331c0,-0.296 0.131,-0.576 0.358,-0.766c7.556,-6.314 17.282,-10.116 27.889,-10.116c5.357,0 10.066,2.516 14.595,5.071c4.224,2.382 8.276,4.813 12.654,4.813c4.379,-0 8.43,-2.431 12.654,-4.813c4.529,-2.555 9.238,-5.071 14.595,-5.071c5.357,0 10.066,2.516 14.595,5.071c4.224,2.382 8.275,4.813 12.654,4.813c4.378,-0 8.43,-2.431 12.654,-4.813c4.529,-2.555 9.238,-5.071 14.595,-5.071c5.357,0 10.065,2.516 14.595,5.071c4.224,2.382 8.275,4.813 12.654,4.813c4.378,-0 8.429,-2.431 12.653,-4.813c4.53,-2.555 9.238,-5.071 14.596,-5.071c5.357,0 10.065,2.516 14.595,5.071c4.224,2.382 8.275,4.813 12.653,4.813c4.379,-0 8.43,-2.431 12.654,-4.813c4.53,-2.555 9.238,-5.071 14.595,-5.071c5.357,0 10.066,2.516 14.595,5.071c4.224,2.382 8.276,4.813 12.654,4.813c4.379,-0 8.43,-2.431 12.654,-4.813c4.53,-2.555 9.238,-5.071 14.595,-5.071c10.556,0 28.37,3.832 35.889,10.116c0.227,0.19 0.358,0.47 0.358,0.766l0,114.366c0,0.113 -0.019,0.225 -0.056,0.331c-1.795,5.095 -6.285,8.977 -11.765,11.759c-8.001,4.061 -18.09,5.792 -24.426,5.792c-5.357,-0 -10.065,-2.517 -14.595,-5.071c-4.224,-2.382 -8.275,-4.813 -12.654,-4.813c-4.378,-0 -8.43,2.431 -12.654,4.813c-4.529,2.554 -9.238,5.071 -14.595,5.071c-5.357,-0 -10.065,-2.517 -14.595,-5.071c-4.224,-2.382 -8.275,-4.813 -12.654,-4.813c-4.378,-0 -8.429,2.431 -12.653,4.813c-4.53,2.554 -9.238,5.071 -14.595,5.071c-5.358,-0 -10.066,-2.517 -14.596,-5.071c-4.224,-2.382 -8.275,-4.813 -12.653,-4.813c-4.379,-0 -8.43,2.431 -12.654,4.813c-4.53,2.554 -9.238,5.071 -14.595,5.071c-5.357,-0 -10.066,-2.517 -14.595,-5.071c-4.224,-2.382 -8.276,-4.813 -12.654,-4.813c-4.379,-0 -8.43,2.431 -12.654,4.813c-4.529,2.554 -9.238,5.071 -14.595,5.071c-5.357,-0 -10.066,-2.517 -14.595,-5.071c-4.224,-2.382 -8.275,-4.813 -12.654,-4.813c-4.378,-0 -8.43,2.431 -12.654,4.813c-4.529,2.554 -9.238,5.071 -14.595,5.071c-4.347,-0 -8.566,-2.095 -12.541,-5.07c-5.018,-3.756 -9.656,-8.911 -13.725,-12.623c-1.28,-0.261 -1.979,-0.718 -1.981,-2.179l0,-0.001l0,0Zm1.997,-0.472l-0,-111.433c7.157,-5.847 16.297,-9.355 26.25,-9.355c5.007,-0 9.381,2.425 13.615,4.813c4.538,2.559 8.929,5.07 13.634,5.07c4.705,0 9.096,-2.511 13.635,-5.07c4.233,-2.388 8.607,-4.813 13.614,-4.813c5.007,-0 9.381,2.425 13.614,4.813c4.539,2.559 8.93,5.07 13.635,5.07c4.705,0 9.096,-2.511 13.634,-5.07c4.234,-2.388 8.608,-4.813 13.615,-4.813c5.006,-0 9.381,2.425 13.614,4.813c4.539,2.559 8.93,5.07 13.635,5.07c4.704,0 9.095,-2.511 13.634,-5.07c4.234,-2.388 8.608,-4.813 13.615,-4.813c5.006,-0 9.381,2.425 13.614,4.813c4.539,2.559 8.93,5.07 13.634,5.07c4.705,0 9.096,-2.511 13.635,-5.07c4.233,-2.388 8.608,-4.813 13.614,-4.813c5.007,-0 9.381,2.425 13.615,4.813c4.538,2.559 8.93,5.07 13.634,5.07c4.705,0 9.096,-2.511 13.635,-5.07c4.233,-2.388 8.607,-4.813 13.614,-4.813c10.007,-0 26.81,3.481 34.25,9.36c0.001,0 0.001,113.717 0.001,113.717l-0.001,0.002c-1.673,4.56 -5.794,7.977 -10.728,10.481c-7.705,3.912 -17.421,5.576 -23.522,5.576c-5.007,-0 -9.381,-2.426 -13.614,-4.813c-4.539,-2.56 -8.93,-5.071 -13.635,-5.071c-4.704,0 -9.096,2.511 -13.634,5.071c-4.234,2.387 -8.608,4.813 -13.615,4.813c-5.006,-0 -9.381,-2.426 -13.614,-4.813c-4.539,-2.56 -8.93,-5.071 -13.635,-5.071c-4.704,0 -9.095,2.511 -13.634,5.071c-4.233,2.387 -8.608,4.813 -13.614,4.813c-5.007,-0 -9.381,-2.426 -13.615,-4.813c-4.539,-2.56 -8.93,-5.071 -13.634,-5.071c-4.705,0 -9.096,2.511 -13.635,5.071c-4.233,2.387 -8.608,4.813 -13.614,4.813c-5.007,-0 -9.381,-2.426 -13.615,-4.813c-4.538,-2.56 -8.929,-5.071 -13.634,-5.071c-4.705,0 -9.096,2.511 -13.635,5.071c-4.233,2.387 -8.607,4.813 -13.614,4.813c-5.007,-0 -9.381,-2.426 -13.614,-4.813c-4.539,-2.56 -8.93,-5.071 -13.635,-5.071c-4.705,0 -9.096,2.511 -13.634,5.071c-4.234,2.387 -8.608,4.813 -13.615,4.813c-3.943,-0 -7.74,-1.974 -11.344,-4.671c-5.517,-4.129 -10.568,-9.965 -14.906,-13.677Z"/></g><g id="change3_1"><path fill="#ffffff" d="M327.985,132.248c-7.382,6.169 -16.885,9.883 -27.249,9.883c-10.364,0 -18.166,-9.883 -27.249,-9.883c-9.083,-0 -16.885,9.883 -27.249,9.883c-10.363,0 -18.166,-9.883 -27.249,-9.883c-9.083,-0 -16.885,9.883 -27.248,9.883c-10.364,0 -18.166,-9.883 -27.249,-9.883c-9.083,-0 -16.886,9.883 -27.249,9.883c-10.364,0 -18.166,-9.883 -27.249,-9.883c-9.083,-0 -16.885,9.883 -27.249,9.883c-10.364,0 -18.166,-9.883 -27.249,-9.883c-9.083,-0 -16.885,9.883 -27.249,9.883c-10.363,0 -19.866,-3.714 -27.249,-9.883l0,-121.366c7.383,-6.169 16.886,-9.884 27.249,-9.884c10.364,0 18.166,9.884 27.249,9.884c9.083,-0 16.885,-9.884 27.249,-9.884c10.364,0 18.166,9.884 27.249,9.884c9.083,-0 16.885,-9.884 27.249,-9.884c10.363,0 18.166,9.884 27.249,9.884c9.083,-0 16.885,-9.884 27.249,-9.884c10.363,0 18.165,9.884 27.248,9.884c9.083,-0 16.886,-9.884 27.249,-9.884c10.364,0 18.166,9.884 27.249,9.884c9.083,-0 16.885,-9.884 27.249,-9.884c10.364,0 19.867,3.715 27.249,9.884l-0,121.366Z"/></g><g id="change2_2"><path fill="inherit" d="M0.689,133.287c7.507,6.15 17.105,9.843 27.558,9.843c5.357,-0 10.066,-2.517 14.595,-5.071c4.224,-2.382 8.276,-4.813 12.654,-4.813c4.379,-0 8.43,2.431 12.654,4.813c4.529,2.554 9.238,5.071 14.595,5.071c5.357,-0 10.066,-2.517 14.595,-5.071c4.224,-2.382 8.275,-4.813 12.654,-4.813c4.378,-0 8.43,2.431 12.654,4.813c4.529,2.554 9.238,5.071 14.595,5.071c5.357,-0 10.065,-2.517 14.595,-5.071c4.224,-2.382 8.275,-4.813 12.654,-4.813c4.378,-0 8.429,2.431 12.653,4.813c4.53,2.554 9.238,5.071 14.596,5.071c5.357,-0 10.065,-2.517 14.595,-5.071c4.224,-2.382 8.275,-4.813 12.653,-4.813c4.379,-0 8.43,2.431 12.654,4.813c4.53,2.554 9.238,5.071 14.595,5.071c5.357,-0 10.066,-2.517 14.595,-5.071c4.224,-2.382 8.276,-4.813 12.654,-4.813c4.379,-0 8.43,2.431 12.654,4.813c4.53,2.554 9.238,5.071 14.595,5.071c10.607,-0 20.333,-3.802 27.889,-10.116c0.227,-0.19 0.358,-0.471 0.358,-0.766l0,-121.366c0,-0.296 -0.131,-0.576 -0.358,-0.766c-7.556,-6.314 -17.282,-10.116 -27.889,-10.116c-5.357,-0 -10.065,2.516 -14.595,5.071c-4.224,2.382 -8.275,4.813 -12.654,4.813c-4.378,-0 -8.43,-2.431 -12.654,-4.813c-4.529,-2.555 -9.238,-5.071 -14.595,-5.071c-5.357,-0 -10.065,2.516 -14.595,5.071c-4.224,2.382 -8.275,4.813 -12.654,4.813c-4.378,-0 -8.429,-2.431 -12.653,-4.813c-4.53,-2.555 -9.238,-5.071 -14.595,-5.071c-5.358,-0 -10.066,2.516 -14.596,5.071c-4.224,2.382 -8.275,4.813 -12.653,4.813c-4.379,-0 -8.43,-2.431 -12.654,-4.813c-4.53,-2.555 -9.238,-5.071 -14.595,-5.071c-5.357,-0 -10.066,2.516 -14.595,5.071c-4.224,2.382 -8.276,4.813 -12.654,4.813c-4.379,-0 -8.43,-2.431 -12.654,-4.813c-4.529,-2.555 -9.238,-5.071 -14.595,-5.071c-5.357,-0 -10.066,2.516 -14.595,5.071c-4.224,2.382 -8.275,4.813 -12.654,4.813c-4.378,-0 -8.43,-2.431 -12.654,-4.813c-4.529,-2.555 -9.238,-5.071 -14.595,-5.071c-10.607,-0 -20.333,3.802 -27.889,10.116c-0.227,0.19 -0.358,0.47 -0.358,0.766l-0,121.244c-0,0.945 0.396,1.144 0.689,1.161Zm1.308,-1.51l-0,-120.425c7.157,-5.847 16.297,-9.355 26.25,-9.355c5.007,-0 9.381,2.425 13.615,4.813c4.538,2.559 8.929,5.07 13.634,5.07c4.705,0 9.096,-2.511 13.635,-5.07c4.233,-2.388 8.607,-4.813 13.614,-4.813c5.007,-0 9.381,2.425 13.614,4.813c4.539,2.559 8.93,5.07 13.635,5.07c4.705,0 9.096,-2.511 13.634,-5.07c4.234,-2.388 8.608,-4.813 13.615,-4.813c5.006,-0 9.381,2.425 13.614,4.813c4.539,2.559 8.93,5.07 13.635,5.07c4.704,0 9.095,-2.511 13.634,-5.07c4.234,-2.388 8.608,-4.813 13.615,-4.813c5.006,-0 9.381,2.425 13.614,4.813c4.539,2.559 8.93,5.07 13.634,5.07c4.705,0 9.096,-2.511 13.635,-5.07c4.233,-2.388 8.608,-4.813 13.614,-4.813c5.007,-0 9.381,2.425 13.615,4.813c4.538,2.559 8.93,5.07 13.634,5.07c4.705,0 9.096,-2.511 13.635,-5.07c4.233,-2.388 8.607,-4.813 13.614,-4.813c9.953,-0 19.093,3.508 26.25,9.355c0.001,0 0.001,120.425 0.001,120.425l-0.001,0.001c-7.156,5.846 -16.297,9.355 -26.25,9.355c-5.007,-0 -9.381,-2.426 -13.614,-4.813c-4.539,-2.56 -8.93,-5.071 -13.635,-5.071c-4.704,0 -9.096,2.511 -13.634,5.071c-4.234,2.387 -8.608,4.813 -13.615,4.813c-5.006,-0 -9.381,-2.426 -13.614,-4.813c-4.539,-2.56 -8.93,-5.071 -13.635,-5.071c-4.704,0 -9.095,2.511 -13.634,5.071c-4.233,2.387 -8.608,4.813 -13.614,4.813c-5.007,-0 -9.381,-2.426 -13.615,-4.813c-4.539,-2.56 -8.93,-5.071 -13.634,-5.071c-4.705,0 -9.096,2.511 -13.635,5.071c-4.233,2.387 -8.608,4.813 -13.614,4.813c-5.007,-0 -9.381,-2.426 -13.615,-4.813c-4.538,-2.56 -8.929,-5.071 -13.634,-5.071c-4.705,0 -9.096,2.511 -13.635,5.071c-4.233,2.387 -8.607,4.813 -13.614,4.813c-5.007,-0 -9.381,-2.426 -13.614,-4.813c-4.539,-2.56 -8.93,-5.071 -13.635,-5.071c-4.705,0 -9.096,2.511 -13.634,5.071c-4.234,2.387 -8.608,4.813 -13.615,4.813c-9.953,-0 -19.093,-3.509 -26.25,-9.356Zm-0.002,0.422c0.003,0.068 -0,0.138 -0.012,0.207c0.006,-0.065 0.011,-0.134 0.012,-0.207Z"/></g></g></svg>