<?xml version="1.0" encoding="UTF-8" standalone="no"?><svg xmlns="http://www.w3.org/2000/svg" xmlns:xlink="http://www.w3.org/1999/xlink" contentScriptType="text/ecmascript" fill="#000000" width="206.6" zoomAndPan="magnify" contentStyleType="text/css" viewBox="153.9 46.2 206.6 409.0" height="409" preserveAspectRatio="xMidYMid meet" version="1"><g><g><g><defs><g id="change1_1"><path id="a" d="M258.6,46.2c-26.5,20-34.3,48.3-24.5,63.6c1.4,2.2,8.3,12.7,24.5,15.6c16.2-2.9,23.2-13.4,24.5-15.6 C292.9,94.5,285.1,66.3,258.6,46.2z"/></g></defs><clipPath id="b"><use overflow="visible" xlink:actuate="onLoad" xlink:type="simple" xlink:show="embed" xlink:href="#a"/></clipPath><g id="change2_1"><path fill="#eead58" d="M258.6,46.2c-26.5,20-34.3,48.3-24.5,63.6c1.4,2.2,8.3,12.7,24.5,15.6c16.2-2.9,23.2-13.4,24.5-15.6 C292.9,94.5,285.1,66.3,258.6,46.2z" clip-path="url(#b)"/></g><g clip-path="url(#b)"><g id="change3_4"><path fill="#7e3e54" d="M220,109.1c3.7-7.4,8.8-14,15-19.6c3.1-2.8,6.5-5.3,10-7.5c3.6-2.2,7.5-3.9,11.1-5.7 c7.3-3.4,13.9-7.9,19.8-13.3c5.9-5.5,11-11.8,15.9-18.4c-3.4,7.5-8,14.5-13.7,20.6c-2.8,3.1-6,5.8-9.4,8.3 c-3.4,2.5-7.1,4.6-10.8,6.4c-3.8,1.8-7.4,3.3-10.9,5.3c-3.5,1.9-6.8,4.2-9.9,6.7C230.7,96.8,225.1,102.7,220,109.1z"/></g><g id="change3_1"><path fill="#7e3e54" d="M228.6,131.3c3.7-7.4,8.8-14,15-19.6c3.1-2.8,6.5-5.3,10-7.5c3.6-2.2,7.5-3.9,11.1-5.7 c7.3-3.4,13.9-7.9,19.8-13.3c5.9-5.5,11-11.8,15.9-18.4c-3.4,7.5-8,14.5-13.7,20.6c-2.8,3.1-6,5.8-9.4,8.3 c-3.4,2.5-7.1,4.6-10.8,6.4c-3.8,1.8-7.4,3.3-10.9,5.3c-3.5,1.9-6.8,4.2-9.9,6.7C239.3,119,233.7,124.9,228.6,131.3z"/></g></g></g><g><g><g id="change4_1"><path fill="#f06e5b" d="M292.7 372L223.4 372 234.1 180.7 280.7 180.7z"/></g><g id="change5_1"><path fill="#d3584a" d="M233.9 180.7L223.2 372 257.8 372 257.8 180.7z"/></g></g><g><g id="change3_3"><path fill="#7e3e54" d="M278.2 147.8L236.8 147.8 218 133 298.2 133z"/></g><g id="change6_2"><path fill="#e0d8cd" d="M218 118.1H298.2V133.4H218z"/></g></g><g><g id="change3_5"><path fill="#7e3e54" d="M280.7 180.7L234.1 180.7 212.8 164.1 303.4 164.1z"/></g><g id="change6_4"><path fill="#e0d8cd" d="M212.8 147.1H303.4V164.4H212.8z"/></g></g></g><g><g><g id="change3_2"><path fill="#7e3e54" d="M306.5 438.6L205.2 438.6 158.8 388.9 355.8 388.9z"/></g><g id="change6_1"><path fill="#e0d8cd" d="M158.8 372H355.8V388.5H158.8z"/></g></g><g id="change6_3"><path fill="#e0d8cd" d="M153.9 433.9H360.5V455.2H153.9z"/></g></g></g></g></svg>