<?xml version="1.0" encoding="UTF-8" standalone="no"?><svg xmlns="http://www.w3.org/2000/svg" xmlns:xlink="http://www.w3.org/1999/xlink" contentScriptType="text/ecmascript" fill="#000000" width="224" zoomAndPan="magnify" contentStyleType="text/css" viewBox="54.4 62.8 224.0 200.8" height="200.8" preserveAspectRatio="xMidYMid meet" version="1"><defs><clipPath id="a"><path d="M 54 85 L 279 85 L 279 194 L 54 194 Z M 54 85"/></clipPath><clipPath id="b"><path d="M 54.429688 127.035156 C 54.429688 127.035156 70.210938 115.578125 102.28125 114.6875 C 134.351562 113.800781 183.378906 105.558594 201.71875 93.414062 C 220.0625 81.269531 234.957031 86.292969 234.957031 86.292969 L 278.453125 183.488281 C 278.453125 183.488281 219.695312 202.214844 197.152344 215.320312 C 174.609375 228.429688 104.554688 228.789062 82.277344 222.382812 Z M 54.429688 127.035156"/></clipPath><clipPath id="c"><path d="M 75 161 L 279 161 L 279 227 L 75 227 Z M 75 161"/></clipPath><clipPath id="d"><path d="M 54.429688 127.035156 C 54.429688 127.035156 70.210938 115.578125 102.28125 114.6875 C 134.351562 113.800781 183.378906 105.558594 201.71875 93.414062 C 220.0625 81.269531 234.957031 86.292969 234.957031 86.292969 L 278.453125 183.488281 C 278.453125 183.488281 219.695312 202.214844 197.152344 215.320312 C 174.609375 228.429688 104.554688 228.789062 82.277344 222.382812 Z M 54.429688 127.035156"/></clipPath><clipPath id="e"><path d="M 54 93 L 279 93 L 279 202 L 54 202 Z M 54 93"/></clipPath><clipPath id="f"><path d="M 54.429688 127.035156 C 54.429688 127.035156 70.210938 115.578125 102.28125 114.6875 C 134.351562 113.800781 183.378906 105.558594 201.71875 93.414062 C 220.0625 81.269531 234.957031 86.292969 234.957031 86.292969 L 278.453125 183.488281 C 278.453125 183.488281 219.695312 202.214844 197.152344 215.320312 C 174.609375 228.429688 104.554688 228.789062 82.277344 222.382812 Z M 54.429688 127.035156"/></clipPath><clipPath id="g"><path d="M 80 168 L 279 168 L 279 227 L 80 227 Z M 80 168"/></clipPath><clipPath id="h"><path d="M 54.429688 127.035156 C 54.429688 127.035156 70.210938 115.578125 102.28125 114.6875 C 134.351562 113.800781 183.378906 105.558594 201.71875 93.414062 C 220.0625 81.269531 234.957031 86.292969 234.957031 86.292969 L 278.453125 183.488281 C 278.453125 183.488281 219.695312 202.214844 197.152344 215.320312 C 174.609375 228.429688 104.554688 228.789062 82.277344 222.382812 Z M 54.429688 127.035156"/></clipPath></defs><g><g id="change1_1"><path fill="#ffdab4" d="M 189.253906 81.121094 C 235.617188 99.390625 259.644531 151.023438 242.878906 196.351562 C 226.109375 241.675781 174.855469 263.640625 128.492188 245.371094 C 82.132812 227.101562 58.105469 175.46875 74.871094 130.140625 C 91.636719 84.8125 142.890625 62.847656 189.253906 81.121094" fill-rule="evenodd"/></g><g id="change2_1"><path fill="#1f6d4f" d="M 54.429688 127.035156 C 54.429688 127.035156 70.210938 115.578125 102.28125 114.6875 C 134.351562 113.800781 183.378906 105.558594 201.71875 93.414062 C 220.0625 81.269531 234.957031 86.292969 234.957031 86.292969 L 278.453125 183.488281 C 278.453125 183.488281 219.695312 202.214844 197.152344 215.320312 C 174.609375 228.429688 104.554688 228.789062 82.277344 222.382812 L 54.429688 127.035156" fill-rule="evenodd"/></g><g clip-path="url(#a)"><g id="change3_1" clip-rule="evenodd" clip-path="url(#b)"><path fill="#82bcac" d="M 66.742188 190.46875 C 66.183594 190.492188 65.65625 190.8125 65.390625 191.351562 C 64.886719 192.386719 65.355469 193.015625 65.574219 193.269531 C 65.878906 193.621094 66.414062 193.996094 67.257812 193.773438 C 67.449219 193.722656 67.792969 193.566406 68.183594 193.304688 C 68.644531 192.996094 69.308594 192.453125 69.6875 192.28125 C 70.28125 192.011719 70.882812 191.757812 71.484375 191.515625 C 72.40625 191.144531 73.339844 190.792969 74.269531 190.445312 C 76.511719 189.613281 78.777344 188.800781 81.0625 188.058594 C 83.335938 187.316406 85.625 186.644531 87.925781 186.082031 C 94.921875 184.375 101.886719 183.554688 108.882812 183.277344 C 115.9375 182.996094 123.023438 183.261719 130.199219 183.730469 C 140.492188 184.398438 150.515625 184.203125 160.40625 182.96875 C 170.296875 181.734375 180.058594 179.460938 189.835938 175.972656 C 209.109375 169.089844 230.546875 154.59375 252.070312 148.558594 C 261.484375 145.917969 270.914062 144.914062 280.179688 147.003906 C 281.027344 147.195312 281.875 146.660156 282.066406 145.808594 C 282.261719 144.960938 281.726562 144.113281 280.875 143.921875 C 271.101562 141.714844 261.148438 142.730469 251.21875 145.515625 C 229.625 151.570312 208.109375 166.089844 188.769531 172.996094 C 179.21875 176.40625 169.679688 178.628906 160.015625 179.835938 C 150.320312 181.042969 140.496094 181.230469 130.402344 180.574219 C 121.644531 180.007812 113.015625 179.734375 104.414062 180.363281 C 98.667969 180.785156 92.933594 181.609375 87.179688 183.011719 C 84.796875 183.59375 82.429688 184.285156 80.085938 185.050781 C 77.757812 185.808594 75.449219 186.636719 73.167969 187.484375 C 72.210938 187.839844 71.253906 188.203125 70.304688 188.585938 C 69.65625 188.84375 69.019531 189.113281 68.386719 189.402344 C 67.980469 189.585938 67.289062 190.089844 66.742188 190.46875 Z M 68.269531 192.652344 L 68.269531 192.65625 Z M 61.625 176.136719 C 66.394531 170.164062 75.347656 167.164062 85.269531 165.617188 C 99.925781 163.332031 116.726562 164.34375 126.304688 164.734375 C 135.453125 165.109375 144.296875 164.640625 153.015625 163.285156 C 161.714844 161.929688 170.285156 159.695312 178.898438 156.527344 C 196.722656 149.972656 220.007812 134.167969 241.980469 128.671875 C 251.851562 126.203125 261.445312 125.828125 270.105469 129.539062 C 270.90625 129.882812 271.835938 129.511719 272.179688 128.710938 C 272.523438 127.90625 272.152344 126.976562 271.351562 126.632812 C 262.070312 122.660156 251.789062 122.960938 241.214844 125.605469 C 219.132812 131.128906 195.71875 146.976562 177.808594 153.5625 C 169.394531 156.65625 161.023438 158.839844 152.527344 160.160156 C 144.011719 161.484375 135.371094 161.941406 126.433594 161.578125 C 116.710938 161.179688 99.660156 160.175781 84.785156 162.492188 C 73.988281 164.179688 64.34375 167.667969 59.15625 174.164062 C 58.609375 174.84375 58.722656 175.839844 59.402344 176.382812 C 60.085938 176.929688 61.082031 176.816406 61.625 176.136719 Z M 57.300781 154.699219 C 57.871094 154.347656 60.566406 152.691406 60.773438 152.566406 C 70.117188 147.035156 79.539062 144.425781 89.113281 143.210938 C 103.9375 141.324219 119.128906 142.742188 135.003906 142.007812 C 136.0625 141.957031 137.121094 141.898438 138.183594 141.824219 C 139.242188 141.75 140.304688 141.660156 141.363281 141.558594 C 150.105469 140.710938 158.707031 138.839844 167.152344 136.351562 C 175.53125 133.878906 183.757812 130.796875 191.8125 127.496094 C 205.496094 121.886719 219.636719 114.742188 234.253906 110.503906 C 243.914062 107.703125 253.789062 106.175781 263.875 107.273438 C 264.742188 107.367188 265.523438 106.738281 265.617188 105.871094 C 265.710938 105.007812 265.085938 104.226562 264.21875 104.132812 C 253.714844 102.988281 243.433594 104.550781 233.371094 107.46875 C 218.648438 111.738281 204.398438 118.921875 190.613281 124.570312 C 182.65625 127.832031 174.535156 130.878906 166.257812 133.320312 C 158.003906 135.753906 149.597656 137.582031 141.058594 138.414062 L 134.855469 138.851562 C 118.894531 139.589844 103.617188 138.179688 88.714844 140.074219 C 78.730469 141.34375 68.910156 144.078125 59.164062 149.847656 C 58.871094 150.019531 55.664062 151.679688 54.78125 152.722656 C 54.195312 153.417969 54.132812 154.117188 54.269531 154.625 C 54.496094 155.46875 55.363281 155.96875 56.207031 155.742188 C 56.742188 155.597656 57.140625 155.191406 57.300781 154.699219 Z M 51.996094 132.894531 C 53.058594 132.085938 54.375 131.453125 55.757812 130.894531 C 57.996094 129.996094 60.40625 129.308594 62.378906 128.558594 C 70.851562 125.332031 79.300781 123.78125 87.808594 123.023438 C 100.820312 121.867188 113.964844 122.554688 127.523438 122.046875 C 134.933594 121.769531 142.402344 121.214844 149.820312 120.261719 C 157.253906 119.304688 164.632812 117.941406 171.84375 116.058594 C 189.164062 111.527344 204.777344 100.722656 221.460938 94.183594 C 228.519531 91.417969 235.773438 89.429688 243.449219 89.082031 C 244.320312 89.042969 244.996094 88.304688 244.957031 87.433594 C 244.917969 86.5625 244.179688 85.886719 243.308594 85.925781 C 235.277344 86.289062 227.6875 88.347656 220.308594 91.242188 C 203.738281 97.734375 188.246094 108.5 171.046875 113 C 163.964844 114.851562 156.71875 116.1875 149.417969 117.125 C 142.09375 118.070312 134.71875 118.617188 127.40625 118.890625 C 113.789062 119.398438 100.59375 118.714844 87.527344 119.875 C 78.738281 120.65625 70.007812 122.269531 61.253906 125.605469 C 58.929688 126.492188 55.996094 127.296875 53.441406 128.449219 C 52.207031 129.003906 51.058594 129.636719 50.082031 130.382812 C 49.386719 130.910156 49.253906 131.902344 49.78125 132.59375 C 50.308594 133.289062 51.300781 133.421875 51.996094 132.894531" fill-rule="evenodd"/></g></g><g clip-path="url(#c)"><g id="change3_2" clip-rule="evenodd" clip-path="url(#d)"><path fill="#82bcac" d="M 93.140625 265.613281 C 92.582031 265.640625 92.050781 265.960938 91.789062 266.5 C 91.28125 267.535156 91.753906 268.164062 91.972656 268.414062 C 92.277344 268.769531 92.8125 269.144531 93.65625 268.917969 C 93.847656 268.867188 94.191406 268.714844 94.582031 268.453125 C 95.039062 268.144531 95.707031 267.597656 96.085938 267.425781 C 96.679688 267.160156 97.277344 266.90625 97.882812 266.660156 C 98.804688 266.289062 99.738281 265.941406 100.667969 265.59375 C 102.90625 264.761719 105.175781 263.949219 107.460938 263.203125 C 109.730469 262.464844 112.023438 261.789062 114.324219 261.230469 C 121.320312 259.523438 128.285156 258.703125 135.28125 258.421875 C 142.335938 258.140625 149.421875 258.410156 156.597656 258.875 C 166.890625 259.546875 176.914062 259.351562 186.804688 258.117188 C 196.695312 256.882812 206.457031 254.609375 216.230469 251.117188 C 235.507812 244.234375 256.945312 229.738281 278.46875 223.703125 C 287.882812 221.0625 297.3125 220.058594 306.574219 222.148438 C 307.425781 222.34375 308.273438 221.808594 308.464844 220.957031 C 308.65625 220.105469 308.121094 219.261719 307.273438 219.066406 C 297.5 216.863281 287.546875 217.875 277.613281 220.660156 C 256.023438 226.71875 234.507812 241.238281 215.167969 248.144531 C 205.617188 251.554688 196.078125 253.773438 186.410156 254.980469 C 176.71875 256.191406 166.894531 256.378906 156.800781 255.722656 C 148.042969 255.152344 139.414062 254.882812 130.8125 255.511719 C 125.066406 255.929688 119.328125 256.753906 113.574219 258.160156 C 111.195312 258.738281 108.828125 259.433594 106.480469 260.199219 C 104.152344 260.957031 101.847656 261.78125 99.566406 262.632812 C 98.609375 262.988281 97.648438 263.347656 96.699219 263.730469 C 96.054688 263.992188 95.414062 264.261719 94.78125 264.546875 C 94.378906 264.730469 93.6875 265.238281 93.140625 265.613281 Z M 94.667969 267.796875 L 94.664062 267.804688 Z M 88.023438 251.28125 C 92.792969 245.3125 101.746094 242.3125 111.667969 240.761719 C 126.324219 238.476562 143.121094 239.492188 152.703125 239.882812 C 161.851562 240.253906 170.695312 239.785156 179.414062 238.429688 C 188.113281 237.078125 196.683594 234.84375 205.296875 231.675781 C 223.117188 225.121094 246.40625 209.316406 268.378906 203.816406 C 278.246094 201.347656 287.84375 200.976562 296.503906 204.6875 C 297.304688 205.03125 298.234375 204.65625 298.578125 203.855469 C 298.921875 203.054688 298.550781 202.125 297.746094 201.78125 C 288.46875 197.808594 278.1875 198.105469 267.613281 200.753906 C 245.53125 206.277344 222.113281 222.121094 204.207031 228.707031 C 195.792969 231.800781 187.421875 233.988281 178.925781 235.308594 C 170.410156 236.632812 161.769531 237.089844 152.832031 236.726562 C 143.105469 236.328125 126.058594 235.320312 111.183594 237.640625 C 100.386719 239.324219 90.742188 242.8125 85.554688 249.308594 C 85.007812 249.992188 85.121094 250.984375 85.800781 251.53125 C 86.484375 252.074219 87.476562 251.964844 88.023438 251.28125 Z M 83.695312 229.847656 C 84.269531 229.496094 86.964844 227.839844 87.171875 227.714844 C 96.515625 222.183594 105.9375 219.574219 115.511719 218.355469 C 130.335938 216.472656 145.527344 217.886719 161.398438 217.152344 C 162.460938 217.105469 163.519531 217.042969 164.578125 216.972656 C 165.640625 216.898438 166.699219 216.808594 167.761719 216.707031 C 176.503906 215.855469 185.105469 213.988281 193.550781 211.496094 C 201.929688 209.027344 210.15625 205.945312 218.210938 202.640625 C 231.894531 197.03125 246.03125 189.890625 260.648438 185.652344 C 270.3125 182.851562 280.1875 181.324219 290.273438 182.421875 C 291.140625 182.515625 291.921875 181.886719 292.015625 181.019531 C 292.109375 180.152344 291.480469 179.371094 290.613281 179.277344 C 280.113281 178.136719 269.832031 179.699219 259.769531 182.617188 C 245.046875 186.886719 230.796875 194.066406 217.011719 199.71875 C 209.054688 202.980469 200.933594 206.027344 192.65625 208.464844 C 184.402344 210.898438 175.996094 212.730469 167.453125 213.5625 L 161.253906 213.996094 C 145.292969 214.734375 130.015625 213.328125 115.113281 215.222656 C 105.128906 216.492188 95.308594 219.226562 85.5625 224.996094 C 85.269531 225.167969 82.0625 226.824219 81.179688 227.871094 C 80.59375 228.566406 80.53125 229.265625 80.667969 229.773438 C 80.894531 230.613281 81.761719 231.113281 82.605469 230.886719 C 83.140625 230.742188 83.539062 230.339844 83.695312 229.847656 Z M 78.394531 208.042969 C 79.457031 207.234375 80.773438 206.597656 82.15625 206.042969 C 84.394531 205.144531 86.804688 204.457031 88.773438 203.707031 C 97.25 200.476562 105.699219 198.929688 114.207031 198.171875 C 127.21875 197.015625 140.359375 197.703125 153.921875 197.195312 C 161.332031 196.917969 168.800781 196.363281 176.21875 195.40625 C 183.652344 194.449219 191.03125 193.089844 198.242188 191.203125 C 215.5625 186.675781 231.175781 175.867188 247.859375 169.332031 C 254.917969 166.566406 262.171875 164.578125 269.847656 164.230469 C 270.71875 164.191406 271.394531 163.449219 271.355469 162.578125 C 271.316406 161.710938 270.578125 161.035156 269.707031 161.074219 C 261.675781 161.4375 254.085938 163.496094 246.707031 166.390625 C 230.136719 172.882812 214.644531 183.648438 197.441406 188.144531 C 190.359375 189.996094 183.113281 191.332031 175.816406 192.273438 C 168.492188 193.21875 161.117188 193.765625 153.804688 194.039062 C 140.1875 194.546875 126.992188 193.859375 113.925781 195.023438 C 105.136719 195.804688 96.40625 197.417969 87.648438 200.753906 C 85.324219 201.640625 82.394531 202.445312 79.839844 203.59375 C 78.605469 204.148438 77.457031 204.785156 76.480469 205.527344 C 75.785156 206.058594 75.652344 207.050781 76.179688 207.742188 C 76.707031 208.4375 77.699219 208.570312 78.394531 208.042969" fill-rule="evenodd"/></g></g><g clip-path="url(#e)"><g id="change4_1" clip-rule="evenodd" clip-path="url(#f)"><path fill="#143f2e" d="M 71.742188 198.28125 C 71.183594 198.304688 70.652344 198.625 70.390625 199.164062 C 69.886719 200.199219 70.355469 200.828125 70.574219 201.082031 C 70.878906 201.433594 71.414062 201.808594 72.257812 201.585938 C 72.449219 201.535156 72.792969 201.382812 73.183594 201.117188 C 73.644531 200.808594 74.308594 200.265625 74.6875 200.09375 C 75.28125 199.824219 75.882812 199.570312 76.484375 199.328125 C 77.40625 198.953125 78.339844 198.605469 79.269531 198.257812 C 81.511719 197.425781 83.777344 196.613281 86.0625 195.867188 C 88.335938 195.128906 90.625 194.453125 92.925781 193.894531 C 99.921875 192.1875 106.886719 191.367188 113.882812 191.089844 C 120.9375 190.808594 128.023438 191.074219 135.199219 191.539062 C 145.492188 192.210938 155.515625 192.015625 165.40625 190.78125 C 175.296875 189.546875 185.058594 187.273438 194.835938 183.785156 C 214.109375 176.902344 235.546875 162.40625 257.070312 156.367188 C 266.484375 153.730469 275.914062 152.726562 285.179688 154.816406 C 286.027344 155.007812 286.875 154.472656 287.066406 153.621094 C 287.257812 152.769531 286.726562 151.925781 285.875 151.734375 C 276.101562 149.527344 266.148438 150.539062 256.21875 153.324219 C 234.625 159.382812 213.109375 173.902344 193.769531 180.808594 C 184.21875 184.21875 174.679688 186.441406 165.015625 187.644531 C 155.320312 188.855469 145.496094 189.042969 135.402344 188.386719 C 126.644531 187.820312 118.015625 187.546875 109.414062 188.175781 C 103.667969 188.597656 97.929688 189.421875 92.179688 190.824219 C 89.796875 191.402344 87.429688 192.101562 85.082031 192.863281 C 82.757812 193.621094 80.449219 194.449219 78.167969 195.296875 C 77.210938 195.652344 76.253906 196.015625 75.300781 196.398438 C 74.65625 196.65625 74.019531 196.925781 73.386719 197.214844 C 72.980469 197.398438 72.289062 197.902344 71.742188 198.28125 Z M 73.269531 200.464844 L 73.269531 200.46875 Z M 66.625 183.945312 C 71.394531 177.976562 80.347656 174.976562 90.269531 173.429688 C 104.925781 171.144531 121.722656 172.15625 131.304688 172.546875 C 140.453125 172.921875 149.296875 172.453125 158.015625 171.097656 C 166.714844 169.742188 175.285156 167.507812 183.898438 164.339844 C 201.722656 157.785156 225.007812 141.980469 246.980469 136.484375 C 256.851562 134.015625 266.445312 133.640625 275.105469 137.351562 C 275.90625 137.695312 276.835938 137.320312 277.179688 136.519531 C 277.523438 135.71875 277.152344 134.789062 276.351562 134.445312 C 267.070312 130.472656 256.789062 130.773438 246.214844 133.417969 C 224.132812 138.941406 200.71875 154.785156 182.808594 161.371094 C 174.394531 164.46875 166.023438 166.652344 157.527344 167.972656 C 149.011719 169.296875 140.371094 169.753906 131.433594 169.390625 C 121.710938 168.992188 104.660156 167.988281 89.785156 170.304688 C 78.988281 171.988281 69.34375 175.480469 64.15625 181.976562 C 63.609375 182.65625 63.722656 183.652344 64.402344 184.195312 C 65.085938 184.738281 66.082031 184.628906 66.625 183.945312 Z M 62.296875 162.511719 C 62.871094 162.160156 65.566406 160.503906 65.773438 160.378906 C 75.117188 154.847656 84.539062 152.238281 94.113281 151.023438 C 108.9375 149.136719 124.128906 150.554688 140.003906 149.820312 C 141.0625 149.769531 142.121094 149.710938 143.183594 149.636719 C 144.242188 149.5625 145.304688 149.472656 146.363281 149.371094 C 155.105469 148.519531 163.707031 146.652344 172.152344 144.160156 C 180.53125 141.691406 188.757812 138.609375 196.8125 135.308594 C 210.496094 129.695312 224.636719 122.554688 239.253906 118.316406 C 248.914062 115.515625 258.789062 113.988281 268.875 115.085938 C 269.742188 115.179688 270.523438 114.550781 270.617188 113.683594 C 270.710938 112.816406 270.085938 112.039062 269.21875 111.945312 C 258.714844 110.800781 248.433594 112.363281 238.371094 115.28125 C 223.648438 119.550781 209.398438 126.730469 195.613281 132.382812 C 187.65625 135.644531 179.535156 138.691406 171.257812 141.132812 C 163.003906 143.566406 154.597656 145.394531 146.054688 146.226562 L 139.855469 146.660156 C 123.894531 147.402344 108.617188 145.992188 93.714844 147.886719 C 83.730469 149.15625 73.910156 151.890625 64.164062 157.660156 C 63.871094 157.832031 60.664062 159.488281 59.78125 160.535156 C 59.191406 161.230469 59.132812 161.929688 59.269531 162.4375 C 59.496094 163.28125 60.363281 163.777344 61.207031 163.554688 C 61.742188 163.40625 62.140625 163.003906 62.296875 162.511719 Z M 56.996094 140.707031 C 58.058594 139.898438 59.375 139.265625 60.757812 138.707031 C 62.996094 137.808594 65.40625 137.121094 67.375 136.371094 C 75.851562 133.144531 84.300781 131.59375 92.808594 130.835938 C 105.820312 129.679688 118.964844 130.367188 132.523438 129.859375 C 139.933594 129.582031 147.402344 129.027344 154.820312 128.070312 C 162.253906 127.113281 169.632812 125.753906 176.84375 123.867188 C 194.164062 119.339844 209.777344 108.53125 226.460938 101.996094 C 233.519531 99.230469 240.773438 97.242188 248.449219 96.894531 C 249.320312 96.855469 249.996094 96.117188 249.957031 95.246094 C 249.917969 94.375 249.179688 93.699219 248.308594 93.738281 C 240.277344 94.101562 232.6875 96.160156 225.308594 99.054688 C 208.738281 105.546875 193.246094 116.3125 176.046875 120.8125 C 168.964844 122.664062 161.71875 123.996094 154.417969 124.9375 C 147.09375 125.882812 139.71875 126.429688 132.40625 126.703125 C 118.789062 127.210938 105.59375 126.527344 92.527344 127.6875 C 83.738281 128.46875 75.007812 130.082031 66.253906 133.417969 C 63.925781 134.304688 60.996094 135.109375 58.441406 136.261719 C 57.207031 136.816406 56.058594 137.449219 55.082031 138.191406 C 54.386719 138.722656 54.253906 139.714844 54.78125 140.40625 C 55.308594 141.101562 56.300781 141.234375 56.996094 140.707031" fill-rule="evenodd"/></g></g><g clip-path="url(#g)"><g id="change4_2" clip-rule="evenodd" clip-path="url(#h)"><path fill="#143f2e" d="M 98.140625 273.425781 C 97.582031 273.453125 97.050781 273.773438 96.789062 274.3125 C 96.28125 275.347656 96.753906 275.976562 96.972656 276.226562 C 97.277344 276.582031 97.808594 276.957031 98.65625 276.730469 C 98.847656 276.679688 99.1875 276.527344 99.582031 276.265625 C 100.039062 275.957031 100.707031 275.410156 101.085938 275.238281 C 101.679688 274.972656 102.277344 274.71875 102.882812 274.476562 C 103.804688 274.101562 104.738281 273.753906 105.667969 273.40625 C 107.90625 272.570312 110.175781 271.761719 112.460938 271.015625 C 114.730469 270.277344 117.023438 269.601562 119.324219 269.039062 C 126.320312 267.335938 133.285156 266.515625 140.28125 266.234375 C 147.335938 265.953125 154.421875 266.222656 161.597656 266.6875 C 171.890625 267.359375 181.910156 267.164062 191.804688 265.929688 C 201.695312 264.695312 211.457031 262.421875 221.230469 258.929688 C 240.507812 252.046875 261.945312 237.550781 283.46875 231.515625 C 292.882812 228.875 302.3125 227.871094 311.574219 229.964844 C 312.425781 230.152344 313.273438 229.621094 313.464844 228.769531 C 313.65625 227.917969 313.121094 227.070312 312.273438 226.878906 C 302.496094 224.675781 292.546875 225.6875 282.613281 228.472656 C 261.019531 234.527344 239.507812 249.050781 220.167969 255.957031 C 210.617188 259.367188 201.078125 261.589844 191.410156 262.792969 C 181.714844 264.003906 171.894531 264.191406 161.800781 263.535156 C 153.042969 262.964844 144.414062 262.691406 135.8125 263.324219 C 130.0625 263.742188 124.328125 264.566406 118.574219 265.972656 C 116.195312 266.550781 113.828125 267.246094 111.480469 268.011719 C 109.152344 268.769531 106.847656 269.59375 104.566406 270.445312 C 103.609375 270.800781 102.648438 271.160156 101.699219 271.542969 C 101.054688 271.804688 100.414062 272.074219 99.78125 272.359375 C 99.378906 272.542969 98.6875 273.050781 98.140625 273.425781 Z M 99.667969 275.609375 L 99.664062 275.613281 Z M 93.023438 259.09375 C 97.789062 253.125 106.746094 250.121094 116.667969 248.574219 C 131.324219 246.289062 148.121094 247.304688 157.703125 247.695312 C 166.851562 248.066406 175.695312 247.597656 184.414062 246.242188 C 193.109375 244.890625 201.683594 242.652344 210.296875 239.484375 C 228.117188 232.933594 251.40625 217.128906 273.378906 211.628906 C 283.246094 209.160156 292.84375 208.789062 301.503906 212.496094 C 302.304688 212.84375 303.234375 212.46875 303.578125 211.667969 C 303.921875 210.867188 303.550781 209.9375 302.746094 209.59375 C 293.46875 205.617188 283.1875 205.917969 272.613281 208.566406 C 250.53125 214.089844 227.113281 229.933594 209.207031 236.519531 C 200.792969 239.613281 192.421875 241.800781 183.925781 243.121094 C 175.410156 244.445312 166.769531 244.902344 157.832031 244.535156 C 148.105469 244.140625 131.058594 243.132812 116.183594 245.453125 C 105.382812 247.136719 95.742188 250.625 90.554688 257.121094 C 90.007812 257.804688 90.121094 258.796875 90.800781 259.34375 C 91.484375 259.886719 92.476562 259.777344 93.023438 259.09375 Z M 88.695312 237.660156 C 89.269531 237.308594 91.964844 235.652344 92.171875 235.527344 C 101.515625 229.992188 110.9375 227.386719 120.511719 226.167969 C 135.335938 224.285156 150.527344 225.699219 166.398438 224.964844 C 167.460938 224.917969 168.519531 224.855469 169.578125 224.78125 C 170.640625 224.710938 171.699219 224.621094 172.761719 224.519531 C 181.503906 223.667969 190.105469 221.800781 198.550781 219.308594 C 206.929688 216.839844 215.15625 213.757812 223.210938 210.453125 C 236.890625 204.84375 251.03125 197.699219 265.648438 193.464844 C 275.3125 190.660156 285.1875 189.136719 295.273438 190.230469 C 296.140625 190.328125 296.921875 189.699219 297.015625 188.832031 C 297.109375 187.964844 296.480469 187.183594 295.613281 187.089844 C 285.113281 185.949219 274.832031 187.511719 264.769531 190.429688 C 250.046875 194.695312 235.796875 201.878906 222.011719 207.53125 C 214.054688 210.789062 205.933594 213.839844 197.65625 216.277344 C 189.402344 218.710938 180.996094 220.542969 172.453125 221.371094 L 166.253906 221.808594 C 150.292969 222.546875 135.015625 221.140625 120.113281 223.035156 C 110.128906 224.304688 100.308594 227.039062 90.5625 232.808594 C 90.269531 232.980469 87.0625 234.636719 86.179688 235.683594 C 85.589844 236.378906 85.53125 237.078125 85.667969 237.585938 C 85.894531 238.425781 86.761719 238.925781 87.605469 238.699219 C 88.140625 238.554688 88.539062 238.152344 88.695312 237.660156 Z M 83.394531 215.855469 C 84.457031 215.046875 85.773438 214.410156 87.15625 213.855469 C 89.394531 212.957031 91.804688 212.269531 93.773438 211.519531 C 102.25 208.289062 110.699219 206.738281 119.203125 205.984375 C 132.21875 204.824219 145.359375 205.515625 158.921875 205.007812 C 166.328125 204.730469 173.800781 204.175781 181.21875 203.21875 C 188.652344 202.261719 196.03125 200.902344 203.242188 199.015625 C 220.5625 194.484375 236.175781 183.679688 252.859375 177.144531 C 259.917969 174.378906 267.171875 172.390625 274.847656 172.042969 C 275.71875 172.003906 276.394531 171.261719 276.355469 170.390625 C 276.316406 169.519531 275.574219 168.847656 274.703125 168.886719 C 266.675781 169.25 259.085938 171.308594 251.707031 174.199219 C 235.136719 180.695312 219.644531 191.460938 202.441406 195.960938 C 195.359375 197.808594 188.113281 199.144531 180.816406 200.085938 C 173.492188 201.027344 166.117188 201.574219 158.804688 201.851562 C 145.1875 202.359375 131.992188 201.675781 118.925781 202.835938 C 110.136719 203.617188 101.40625 205.230469 92.648438 208.566406 C 90.324219 209.449219 87.394531 210.257812 84.839844 211.40625 C 83.605469 211.960938 82.457031 212.597656 81.480469 213.339844 C 80.785156 213.867188 80.652344 214.859375 81.179688 215.554688 C 81.707031 216.246094 82.699219 216.382812 83.394531 215.855469" fill-rule="evenodd"/></g></g><g id="change5_1"><path fill="#e39548" d="M 211.457031 147.628906 C 211.675781 147.5625 211.65625 147.042969 211.65625 146.945312 C 211.664062 146.039062 211.445312 145.078125 211.269531 144.203125 C 211.105469 143.371094 210.882812 142.550781 210.511719 141.792969 C 209.84375 140.4375 209.578125 140.121094 208.886719 138.777344 C 208.28125 137.601562 207.929688 136.257812 207.726562 134.949219 C 207.445312 133.117188 207.507812 133.117188 207.351562 131.269531 C 207.234375 129.894531 207.105469 128.558594 206.589844 127.273438 C 206.0625 125.957031 205.242188 124.789062 204.316406 123.738281 C 203.34375 122.625 203.257812 122.703125 202.28125 121.480469 C 201.351562 120.3125 200.21875 118.449219 199.480469 117.355469 C 198.75 116.28125 198.328125 115.746094 197.445312 114.804688 C 196.191406 113.460938 194.558594 112.832031 192.976562 112.011719 C 192.378906 111.699219 191.789062 111.371094 191.203125 111.039062 C 187.703125 109.082031 184.207031 106.839844 180.238281 106.050781 C 180.238281 106.050781 180.238281 106.050781 179.992188 106.558594 C 180.179688 106.050781 179.179688 105.898438 178.960938 105.820312 C 178.796875 105.761719 178.632812 105.707031 178.476562 105.625 C 176.9375 104.8125 175.503906 103.957031 173.882812 103.332031 C 168.367188 101.210938 162.628906 99.640625 156.730469 99.265625 C 154.796875 99.144531 152.792969 99.117188 150.855469 99.300781 C 149.054688 99.472656 147.292969 99.816406 145.589844 100.46875 C 144.125 101.027344 142.726562 101.808594 141.394531 102.648438 C 138.917969 104.210938 136.539062 105.933594 134.035156 107.449219 C 131.375 109.0625 128.234375 109.453125 125.449219 110.761719 C 124.574219 111.171875 123.648438 111.628906 122.953125 112.335938 C 122.019531 113.285156 121.195312 114.371094 120.171875 115.222656 C 118.632812 116.507812 116.585938 116.914062 115.09375 118.277344 C 113.015625 120.171875 113.085938 123.433594 111.359375 125.589844 C 110.074219 127.195312 108.488281 128.511719 107.144531 130.0625 C 105.765625 131.652344 104.652344 133.414062 103.996094 135.449219 C 103.351562 137.449219 102.59375 140.125 102.078125 142.203125 C 100.203125 149.773438 99.144531 157.941406 101.371094 165.566406 C 102.457031 169.28125 104.746094 172.417969 106.105469 176.019531 C 107.0625 178.558594 106.871094 181.429688 107.960938 183.933594 C 108.5 185.171875 109.414062 186.070312 110.3125 187.03125 C 111.078125 187.851562 111.851562 188.597656 112.296875 189.65625 C 113.183594 191.789062 111.714844 193.949219 111.78125 196.101562 C 111.800781 196.722656 112.125 197.503906 112.316406 198.066406 C 112.917969 199.847656 113.625 201.9375 114.320312 203.734375 C 114.652344 204.585938 115 205.433594 115.34375 206.277344 C 115.414062 206.457031 115.527344 206.699219 115.648438 206.847656 C 116.003906 207.28125 116.578125 207.65625 117.039062 207.925781 C 118.101562 208.546875 119.304688 208.910156 120.503906 209.132812 C 122.261719 209.457031 124.035156 209.632812 125.796875 209.9375 C 127.179688 210.175781 128.585938 210.476562 129.84375 211.140625 C 131.457031 211.996094 132.523438 213.644531 134.140625 214.480469 C 135.886719 215.386719 137.695312 215.792969 139.574219 216.34375 C 140.855469 216.722656 142.09375 217.265625 143.285156 217.878906 C 147.273438 219.929688 151.105469 222.761719 155.59375 223.53125 C 157.695312 223.890625 159.847656 223.777344 161.949219 223.488281 C 164.898438 223.089844 167.832031 222.425781 170.6875 221.570312 C 171.964844 221.1875 173.109375 220.480469 174.410156 220.160156 C 175.019531 220.011719 175.71875 220.070312 176.324219 220.15625 C 178.046875 220.394531 179.835938 221.214844 181.570312 220.605469 C 182.976562 220.109375 183.800781 218.78125 184.78125 217.71875 C 185.226562 217.234375 185.75 216.851562 186.339844 216.578125 C 187.707031 215.945312 189.335938 215.894531 190.777344 215.691406 C 192.011719 215.519531 192.855469 215.390625 194.089844 215.101562 C 195.09375 214.859375 196.257812 214.425781 196.917969 213.558594 C 196.917969 213.558594 196.917969 213.558594 196.648438 213.8125 C 196.480469 213.78125 196.761719 213.664062 196.769531 213.660156 C 197.144531 213.40625 197.523438 213.15625 197.886719 212.890625 C 198.984375 212.085938 200.027344 211.179688 200.972656 210.1875 C 202.480469 208.609375 203.789062 206.8125 204.886719 204.910156 C 205.976562 203.019531 206.832031 201.039062 207.222656 198.871094 C 207.582031 196.886719 207.492188 196.878906 207.902344 194.90625 C 208.566406 191.691406 209.546875 188.550781 210.949219 185.59375 C 211.640625 184.140625 211.976562 183.542969 212.828125 182.226562 C 213.820312 180.691406 213.894531 180.75 214.8125 179.160156 C 215.359375 178.207031 215.710938 177.132812 215.953125 176.058594 C 216.523438 173.570312 216.460938 170.972656 216.148438 168.453125 C 215.625 164.230469 214.355469 160.167969 213.398438 156.042969 C 212.90625 153.921875 212.777344 153.390625 212.566406 151.492188 C 212.378906 149.8125 212.34375 148.089844 211.722656 146.5" fill-rule="evenodd"/></g><g id="change6_1"><path fill="#cd6513" d="M 175.765625 131.453125 C 175.824219 131.433594 175.808594 131.5 175.765625 131.453125 C 173.574219 129.171875 169.0625 124.863281 166.140625 125.824219 C 165.421875 126.058594 147.925781 121.949219 147.332031 121.953125 C 145.6875 121.960938 144.554688 123.351562 143.050781 123.777344 C 140.398438 124.53125 137.097656 123.15625 134.636719 124.683594 C 132.890625 125.765625 133.265625 128.695312 132 130.253906 C 129.695312 133.089844 125.550781 133.664062 123.515625 136.78125 C 121.875 139.296875 122.710938 142.710938 121.445312 145.410156 C 119.90625 148.691406 115.9375 150.945312 115.652344 154.867188 C 115.117188 162.300781 124.523438 161.347656 119.777344 171.074219 C 119.429688 171.789062 119.066406 172.671875 119.347656 173.46875 C 120.179688 175.84375 123.902344 175.6875 125.492188 177.195312 C 127.085938 178.703125 125.558594 181.5625 127.375 183.273438 C 130.667969 186.378906 136.03125 184.304688 139.589844 187.035156 C 142.769531 189.476562 142.96875 194.082031 146.566406 196.238281 C 149.664062 198.09375 153.84375 195.980469 157.371094 197.253906 C 160.457031 198.363281 162.730469 200.652344 166.164062 200.835938 C 169.785156 201.023438 172.242188 197.925781 175.621094 197.304688 C 178.378906 196.800781 180.558594 198.875 183.273438 197.015625 C 184.859375 195.929688 184.59375 192.613281 185.664062 191.035156 C 187.554688 188.261719 191.238281 187.160156 192.617188 183.933594 C 193.859375 181.023438 193.117188 178.085938 193.664062 175.09375 C 194.265625 171.824219 195.984375 168.9375 196.691406 165.683594 C 196.910156 164.679688 197.09375 163.644531 197.070312 162.609375 C 197.011719 160.171875 195.210938 158.636719 194.730469 156.402344 C 193.953125 152.777344 195.171875 149.058594 194.113281 145.453125 C 193.179688 142.269531 190.054688 141.78125 188.417969 139.3125 C 187.273438 137.585938 187.285156 134.894531 185.65625 133.53125 C 184.140625 132.261719 182.054688 133.011719 180.242188 132.402344 C 178.871094 131.945312 178.328125 131.089844 175.765625 131.453125" fill-rule="evenodd"/></g><g id="change7_1"><path fill="#a92803" d="M 149.121094 131.292969 C 149.15625 130.628906 148.355469 132.371094 148 132.925781 C 147.285156 134.054688 145.445312 137.980469 148.363281 135.738281 C 149.9375 134.53125 152.65625 128.023438 149.71875 130.757812 C 148.996094 131.429688 148.375 132.261719 147.875 133.121094 M 177.074219 140.363281 C 176.761719 139.78125 176.988281 141.695312 176.980469 142.359375 C 176.960938 143.707031 177.445312 148.039062 178.746094 144.535156 C 179.449219 142.644531 178.359375 135.644531 177.300781 139.578125 C 177.039062 140.546875 176.949219 141.589844 176.976562 142.59375 M 144.710938 144.441406 C 145.019531 144.550781 144.59375 145.113281 144.621094 145.453125 C 144.691406 146.390625 144.933594 147.417969 145.28125 148.289062 C 145.808594 149.605469 147.644531 151.828125 147.660156 148.992188 C 147.664062 148.042969 145.546875 140.324219 144.425781 143.894531 C 144.25 144.453125 144.285156 145.085938 144.390625 145.660156 M 169.609375 185.707031 C 169.921875 185.816406 169.496094 186.378906 169.523438 186.71875 C 169.59375 187.65625 169.835938 188.683594 170.183594 189.554688 C 170.710938 190.871094 172.546875 193.097656 172.5625 190.261719 C 172.566406 189.308594 170.445312 181.59375 169.328125 185.160156 C 169.148438 185.722656 169.1875 186.351562 169.292969 186.925781 M 137.46875 135.371094 C 137.46875 135.355469 137.445312 135.34375 137.429688 135.347656 C 135.625 135.761719 132.886719 143.433594 136.445312 140.550781 C 137.871094 139.394531 139.625 137.117188 139.40625 135.085938 C 139.261719 133.730469 137.195312 135.867188 136.902344 136.191406 M 179.140625 152.476562 C 179.136719 152.460938 179.113281 152.449219 179.101562 152.453125 C 177.296875 152.867188 174.558594 160.539062 178.113281 157.65625 C 179.542969 156.496094 181.292969 154.222656 181.078125 152.191406 C 180.933594 150.835938 178.863281 152.972656 178.574219 153.296875 M 136.957031 152.703125 C 137.078125 152.511719 136.988281 153.164062 137.023438 153.394531 C 137.097656 153.898438 137.199219 154.402344 137.355469 154.886719 C 137.695312 155.9375 138.992188 159.984375 140.664062 159.304688 C 143.582031 158.128906 136.28125 146.722656 136.988281 154.097656 M 171.421875 164.699219 C 171.644531 164.679688 171.089844 165.007812 170.933594 165.171875 C 170.59375 165.542969 170.269531 165.933594 169.992188 166.355469 C 169.390625 167.273438 167.074219 170.800781 168.613281 171.757812 C 171.300781 173.425781 175.605469 160.496094 170.371094 165.574219 M 148.4375 163.308594 C 148.300781 164.144531 143.121094 166.359375 143.621094 168.351562 C 144.21875 170.753906 148.085938 166.921875 148.6875 166.363281 C 149.597656 165.523438 150.988281 162.695312 148.609375 163.367188 M 163.3125 179.605469 C 163.039062 180.402344 157.570312 181.671875 157.730469 183.722656 C 157.925781 186.191406 162.367188 183.097656 163.054688 182.65625 C 164.089844 181.988281 165.929688 179.449219 163.476562 179.691406 M 155.71875 151.652344 C 155.460938 151.433594 153.816406 154.382812 153.714844 154.574219 C 150.597656 160.484375 157.535156 156.027344 157.734375 151.78125 C 157.816406 150.136719 156.226562 150.960938 155.597656 151.632812 C 155.539062 151.699219 155.480469 151.765625 155.421875 151.828125 M 179.292969 174.480469 C 179.074219 174.214844 176.945312 176.808594 176.8125 176.980469 C 172.71875 182.214844 180.316406 179.117188 181.253906 174.980469 C 181.617188 173.375 179.910156 173.890625 179.179688 174.4375 C 179.109375 174.488281 179.039062 174.542969 178.96875 174.59375 M 155.84375 138.335938 C 155.53125 139.183594 152.355469 145.1875 154.164062 145.433594 C 154.390625 145.464844 154.664062 145.332031 154.839844 145.195312 C 155.847656 144.421875 156.511719 142.953125 156.925781 141.765625 C 157.816406 139.214844 156.652344 137.023438 155.117188 139.457031 M 187.675781 147.257812 C 187.363281 148.109375 184.1875 154.109375 185.996094 154.359375 C 186.222656 154.390625 186.496094 154.257812 186.671875 154.121094 C 187.679688 153.347656 188.34375 151.878906 188.757812 150.691406 C 189.648438 148.140625 188.484375 145.945312 186.953125 148.382812 M 160.464844 161.011719 C 160.976562 162.582031 158.671875 167.996094 161.386719 167.222656 C 161.605469 167.15625 161.761719 166.96875 161.890625 166.785156 C 163.488281 164.566406 161.859375 158.234375 160.359375 161.671875 M 184.007812 163.867188 C 185.011719 165.160156 184.640625 171.066406 186.9375 169.375 C 187.121094 169.238281 187.203125 169.007812 187.265625 168.789062 C 188.03125 166.140625 184.402344 160.765625 184.132812 164.523438 M 166.824219 147.140625 C 166.890625 146.800781 166.484375 147.738281 166.339844 148.050781 C 165.757812 149.304688 165.394531 150.78125 165.347656 152.171875 C 165.242188 155.527344 168.789062 149.355469 168.585938 147.480469 C 168.375 145.566406 166.832031 146.929688 166.28125 147.832031 M 165.550781 135.386719 C 164.914062 135.199219 161.550781 142.980469 164.660156 140.21875 C 165.269531 139.679688 165.761719 139.074219 166.160156 138.355469 C 166.488281 137.765625 166.765625 137.132812 166.984375 136.488281 C 167.945312 133.628906 165.582031 134.917969 164.707031 136.390625 M 132.003906 164.453125 C 131.988281 164.34375 132.046875 165.191406 132.054688 165.359375 C 132.085938 166.074219 132.210938 166.78125 132.355469 167.476562 C 132.914062 170.136719 135.039062 169.328125 134.898438 166.601562 C 134.742188 163.609375 132.066406 162.347656 132.292969 165.328125 C 132.308594 165.515625 132.320312 165.695312 132.355469 165.878906 M 140.171875 177.703125 C 140.15625 177.59375 140.214844 178.441406 140.222656 178.613281 C 140.253906 179.324219 140.378906 180.03125 140.523438 180.726562 C 141.082031 183.386719 143.207031 182.578125 143.066406 179.851562 C 142.910156 176.859375 140.234375 175.597656 140.460938 178.582031 C 140.476562 178.765625 140.488281 178.945312 140.523438 179.128906 M 129.648438 149.808594 C 129.691406 149.695312 129.289062 150.53125 129.207031 150.699219 C 128.855469 151.394531 128.59375 152.136719 128.359375 152.871094 C 127.453125 155.699219 129.871094 156.015625 131.203125 153.339844 C 132.660156 150.40625 130.835938 147.828125 129.449219 150.792969 C 129.363281 150.976562 129.28125 151.15625 129.214844 151.347656 M 152.125 173.644531 C 152.167969 173.53125 151.769531 174.367188 151.683594 174.535156 C 151.332031 175.230469 151.070312 175.972656 150.835938 176.710938 C 149.929688 179.535156 152.347656 179.851562 153.679688 177.175781 C 155.140625 174.238281 153.3125 171.664062 151.925781 174.628906 C 151.839844 174.8125 151.757812 174.992188 151.691406 175.183594" fill-rule="evenodd"/></g></g></svg>