<?xml version="1.0" encoding="UTF-8" standalone="no"?><svg xmlns="http://www.w3.org/2000/svg" xmlns:xlink="http://www.w3.org/1999/xlink" contentScriptType="text/ecmascript" fill="#000000" width="2621.2" zoomAndPan="magnify" contentStyleType="text/css" viewBox="-20.6 0.0 2621.2 1488.6" height="1488.6" preserveAspectRatio="xMidYMid meet" version="1"><g id="change1_1"><path d="M2575.07,513.4c-7.53-42.14-23.88-82.67-48.59-120.46c-24.06-36.79-56.32-71.43-95.89-102.96 c-38.81-30.92-85.05-59.16-137.43-83.94c-51.85-24.53-110.16-45.88-173.33-63.47c-9.1-2.53-18.33-4.98-27.64-7.37 c-54.16-20.56-53.3-44.32-38.83-135.2c-24.78,92.06-33.47,112.4-97.12,107.08c-13.22-2.14-26.57-4.14-40.04-6.01 c-72.66-10.04-149.49-16.09-228.36-17.98c-164.08-3.92-335.18,9.8-508.54,40.78c-173.36,30.98-338.62,77.36-491.19,137.87 c-73.34,29.08-143.32,61.37-208,95.95c-64.08,34.26-123.52,71.09-176.66,109.44c-53.17,38.37-100.48,78.6-140.62,119.57 c-40.55,41.39-74.15,83.89-99.85,126.34C36.77,756.33,18.5,800,8.68,842.84c-10.09,44.01-11.39,87.7-3.86,129.83 c7.53,42.14,23.88,82.67,48.59,120.46c24.05,36.79,56.32,71.43,95.89,102.96c38.81,30.92,85.05,59.16,137.43,83.94 c51.84,24.53,110.16,45.88,173.33,63.47c15.83,4.41,32,8.59,48.47,12.53c47.96,19.81,46.76,45.2,33.37,132.53 c23.69-90.05,32.41-111.6,92.14-107.94c9.82,1.53,19.7,2.99,29.65,4.37c72.66,10.04,149.49,16.09,228.36,17.98 c18.26,0.44,36.6,0.65,55.02,0.65c147.16,0,299.45-13.9,453.52-41.43c173.36-30.98,338.62-77.36,491.19-137.87 c73.34-29.08,143.32-61.37,208-95.95c64.08-34.26,123.52-71.09,176.66-109.44c53.17-38.37,100.48-78.6,140.62-119.57 c40.55-41.39,74.15-83.89,99.85-126.34c26.21-43.28,44.48-86.95,54.3-129.8C2581.3,599.22,2582.6,555.54,2575.07,513.4z M2274.15,1015.77c-221.3,159.72-531.78,281.39-874.26,342.58c-155.18,27.73-308.49,41.54-454.24,41.54 c-94.49,0-185.78-5.81-272.35-17.39c-93.28-25.62-95.57-38.09-78.85-147.14c-29.1,110.6-35.62,117.87-141.8,102 c-257.44-73.5-414.99-203.05-444-365.38C-20.65,807.9,84.85,629.73,305.74,470.3c221.3-159.72,531.78-281.39,874.26-342.58 c155.18-27.73,308.49-41.54,454.24-41.54c100.65,0,197.68,6.6,289.23,19.73c91.05,25.75,93.1,38.88,75.89,146.99 c28.9-107.35,35.91-117.18,133.73-102.51c253.97,73.78,409.36,202.6,438.14,363.69C2600.54,678.18,2495.04,856.34,2274.15,1015.77z"/></g></svg>